<?xml version="1.0" encoding="UTF-8" standalone="no"?>
<svg
   width="856"
   height="504"
   viewBox="0 0 856 504"
   version="1.1"
   id="svg114"
   xmlns="http://www.w3.org/2000/svg"
   xmlns:svg="http://www.w3.org/2000/svg">
  <path
     id="rect1"
     style="fill:#f9f5d7;stroke:#d79921;stroke-width:2"
     d="M 1,1 H 855 V 503 H 1 Z" />
  <g
     id="text114"
     class="sample"
     style="font-size:28px;font-family:'Ramsevka Mono Preview';font-feature-settings:'calt' 1, 'dlig' 1;fill:#3c3836"
     aria-label="     *     !     &quot;     #     $     %     &amp;     '     (     )     *     +     ,     -     .     /     0     1     2     3     4     5     6     7     8     9     :     ;     &lt;     =     &gt;     ?     @     A     B     C     D     E     F     G     H     I     J     K     L     M     N     O     P     Q     R     S     T     U     V     W     X     Y     Z     [     \     ]     ^     _     `     a     b     c     d     e     f     g     h     i     j     k     l     m     n     o     p     q     r     s     t     u     v     w     x     y     z     {     |     }     ~     🯅     ←     ↑     →     ↓     ■     □     ▲     △     ◇     ◈     ≤     ≥     λ     β     €     Σ     -&gt;  -&gt;&gt;  -&lt;&gt;  -&lt;&gt;&gt;  -&lt;&gt;&lt;  -&lt;&gt;&lt;:  -&lt;&lt;  -&lt;&lt;:  -&lt;  -&lt;:  ;;     #{  #(  #_  #_(  #?  #:  .-  ~@  &amp;&amp; ||  /\  \/  -|  ">
    <path
       d="M 20.424,33.8 18.66,32.652 21.6,28.9 l -4.536,-1.316 0.672,-1.848 4.34,1.568 -0.168,-4.704 h 2.184 l -0.168,4.704 4.34,-1.568 0.672,1.848 L 24.4,28.9 27.34,32.652 25.576,33.8 23,29.992 Z"
       id="path114" />
    <path
       d="m 73.908,30.72 v -13.3 h 2.184 v 13.3 z M 75,38.224 q -0.392,0 -0.784,-0.112 Q 73.824,38 73.544,37.72 73.264,37.412 73.152,37.048 73.04,36.656 73.04,36.236 q 0,-0.392 0.112,-0.756 0.112,-0.392 0.392,-0.672 0.28,-0.308 0.672,-0.42 0.392,-0.112 0.784,-0.112 0.392,0 0.784,0.112 0.392,0.112 0.672,0.42 0.28,0.28 0.392,0.672 0.112,0.364 0.112,0.756 0,0.42 -0.112,0.812 -0.112,0.364 -0.392,0.672 -0.28,0.28 -0.672,0.392 -0.392,0.112 -0.784,0.112 z"
       id="path115" />
    <path
       d="m 125.236,25.624 h -2.072 q -0.084,-2.296 -0.14,-4.592 -0.028,-2.324 -0.028,-4.648 h 2.408 q 0,2.324 -0.056,4.648 -0.028,2.296 -0.112,4.592 z m 5.6,0 h -2.072 q -0.084,-2.296 -0.14,-4.592 -0.028,-2.324 -0.028,-4.648 h 2.408 q 0,2.324 -0.056,4.648 -0.028,2.296 -0.112,4.592 z"
       id="path116" />
    <path
       d="m 178.552,37.496 3.668,-19.572 h 2.1 l -0.924,4.9 h 2.352 v 1.96 h -2.716 l -1.12,5.852 h 2.604 v 1.96 h -2.968 l -0.924,4.9 z m -4.872,0 0.924,-4.9 h -2.352 v -1.96 h 2.716 l 1.12,-5.852 h -2.604 v -1.96 h 2.968 l 0.924,-4.9 h 2.072 l -3.668,19.572 z"
       id="path117" />
    <path
       d="M 229.992,40.996 V 37.16 q -0.924,-0.112 -1.792,-0.504 -0.84,-0.392 -1.484,-1.064 -0.616,-0.7 -0.924,-1.568 -0.28,-0.896 -0.28,-1.82 v -0.28 h 2.184 v 0.168 q 0,0.532 0.14,1.064 0.168,0.532 0.476,0.952 0.336,0.42 0.812,0.7 0.476,0.252 0.98,0.364 V 28.48 q -0.84,-0.392 -1.624,-0.896 -0.784,-0.504 -1.4,-1.204 -0.588,-0.7 -0.952,-1.568 -0.336,-0.896 -0.336,-1.82 0,-0.868 0.28,-1.708 0.28,-0.84 0.868,-1.484 0.588,-0.672 1.372,-1.036 0.812,-0.364 1.68,-0.476 v -3.892 h 2.016 v 3.892 q 0.896,0.084 1.708,0.504 0.84,0.392 1.4,1.092 0.588,0.7 0.868,1.568 0.28,0.868 0.28,1.764 v 0.28 h -2.184 v -0.168 q 0,-0.504 -0.14,-1.008 -0.112,-0.504 -0.392,-0.924 -0.28,-0.448 -0.728,-0.728 -0.42,-0.28 -0.924,-0.392 v 6.552 q 0.868,0.392 1.68,0.896 0.812,0.504 1.456,1.232 0.644,0.7 1.008,1.596 0.392,0.896 0.392,1.876 0,0.896 -0.308,1.764 -0.308,0.84 -0.924,1.484 -0.616,0.644 -1.456,1.008 -0.84,0.364 -1.736,0.448 v 3.864 z m 0.112,-14.98 v -5.74 q -0.448,0.084 -0.868,0.336 -0.42,0.252 -0.7,0.616 -0.28,0.364 -0.448,0.84 -0.14,0.448 -0.14,0.924 0,0.504 0.168,0.98 0.168,0.448 0.476,0.84 0.308,0.392 0.7,0.7 0.392,0.28 0.812,0.504 z m 1.792,9.156 q 0.476,-0.112 0.924,-0.336 0.448,-0.224 0.784,-0.588 0.336,-0.392 0.504,-0.868 0.168,-0.476 0.168,-0.98 0,-0.504 -0.196,-1.008 -0.196,-0.504 -0.532,-0.896 -0.336,-0.392 -0.784,-0.672 -0.42,-0.308 -0.868,-0.56 z"
       id="path118" />
    <path
       d="m 279.948,27.92 q -0.616,0 -1.26,-0.14 -0.616,-0.168 -1.092,-0.56 -0.476,-0.42 -0.7,-1.008 -0.224,-0.616 -0.224,-1.232 v -4.844 q 0,-0.616 0.224,-1.204 0.224,-0.616 0.7,-1.008 0.476,-0.42 1.092,-0.56 0.644,-0.168 1.26,-0.168 0.616,0 1.232,0.168 0.644,0.14 1.12,0.56 0.476,0.392 0.7,1.008 0.224,0.588 0.224,1.204 v 4.844 q 0,0.616 -0.224,1.232 -0.224,0.588 -0.7,1.008 -0.476,0.392 -1.12,0.56 -0.616,0.14 -1.232,0.14 z m 4.088,-1.988 2.8,-8.512 h 2.268 l -2.996,8.512 z m -4.088,0.252 q 0.252,0 0.504,-0.056 0.252,-0.084 0.448,-0.224 0.196,-0.168 0.28,-0.42 0.112,-0.252 0.112,-0.504 v -4.844 q 0,-0.252 -0.112,-0.476 -0.084,-0.252 -0.28,-0.42 -0.196,-0.168 -0.448,-0.224 -0.252,-0.084 -0.504,-0.084 -0.252,0 -0.504,0.084 -0.252,0.056 -0.448,0.224 -0.196,0.168 -0.308,0.42 -0.084,0.224 -0.084,0.476 v 4.844 q 0,0.252 0.084,0.504 0.112,0.252 0.308,0.42 0.196,0.14 0.448,0.224 0.252,0.056 0.504,0.056 z m 6.104,12.04 q -0.616,0 -1.26,-0.168 -0.616,-0.14 -1.092,-0.532 -0.476,-0.42 -0.7,-1.008 -0.224,-0.616 -0.224,-1.26 V 30.44 q 0,-0.616 0.224,-1.204 0.224,-0.616 0.7,-1.008 0.476,-0.42 1.092,-0.56 0.644,-0.168 1.26,-0.168 0.616,0 1.232,0.168 0.644,0.14 1.12,0.56 0.476,0.392 0.7,1.008 0.224,0.588 0.224,1.204 v 4.816 q 0,0.644 -0.224,1.26 -0.224,0.588 -0.7,1.008 -0.476,0.392 -1.12,0.532 -0.616,0.168 -1.232,0.168 z m 0,-1.736 q 0.252,0 0.504,-0.056 0.252,-0.084 0.448,-0.252 0.196,-0.168 0.28,-0.392 0.112,-0.252 0.112,-0.532 V 30.44 q 0,-0.252 -0.112,-0.504 -0.084,-0.252 -0.28,-0.392 -0.196,-0.168 -0.448,-0.224 -0.252,-0.084 -0.504,-0.084 -0.252,0 -0.504,0.084 -0.252,0.056 -0.448,0.224 -0.196,0.14 -0.308,0.392 -0.084,0.252 -0.084,0.504 v 4.816 q 0,0.28 0.084,0.532 0.112,0.224 0.308,0.392 0.196,0.168 0.448,0.252 0.252,0.056 0.504,0.056 z m -9.156,1.512 2.996,-8.512 h 2.072 l -2.8,8.512 z"
       id="path119" />
    <path
       d="m 334.412,38.224 q -0.672,0 -1.372,-0.168 -0.672,-0.14 -1.26,-0.504 -0.56,-0.392 -0.98,-0.952 -0.42,-0.56 -0.7,-1.176 -0.252,-0.644 -0.42,-1.316 -0.14,-0.672 -0.14,-1.372 0,-0.84 0.252,-1.624 0.252,-0.812 0.672,-1.512 0.448,-0.728 1.008,-1.344 0.56,-0.616 1.148,-1.204 -0.392,-0.644 -0.812,-1.288 -0.42,-0.644 -0.756,-1.316 -0.336,-0.7 -0.56,-1.428 -0.196,-0.756 -0.196,-1.512 0,-0.84 0.252,-1.652 0.28,-0.84 0.84,-1.456 0.588,-0.644 1.4,-0.924 0.812,-0.28 1.652,-0.28 0.588,0 1.148,0.14 0.588,0.112 1.092,0.42 0.504,0.28 0.868,0.728 0.392,0.448 0.616,0.98 0.252,0.532 0.336,1.12 0.084,0.588 0.084,1.176 h -2.1 q 0,-0.476 -0.112,-0.952 -0.084,-0.476 -0.336,-0.868 -0.252,-0.392 -0.7,-0.616 -0.42,-0.224 -0.896,-0.224 -0.448,0 -0.868,0.196 -0.42,0.168 -0.7,0.56 -0.252,0.364 -0.364,0.812 -0.084,0.42 -0.084,0.868 0,0.616 0.168,1.232 0.196,0.588 0.476,1.148 0.28,0.532 0.616,1.064 0.336,0.504 0.672,1.008 0.336,0.504 0.644,1.036 0.336,0.504 0.644,1.036 l 2.52,4.256 1.148,-2.968 h 2.156 l -1.68,4.312 q -0.084,0.224 -0.168,0.448 -0.084,0.196 -0.168,0.392 l 2.072,3.5 h -2.38 l -1.008,-1.708 q -0.392,0.532 -0.924,0.98 -0.504,0.448 -1.148,0.672 -0.392,0.14 -0.812,0.196 -0.42,0.084 -0.84,0.084 z m 0.196,-1.904 q 0.392,0 0.784,-0.112 0.392,-0.14 0.7,-0.364 0.336,-0.224 0.588,-0.532 0.28,-0.308 0.476,-0.672 l -3.304,-5.6 q -0.056,-0.084 -0.112,-0.168 -0.028,-0.084 -0.084,-0.168 -0.42,0.42 -0.784,0.868 -0.364,0.42 -0.644,0.924 -0.28,0.504 -0.42,1.064 -0.14,0.56 -0.14,1.12 0,0.448 0.056,0.896 0.084,0.42 0.224,0.84 0.168,0.392 0.42,0.784 0.252,0.364 0.588,0.644 0.364,0.252 0.784,0.364 0.42,0.112 0.868,0.112 z"
       id="path120" />
    <path
       d="m 388.036,25.624 h -2.072 q -0.084,-2.296 -0.14,-4.592 -0.028,-2.324 -0.028,-4.648 h 2.408 q 0,2.324 -0.056,4.648 -0.028,2.296 -0.112,4.592 z"
       id="path121" />
    <path
       d="m 442.416,42.508 q -1.204,-0.672 -2.268,-1.596 -1.036,-0.896 -1.876,-2.016 -0.84,-1.092 -1.428,-2.352 -0.588,-1.26 -0.952,-2.576 -0.364,-1.344 -0.532,-2.716 -0.14,-1.4 -0.14,-2.772 0,-1.372 0.14,-2.744 0.168,-1.4 0.532,-2.716 0.364,-1.344 0.952,-2.604 0.588,-1.26 1.428,-2.352 0.84,-1.12 1.876,-2.016 1.064,-0.924 2.268,-1.596 l 1.064,1.708 q -1.54,0.896 -2.772,2.268 -1.204,1.372 -1.96,3.024 -0.756,1.624 -1.064,3.444 -0.28,1.792 -0.28,3.584 0,1.792 0.28,3.612 0.308,1.792 1.064,3.444 0.756,1.624 1.96,2.996 1.232,1.372 2.772,2.268 z"
       id="path122" />
    <path
       d="M 487.584,42.508 486.52,40.8 q 1.54,-0.896 2.744,-2.268 1.232,-1.372 1.988,-2.996 0.756,-1.652 1.036,-3.444 0.308,-1.82 0.308,-3.612 0,-1.792 -0.308,-3.584 -0.28,-1.82 -1.036,-3.444 -0.756,-1.652 -1.988,-3.024 -1.204,-1.372 -2.744,-2.268 l 1.064,-1.708 q 1.204,0.672 2.24,1.596 1.064,0.896 1.904,2.016 0.84,1.092 1.428,2.352 0.588,1.26 0.952,2.604 0.364,1.316 0.504,2.716 0.168,1.372 0.168,2.744 0,1.372 -0.168,2.772 -0.14,1.372 -0.504,2.716 -0.364,1.316 -0.952,2.576 -0.588,1.26 -1.428,2.352 -0.84,1.12 -1.904,2.016 -1.036,0.924 -2.24,1.596 z"
       id="path123" />
    <path
       d="m 540.424,33.8 -1.764,-1.148 2.94,-3.752 -4.536,-1.316 0.672,-1.848 4.34,1.568 -0.168,-4.704 h 2.184 l -0.168,4.704 4.34,-1.568 0.672,1.848 -4.536,1.316 2.94,3.752 L 545.576,33.8 543,29.992 Z"
       id="path124" />
    <path
       d="m 593.964,33.884 v -4.48 h -4.172 v -1.848 h 4.172 v -4.48 h 2.072 v 4.48 h 4.172 v 1.848 h -4.172 v 4.48 z"
       id="path125" />
    <path
       d="m 646.02,44.02 -1.652,-1.26 q 0.896,-1.008 1.624,-2.128 0.756,-1.12 1.12,-2.408 h -0.14 q -0.42,0 -0.868,-0.14 -0.42,-0.14 -0.728,-0.448 -0.308,-0.308 -0.448,-0.728 -0.112,-0.42 -0.112,-0.868 0,-0.448 0.112,-0.868 0.14,-0.42 0.448,-0.728 0.336,-0.336 0.756,-0.448 0.42,-0.14 0.868,-0.14 0.448,0 0.896,0.14 0.448,0.14 0.756,0.476 0.308,0.308 0.42,0.756 0.112,0.448 0.112,0.896 0,1.092 -0.252,2.156 -0.252,1.064 -0.672,2.044 -0.42,1.008 -1.008,1.932 -0.56,0.924 -1.232,1.764 z"
       id="path126" />
    <path
       d="M 704.208,29.46 H 693.792 V 27.5 h 10.416 z"
       id="path127" />
    <path
       d="m 751,38.224 q -0.448,0 -0.868,-0.14 -0.42,-0.112 -0.756,-0.42 -0.308,-0.336 -0.448,-0.756 -0.112,-0.42 -0.112,-0.868 0,-0.448 0.112,-0.868 0.14,-0.42 0.448,-0.728 0.336,-0.336 0.756,-0.448 0.42,-0.14 0.868,-0.14 0.448,0 0.868,0.14 0.42,0.112 0.728,0.448 0.336,0.308 0.448,0.728 0.14,0.42 0.14,0.868 0,0.448 -0.14,0.868 -0.112,0.42 -0.448,0.756 -0.308,0.308 -0.728,0.42 -0.42,0.14 -0.868,0.14 z"
       id="path128" />
    <path
       d="m 799.892,42.004 h -2.24 l 8.456,-27.048 h 2.24 z"
       id="path129" />
    <path
       d="m 17.624,89.632 q -0.028,-0.308 -0.056,-0.616 0,-0.308 0,-0.616 v -9.38 q 0,-0.756 0.112,-1.512 0.112,-0.756 0.42,-1.428 0.308,-0.7 0.812,-1.26 0.532,-0.588 1.176,-0.952 0.672,-0.364 1.4,-0.504 0.756,-0.168 1.512,-0.168 0.644,0 1.26,0.112 0.644,0.084 1.204,0.336 0.588,0.252 1.092,0.672 0.504,0.392 0.868,0.924 l -1.4,2.072 q -0.168,-0.476 -0.448,-0.896 -0.28,-0.42 -0.7,-0.7 -0.392,-0.308 -0.896,-0.42 -0.476,-0.14 -0.98,-0.14 -0.476,0 -0.952,0.112 -0.476,0.112 -0.868,0.392 -0.392,0.252 -0.7,0.644 -0.28,0.392 -0.448,0.84 -0.168,0.448 -0.224,0.924 -0.056,0.476 -0.056,0.952 v 7.504 z M 23,94.224 q -0.644,0 -1.288,-0.112 -0.616,-0.084 -1.204,-0.336 -0.56,-0.252 -1.064,-0.644 -0.504,-0.42 -0.868,-0.952 l 1.4,-2.072 q 0.168,0.476 0.448,0.896 0.28,0.42 0.672,0.728 0.42,0.28 0.896,0.42 0.504,0.112 1.008,0.112 0.476,0 0.952,-0.112 0.476,-0.112 0.868,-0.364 0.392,-0.28 0.672,-0.672 0.308,-0.392 0.476,-0.84 0.168,-0.448 0.224,-0.924 0.056,-0.476 0.056,-0.952 v -7.504 l 2.128,-3.108 q 0.028,0.308 0.028,0.616 0.028,0.308 0.028,0.616 v 9.38 q 0,0.756 -0.112,1.512 -0.112,0.756 -0.42,1.456 -0.308,0.672 -0.84,1.26 -0.504,0.56 -1.176,0.924 -0.644,0.364 -1.4,0.504 -0.728,0.168 -1.484,0.168 z"
       id="path130" />
    <path
       d="m 70.1,94 v -1.96 h 4.032 V 79.412 h -3.808 v -1.96 h 3.808 V 73.42 h 2.156 V 92.04 H 79.9 V 94 Z"
       id="path131" />
    <path
       d="m 121.792,94 v -1.96 l 6.16,-8.316 q 0.392,-0.532 0.784,-1.092 0.42,-0.56 0.728,-1.176 0.336,-0.616 0.504,-1.26 0.168,-0.672 0.168,-1.372 0,-0.672 -0.168,-1.344 -0.14,-0.7 -0.56,-1.232 -0.392,-0.56 -1.064,-0.812 -0.644,-0.28 -1.316,-0.28 -0.644,0 -1.26,0.224 -0.588,0.196 -1.036,0.672 -0.42,0.448 -0.616,1.064 -0.196,0.588 -0.196,1.232 v 0.112 h -2.184 v -0.168 q 0,-0.7 0.14,-1.372 0.168,-0.7 0.504,-1.288 0.336,-0.616 0.84,-1.092 0.504,-0.504 1.12,-0.812 0.616,-0.308 1.288,-0.42 0.7,-0.112 1.4,-0.112 0.728,0 1.456,0.14 0.728,0.14 1.372,0.504 0.644,0.364 1.12,0.924 0.504,0.532 0.812,1.204 0.308,0.672 0.42,1.4 0.112,0.728 0.112,1.456 0,0.84 -0.196,1.652 -0.196,0.812 -0.56,1.568 -0.364,0.756 -0.84,1.428 -0.476,0.672 -0.98,1.344 l -0.028,0.056 q -0.028,0 -0.028,0 V 84.9 l -5.292,7.14 h 5.88 v -2.1 h 1.932 V 94 Z"
       id="path132" />
    <path
       d="m 179.084,94.224 q -0.728,0 -1.456,-0.112 -0.7,-0.112 -1.344,-0.42 -0.644,-0.308 -1.204,-0.812 -0.532,-0.504 -0.896,-1.12 -0.336,-0.644 -0.504,-1.344 -0.168,-0.7 -0.168,-1.428 V 88.96 h 2.184 v 0.028 q 0,0.672 0.224,1.316 0.224,0.644 0.7,1.12 0.476,0.448 1.12,0.644 0.672,0.196 1.344,0.196 0.504,0 1.008,-0.14 0.532,-0.14 0.924,-0.448 0.42,-0.336 0.7,-0.784 0.308,-0.448 0.476,-0.924 0.168,-0.504 0.224,-1.008 0.056,-0.532 0.056,-1.064 0,-0.532 -0.056,-1.036 -0.056,-0.532 -0.252,-1.008 -0.168,-0.504 -0.476,-0.924 -0.308,-0.42 -0.728,-0.7 -0.42,-0.308 -0.924,-0.42 -0.504,-0.14 -1.036,-0.14 h -2.604 v -1.96 l 5.124,-6.328 h -5.964 v 2.1 h -1.932 v -4.06 h 10.332 v 1.96 l -5.124,6.328 H 179 q 0.784,0 1.568,0.168 0.812,0.14 1.484,0.56 0.7,0.392 1.204,1.008 0.532,0.616 0.84,1.344 0.336,0.728 0.448,1.54 0.112,0.784 0.112,1.568 0,0.812 -0.112,1.596 -0.112,0.784 -0.42,1.54 -0.308,0.728 -0.812,1.372 -0.504,0.616 -1.204,1.064 -0.672,0.42 -1.456,0.588 -0.784,0.168 -1.568,0.168 z"
       id="path133" />
    <path
       d="m 230.3,94 v -1.96 h 1.904 v -4.312 h -6.412 V 73.42 h 2.184 v 12.348 h 4.228 v -8.764 h 2.184 v 8.764 h 1.82 v 1.96 h -1.82 v 4.312 h 1.288 V 94 Z"
       id="path134" />
    <path
       d="m 283.084,94.224 q -0.672,0 -1.344,-0.112 -0.644,-0.112 -1.26,-0.392 -0.588,-0.28 -1.092,-0.728 -0.504,-0.448 -0.868,-1.008 -0.336,-0.56 -0.532,-1.204 -0.196,-0.644 -0.224,-1.316 h 2.184 q 0.056,0.588 0.28,1.148 0.252,0.532 0.672,0.924 0.448,0.392 1.008,0.56 0.588,0.168 1.176,0.168 0.504,0 0.98,-0.14 0.504,-0.168 0.868,-0.476 0.392,-0.336 0.644,-0.784 0.28,-0.448 0.42,-0.924 0.14,-0.476 0.196,-0.98 0.056,-0.504 0.056,-1.008 0,-0.504 -0.056,-1.008 -0.056,-0.532 -0.252,-1.008 -0.168,-0.504 -0.476,-0.924 -0.308,-0.42 -0.756,-0.7 -0.42,-0.308 -0.924,-0.42 -0.504,-0.112 -1.008,-0.112 h -4.452 V 73.42 h 9.352 v 4.06 h -1.932 v -2.1 h -5.264 v 6.44 h 2.296 q 0.784,0 1.568,0.168 0.784,0.14 1.484,0.532 0.7,0.392 1.204,1.008 0.532,0.588 0.84,1.316 0.336,0.728 0.448,1.54 0.112,0.784 0.112,1.568 0,0.784 -0.112,1.568 -0.112,0.756 -0.392,1.484 -0.28,0.728 -0.756,1.372 -0.476,0.644 -1.148,1.064 -0.644,0.42 -1.428,0.588 -0.756,0.196 -1.512,0.196 z"
       id="path135" />
    <path
       d="m 335,94.224 q -0.784,0 -1.568,-0.196 -0.784,-0.168 -1.456,-0.588 -0.644,-0.448 -1.148,-1.092 -0.476,-0.644 -0.756,-1.372 -0.28,-0.756 -0.392,-1.54 -0.112,-0.784 -0.112,-1.596 0,-1.26 0.224,-2.52 0.252,-1.26 0.672,-2.464 0.42,-1.204 0.952,-2.352 0.56,-1.176 1.148,-2.296 l 2.38,-4.788 h 2.408 l -2.856,5.656 q -0.448,0.924 -0.896,1.848 -0.448,0.924 -0.812,1.876 0.28,-0.336 0.616,-0.588 0.364,-0.252 0.756,-0.42 0.42,-0.168 0.84,-0.224 0.448,-0.084 0.868,-0.084 0.728,0 1.456,0.224 0.728,0.224 1.26,0.728 0.56,0.476 0.924,1.148 0.364,0.644 0.56,1.344 0.224,0.7 0.28,1.456 0.084,0.728 0.084,1.456 0,0.812 -0.112,1.596 -0.112,0.784 -0.392,1.54 -0.28,0.728 -0.784,1.372 -0.476,0.644 -1.148,1.092 -0.644,0.42 -1.428,0.588 -0.784,0.196 -1.568,0.196 z m 0,-1.96 q 0.504,0 1.008,-0.14 0.504,-0.168 0.896,-0.504 0.42,-0.336 0.672,-0.784 0.28,-0.448 0.42,-0.924 0.14,-0.504 0.196,-1.008 0.056,-0.532 0.056,-1.064 0,-0.504 -0.056,-1.008 -0.056,-0.532 -0.196,-1.008 -0.14,-0.504 -0.42,-0.952 -0.252,-0.448 -0.672,-0.784 -0.392,-0.336 -0.896,-0.476 -0.504,-0.168 -1.008,-0.168 -0.476,0 -0.924,0.112 -0.448,0.112 -0.84,0.392 -0.364,0.28 -0.644,0.672 -0.28,0.392 -0.476,0.84 -0.168,0.42 -0.252,0.896 -0.084,0.448 -0.112,0.896 v 0.588 q 0,0.532 0.056,1.064 0.056,0.504 0.196,1.008 0.14,0.476 0.392,0.924 0.28,0.448 0.672,0.784 0.42,0.336 0.924,0.504 0.504,0.14 1.008,0.14 z"
       id="path136" />
    <path
       d="m 384.088,94 2.856,-9.072 h -3.5 v -1.96 h 4.116 l 2.38,-7.588 h -6.216 v 2.1 h -1.932 v -4.06 h 10.416 v 1.96 l -2.38,7.588 h 2.072 v 1.96 h -2.716 L 386.328,94 Z"
       id="path137" />
    <path
       d="m 439,94.224 q -0.672,0 -1.372,-0.112 -0.672,-0.084 -1.316,-0.364 -0.616,-0.28 -1.148,-0.728 -0.532,-0.448 -0.896,-1.036 -0.364,-0.588 -0.532,-1.232 -0.168,-0.672 -0.168,-1.372 0,-0.896 0.308,-1.764 0.308,-0.896 0.812,-1.624 0.532,-0.756 1.204,-1.372 0.672,-0.616 1.4,-1.176 -0.672,-0.532 -1.288,-1.12 -0.588,-0.588 -1.036,-1.288 -0.448,-0.728 -0.728,-1.54 -0.252,-0.812 -0.252,-1.652 0,-0.644 0.14,-1.26 0.168,-0.644 0.476,-1.204 0.336,-0.56 0.812,-0.98 0.504,-0.448 1.064,-0.728 0.588,-0.28 1.232,-0.364 0.644,-0.112 1.288,-0.112 0.644,0 1.288,0.112 0.644,0.084 1.204,0.364 0.588,0.28 1.064,0.728 0.504,0.42 0.812,0.98 0.336,0.56 0.476,1.204 0.168,0.616 0.168,1.26 0,0.84 -0.28,1.652 -0.252,0.812 -0.7,1.54 -0.448,0.7 -1.064,1.288 -0.588,0.588 -1.26,1.12 0.728,0.56 1.4,1.176 0.672,0.616 1.176,1.372 0.532,0.728 0.84,1.624 0.308,0.868 0.308,1.764 0,0.7 -0.168,1.372 -0.168,0.644 -0.532,1.232 -0.364,0.588 -0.896,1.036 -0.532,0.448 -1.176,0.728 -0.616,0.28 -1.316,0.364 -0.672,0.112 -1.344,0.112 z m 0,-12.012 q 0.532,-0.42 1.036,-0.868 0.504,-0.448 0.896,-0.98 0.392,-0.532 0.644,-1.176 0.252,-0.644 0.252,-1.316 0,-0.532 -0.196,-1.064 -0.196,-0.56 -0.588,-0.924 -0.392,-0.392 -0.952,-0.56 -0.532,-0.168 -1.092,-0.168 -0.56,0 -1.12,0.168 -0.532,0.168 -0.924,0.56 -0.392,0.364 -0.588,0.924 -0.196,0.532 -0.196,1.064 0,0.672 0.252,1.316 0.252,0.644 0.644,1.176 0.392,0.532 0.896,0.98 0.504,0.448 1.036,0.868 z m 0,10.052 q 0.616,0 1.232,-0.14 0.616,-0.168 1.064,-0.56 0.476,-0.42 0.7,-1.008 0.252,-0.588 0.252,-1.204 0,-0.756 -0.308,-1.428 -0.28,-0.7 -0.756,-1.26 -0.448,-0.588 -1.036,-1.064 -0.56,-0.476 -1.148,-0.896 -0.588,0.42 -1.176,0.896 -0.56,0.476 -1.036,1.064 -0.448,0.56 -0.756,1.26 -0.28,0.672 -0.28,1.428 0,0.616 0.224,1.204 0.252,0.588 0.7,1.008 0.476,0.392 1.092,0.56 0.616,0.14 1.232,0.14 z"
       id="path138" />
    <path
       d="m 487.892,94.224 -0.504,-1.904 q 0.924,-0.252 1.792,-0.7 0.868,-0.476 1.568,-1.12 0.728,-0.672 1.288,-1.484 0.56,-0.812 0.924,-1.708 0.392,-0.896 0.616,-1.848 0.224,-0.952 0.336,-1.904 -0.252,0.532 -0.644,1.008 -0.364,0.448 -0.868,0.784 -0.504,0.308 -1.092,0.448 -0.588,0.14 -1.176,0.14 -0.728,0 -1.456,-0.224 -0.728,-0.224 -1.288,-0.7 -0.532,-0.504 -0.896,-1.148 -0.364,-0.672 -0.588,-1.372 -0.196,-0.7 -0.28,-1.428 -0.056,-0.756 -0.056,-1.484 0,-0.812 0.112,-1.596 0.112,-0.784 0.392,-1.512 0.28,-0.756 0.756,-1.4 0.504,-0.644 1.148,-1.064 0.672,-0.448 1.456,-0.616 0.784,-0.196 1.568,-0.196 0.784,0 1.568,0.196 0.784,0.168 1.428,0.616 0.672,0.42 1.148,1.064 0.504,0.644 0.784,1.4 0.28,0.728 0.392,1.512 0.112,0.784 0.112,1.596 0,1.148 -0.112,2.296 -0.112,1.148 -0.28,2.296 -0.168,1.12 -0.476,2.24 -0.28,1.12 -0.784,2.156 -0.504,1.036 -1.204,1.988 -0.7,0.924 -1.596,1.652 -0.868,0.728 -1.932,1.26 -1.036,0.504 -2.156,0.756 z M 491,83.976 q 0.644,0 1.26,-0.252 0.644,-0.28 1.036,-0.784 0.42,-0.504 0.644,-1.12 0.224,-0.644 0.28,-1.316 0.028,-0.224 0.028,-0.448 0,-0.252 0,-0.476 0,-0.532 -0.056,-1.036 -0.056,-0.532 -0.196,-1.008 -0.14,-0.504 -0.42,-0.952 -0.252,-0.448 -0.672,-0.784 -0.392,-0.336 -0.896,-0.476 -0.504,-0.168 -1.008,-0.168 -0.504,0 -1.008,0.168 -0.504,0.14 -0.924,0.476 -0.392,0.336 -0.672,0.784 -0.252,0.448 -0.392,0.952 -0.14,0.476 -0.196,1.008 -0.056,0.504 -0.056,1.036 0,0.504 0.056,1.036 0.056,0.504 0.196,1.008 0.14,0.476 0.392,0.924 0.28,0.448 0.672,0.784 0.42,0.336 0.924,0.504 0.504,0.14 1.008,0.14 z"
       id="path139" />
    <path
       d="m 543,94.224 q -0.448,0 -0.868,-0.14 -0.42,-0.112 -0.756,-0.42 -0.308,-0.336 -0.448,-0.756 -0.112,-0.42 -0.112,-0.868 0,-0.448 0.112,-0.868 0.14,-0.42 0.448,-0.728 0.336,-0.336 0.756,-0.448 0.42,-0.14 0.868,-0.14 0.448,0 0.868,0.14 0.42,0.112 0.728,0.448 0.336,0.308 0.448,0.728 0.14,0.42 0.14,0.868 0,0.448 -0.14,0.868 -0.112,0.42 -0.448,0.756 -0.308,0.308 -0.728,0.42 -0.42,0.14 -0.868,0.14 z m 0,-10.64 q -0.448,0 -0.868,-0.112 -0.42,-0.14 -0.756,-0.448 -0.308,-0.336 -0.448,-0.756 -0.112,-0.42 -0.112,-0.868 0,-0.448 0.112,-0.868 0.14,-0.42 0.448,-0.728 0.336,-0.336 0.756,-0.448 0.42,-0.14 0.868,-0.14 0.448,0 0.868,0.14 0.42,0.112 0.728,0.448 0.336,0.308 0.448,0.728 0.14,0.42 0.14,0.868 0,0.448 -0.14,0.868 -0.112,0.42 -0.448,0.756 -0.308,0.308 -0.728,0.448 -0.42,0.112 -0.868,0.112 z"
       id="path140" />
    <path
       d="m 594.02,100.02 -1.652,-1.26 q 0.896,-1.008 1.624,-2.128 0.756,-1.12 1.12,-2.408 h -0.14 q -0.42,0 -0.868,-0.14 -0.42,-0.14 -0.728,-0.448 -0.308,-0.308 -0.448,-0.728 -0.112,-0.42 -0.112,-0.868 0,-0.448 0.112,-0.868 0.14,-0.42 0.448,-0.728 0.336,-0.336 0.756,-0.448 0.42,-0.14 0.868,-0.14 0.448,0 0.896,0.14 0.448,0.14 0.756,0.476 0.308,0.308 0.42,0.756 0.112,0.448 0.112,0.896 0,1.092 -0.252,2.156 -0.252,1.064 -0.672,2.044 -0.42,1.008 -1.008,1.932 -0.56,0.924 -1.232,1.764 z M 595,83.584 q -0.448,0 -0.868,-0.112 -0.42,-0.14 -0.756,-0.448 -0.308,-0.336 -0.448,-0.756 -0.112,-0.42 -0.112,-0.868 0,-0.448 0.112,-0.868 0.14,-0.42 0.448,-0.728 0.336,-0.336 0.756,-0.448 0.42,-0.14 0.868,-0.14 0.448,0 0.868,0.14 0.42,0.112 0.728,0.448 0.336,0.308 0.448,0.728 0.14,0.42 0.14,0.868 0,0.448 -0.14,0.868 -0.112,0.42 -0.448,0.756 -0.308,0.308 -0.728,0.448 -0.42,0.112 -0.868,0.112 z"
       id="path141" />
    <path
       d="m 651.676,91.676 -9.884,-6.104 v -2.184 l 9.884,-6.104 1.064,1.568 -9.156,5.628 9.156,5.628 z"
       id="path142" />
    <path
       d="m 693.792,82.912 v -1.876 h 10.416 v 1.876 z m 10.416,5.012 h -10.416 v -1.876 h 10.416 z"
       id="path143" />
    <path
       d="m 746.324,91.676 -1.064,-1.568 9.156,-5.628 -9.156,-5.628 1.064,-1.568 9.884,6.104 v 2.184 z"
       id="path144" />
    <path
       d="M 801.908,87.812 V 82.8 H 803 q 0.7,0 1.372,-0.252 0.672,-0.28 1.12,-0.84 0.448,-0.56 0.588,-1.26 0.168,-0.7 0.168,-1.4 0,-0.476 -0.056,-0.952 -0.056,-0.476 -0.224,-0.924 -0.168,-0.448 -0.448,-0.84 -0.252,-0.392 -0.644,-0.672 -0.392,-0.28 -0.868,-0.392 -0.448,-0.112 -0.924,-0.112 -0.644,0 -1.26,0.224 -0.616,0.196 -1.064,0.672 -0.448,0.448 -0.644,1.064 -0.196,0.616 -0.196,1.26 v 0.084 h -2.184 v -0.14 q 0,-0.7 0.14,-1.372 0.168,-0.7 0.504,-1.288 0.336,-0.616 0.84,-1.12 0.532,-0.504 1.148,-0.784 0.616,-0.308 1.316,-0.42 0.7,-0.14 1.4,-0.14 0.756,0 1.484,0.168 0.756,0.14 1.4,0.532 0.644,0.364 1.12,0.952 0.504,0.56 0.812,1.26 0.308,0.7 0.42,1.456 0.112,0.728 0.112,1.484 0,0.98 -0.224,1.96 -0.224,0.98 -0.812,1.792 -0.56,0.784 -1.456,1.288 -0.868,0.476 -1.848,0.616 v 3.108 z M 803,94.224 q -0.392,0 -0.784,-0.112 -0.392,-0.112 -0.672,-0.392 -0.28,-0.308 -0.392,-0.672 -0.112,-0.392 -0.112,-0.812 0,-0.392 0.112,-0.756 0.112,-0.392 0.392,-0.672 0.28,-0.308 0.672,-0.42 0.392,-0.112 0.784,-0.112 0.392,0 0.784,0.112 0.392,0.112 0.672,0.42 0.28,0.28 0.392,0.672 0.14,0.364 0.14,0.756 0,0.42 -0.14,0.812 -0.112,0.364 -0.392,0.672 -0.28,0.28 -0.672,0.392 -0.392,0.112 -0.784,0.112 z"
       id="path145" />
    <path
       d="M 27.228,152.156 H 23 q -0.728,0 -1.456,-0.168 -0.728,-0.14 -1.372,-0.504 -0.616,-0.364 -1.092,-0.924 -0.476,-0.56 -0.784,-1.232 -0.28,-0.672 -0.392,-1.4 -0.112,-0.728 -0.112,-1.456 v -11.984 q 0,-0.728 0.112,-1.456 0.112,-0.728 0.392,-1.4 0.308,-0.672 0.784,-1.232 0.476,-0.56 1.092,-0.924 0.644,-0.364 1.372,-0.504 0.728,-0.168 1.456,-0.168 0.728,0 1.456,0.168 0.728,0.14 1.344,0.504 0.644,0.364 1.12,0.924 0.476,0.56 0.756,1.232 0.308,0.672 0.42,1.4 0.112,0.728 0.112,1.456 v 9.24 q 0,0.476 -0.056,0.952 -0.056,0.448 -0.224,0.896 -0.168,0.448 -0.448,0.84 -0.252,0.392 -0.644,0.672 -0.364,0.252 -0.84,0.364 -0.476,0.112 -0.924,0.112 -0.476,0 -0.952,-0.112 -0.448,-0.112 -0.84,-0.364 -0.392,-0.28 -0.672,-0.672 -0.252,-0.392 -0.42,-0.84 -0.14,-0.448 -0.224,-0.896 -0.056,-0.476 -0.056,-0.952 v -5.348 q 0,-0.476 0.056,-0.952 0.084,-0.476 0.252,-0.924 0.168,-0.448 0.448,-0.84 0.308,-0.392 0.7,-0.644 0.392,-0.252 0.868,-0.364 0.476,-0.112 0.952,-0.112 h 1.092 v -0.056 q 0,-0.476 -0.084,-0.924 -0.056,-0.476 -0.252,-0.896 -0.168,-0.448 -0.476,-0.812 -0.28,-0.392 -0.672,-0.644 -0.392,-0.252 -0.868,-0.336 -0.448,-0.112 -0.924,-0.112 -0.476,0 -0.952,0.112 -0.448,0.084 -0.84,0.336 -0.392,0.252 -0.7,0.644 -0.28,0.364 -0.476,0.812 -0.168,0.42 -0.252,0.896 -0.056,0.448 -0.056,0.924 v 11.984 q 0,0.476 0.056,0.952 0.084,0.448 0.252,0.896 0.196,0.42 0.476,0.812 0.308,0.364 0.7,0.616 0.392,0.224 0.84,0.336 0.476,0.112 0.952,0.112 h 4.228 z m -2.156,-6.328 q 0.336,0 0.588,-0.224 0.28,-0.252 0.392,-0.56 0.14,-0.308 0.168,-0.644 0.056,-0.336 0.056,-0.672 v -7.448 h -1.092 q -0.336,0 -0.644,0.224 -0.28,0.196 -0.448,0.532 -0.14,0.308 -0.196,0.672 -0.028,0.336 -0.028,0.672 v 5.348 q 0,0.336 0.028,0.672 0.056,0.336 0.168,0.644 0.14,0.308 0.392,0.56 0.28,0.224 0.616,0.224 z"
       id="path146" />
    <path
       d="m 69.232,150 2.996,-13.72 1.512,-6.86 h 2.52 L 80.768,150 h -2.24 l -1.092,-5.32 H 72.564 L 71.472,150 Z m 3.724,-7.28 h 4.088 l -1.316,-6.44 q -0.196,-0.896 -0.392,-1.792 -0.168,-0.896 -0.336,-1.792 -0.168,0.896 -0.364,1.792 -0.168,0.896 -0.364,1.792 z"
       id="path147" />
    <path
       d="m 121.792,150 v -20.58 h 4.732 q 0.728,0 1.428,0.14 0.728,0.112 1.372,0.448 0.644,0.308 1.148,0.84 0.532,0.504 0.868,1.176 0.336,0.644 0.448,1.372 0.14,0.7 0.14,1.428 0,0.672 -0.14,1.372 -0.112,0.672 -0.448,1.26 -0.336,0.588 -0.84,1.064 -0.504,0.476 -1.12,0.756 0.728,0.28 1.372,0.756 0.672,0.476 1.092,1.148 0.448,0.672 0.616,1.456 0.196,0.784 0.196,1.596 0,0.784 -0.168,1.596 -0.14,0.784 -0.532,1.484 -0.392,0.7 -1.008,1.232 -0.588,0.532 -1.316,0.868 -0.728,0.336 -1.54,0.476 -0.784,0.112 -1.568,0.112 z m 2.184,-11.648 h 2.548 q 0.672,0 1.316,-0.224 0.672,-0.224 1.12,-0.728 0.448,-0.532 0.616,-1.176 0.168,-0.672 0.168,-1.372 0,-0.672 -0.168,-1.316 -0.168,-0.672 -0.616,-1.176 -0.448,-0.532 -1.12,-0.756 -0.644,-0.224 -1.316,-0.224 h -2.548 z m 2.548,9.688 q 0.532,0 1.036,-0.084 0.532,-0.084 0.98,-0.308 0.476,-0.224 0.868,-0.588 0.392,-0.392 0.644,-0.84 0.252,-0.476 0.336,-0.98 0.084,-0.532 0.084,-1.064 0,-0.504 -0.084,-1.036 -0.084,-0.532 -0.336,-0.98 -0.252,-0.476 -0.644,-0.84 -0.364,-0.364 -0.84,-0.588 -0.476,-0.252 -1.008,-0.336 -0.504,-0.084 -1.036,-0.084 h -2.548 v 7.728 z"
       id="path148" />
    <path
       d="m 178.916,150.224 q -0.728,0 -1.484,-0.14 -0.728,-0.14 -1.372,-0.504 -0.644,-0.364 -1.148,-0.924 -0.504,-0.56 -0.812,-1.232 -0.308,-0.672 -0.42,-1.4 -0.112,-0.756 -0.112,-1.484 v -9.66 q 0,-0.728 0.112,-1.456 0.112,-0.756 0.42,-1.428 0.308,-0.672 0.812,-1.232 0.504,-0.56 1.148,-0.924 0.644,-0.364 1.372,-0.504 0.756,-0.14 1.484,-0.14 0.7,0 1.372,0.112 0.7,0.112 1.316,0.42 0.644,0.308 1.148,0.812 0.532,0.476 0.868,1.092 0.336,0.588 0.476,1.288 0.168,0.672 0.168,1.372 v 0.168 h -2.184 v -0.112 q 0,-0.644 -0.196,-1.26 -0.196,-0.616 -0.644,-1.064 -0.448,-0.476 -1.064,-0.672 -0.616,-0.196 -1.26,-0.196 -0.7,0 -1.372,0.28 -0.644,0.28 -1.064,0.84 -0.42,0.532 -0.588,1.232 -0.14,0.672 -0.14,1.372 v 9.66 q 0,0.7 0.14,1.4 0.168,0.672 0.588,1.232 0.42,0.532 1.064,0.812 0.672,0.28 1.372,0.28 0.644,0 1.26,-0.196 0.616,-0.196 1.064,-0.644 0.448,-0.476 0.644,-1.092 0.196,-0.616 0.196,-1.26 v -0.112 h 2.184 v 0.168 q 0,0.7 -0.168,1.4 -0.14,0.672 -0.476,1.288 -0.336,0.588 -0.868,1.092 -0.504,0.476 -1.148,0.784 -0.616,0.308 -1.316,0.42 -0.672,0.112 -1.372,0.112 z"
       id="path149" />
    <path
       d="m 229.376,150 h -3.584 v -20.58 h 3.584 q 0.7,0 1.4,0.112 0.7,0.112 1.316,0.42 0.644,0.308 1.204,0.756 0.56,0.448 0.98,1.008 0.448,0.56 0.756,1.176 0.336,0.616 0.56,1.288 0.252,0.644 0.42,1.344 0.168,0.672 0.252,1.372 0.084,0.7 0.112,1.4 0.056,0.7 0.056,1.428 0,0.7 -0.056,1.4 -0.028,0.7 -0.112,1.4 -0.084,0.7 -0.252,1.4 -0.168,0.672 -0.42,1.344 -0.224,0.644 -0.56,1.26 -0.308,0.616 -0.756,1.176 -0.42,0.56 -0.98,1.008 -0.56,0.448 -1.204,0.756 -0.616,0.308 -1.316,0.42 -0.7,0.112 -1.4,0.112 z m -1.4,-1.96 h 1.4 q 0.56,0 1.064,-0.112 0.532,-0.14 0.98,-0.42 0.476,-0.28 0.84,-0.672 0.364,-0.42 0.644,-0.868 0.28,-0.476 0.476,-0.952 0.224,-0.504 0.364,-1.008 0.168,-0.532 0.252,-1.064 0.112,-0.532 0.168,-1.064 0.056,-0.56 0.056,-1.092 0.028,-0.532 0.028,-1.092 0,-0.532 -0.028,-1.064 0,-0.532 -0.056,-1.064 -0.056,-0.56 -0.168,-1.092 -0.084,-0.532 -0.252,-1.036 -0.14,-0.532 -0.364,-1.008 -0.196,-0.504 -0.476,-0.952 -0.28,-0.476 -0.644,-0.868 -0.364,-0.42 -0.84,-0.7 -0.448,-0.28 -0.98,-0.392 -0.504,-0.14 -1.064,-0.14 h -1.4 z"
       id="path150" />
    <path
       d="m 278.016,150 v -20.58 h 10.192 v 1.96 H 280.2 v 6.944 h 6.44 v 1.96 h -6.44 v 7.756 h 8.008 V 150 Z"
       id="path151" />
    <path
       d="m 330.688,150 v -20.58 h 9.52 v 1.96 h -7.336 v 6.944 h 5.768 v 1.96 h -5.768 V 150 Z"
       id="path152" />
    <path
       d="m 386.02,150.224 q -0.672,0 -1.344,-0.196 -0.672,-0.168 -1.232,-0.588 -0.532,-0.42 -0.924,-0.98 -0.364,-0.588 -0.588,-1.232 -0.196,-0.644 -0.28,-1.316 -0.084,-0.7 -0.084,-1.372 v -9.66 q 0,-0.728 0.112,-1.456 0.112,-0.756 0.42,-1.428 0.308,-0.672 0.812,-1.232 0.504,-0.56 1.148,-0.924 0.644,-0.364 1.372,-0.504 0.756,-0.14 1.484,-0.14 0.7,0 1.372,0.112 0.7,0.112 1.316,0.42 0.644,0.308 1.148,0.812 0.532,0.476 0.868,1.092 0.336,0.588 0.476,1.288 0.168,0.672 0.168,1.372 v 0.168 h -2.184 v -0.112 q 0,-0.644 -0.196,-1.26 -0.196,-0.616 -0.644,-1.064 -0.448,-0.476 -1.064,-0.672 -0.616,-0.196 -1.26,-0.196 -0.7,0 -1.372,0.28 -0.644,0.252 -1.064,0.812 -0.42,0.56 -0.588,1.26 -0.14,0.672 -0.14,1.372 v 9.66 q 0,0.448 0.056,0.924 0.056,0.448 0.224,0.896 0.168,0.42 0.448,0.812 0.28,0.364 0.644,0.616 0.392,0.252 0.84,0.364 0.476,0.112 0.924,0.112 0.448,0 0.896,-0.112 0.476,-0.112 0.84,-0.364 0.392,-0.252 0.672,-0.616 0.28,-0.392 0.448,-0.812 0.168,-0.448 0.224,-0.896 0.056,-0.476 0.056,-0.924 v -3.78 H 387 v -1.96 h 5.208 V 150 h -1.96 v -3.304 q -0.196,0.728 -0.56,1.4 -0.336,0.672 -0.896,1.176 -0.56,0.504 -1.288,0.728 -0.728,0.224 -1.484,0.224 z"
       id="path153" />
    <path
       d="m 433.792,150 v -20.58 h 2.184 v 8.96 h 6.048 v -8.96 h 2.184 V 150 h -2.184 v -9.66 h -6.048 V 150 Z"
       id="path154" />
    <path
       d="m 486.1,150 v -1.96 h 3.808 V 131.38 H 486.1 v -1.96 h 9.8 v 1.96 h -3.808 v 16.66 H 495.9 V 150 Z"
       id="path155" />
    <path
       d="m 542.412,150.224 q -0.7,0 -1.372,-0.14 -0.672,-0.112 -1.288,-0.42 -0.588,-0.308 -1.064,-0.784 -0.476,-0.504 -0.812,-1.12 -0.308,-0.616 -0.448,-1.288 -0.14,-0.672 -0.14,-1.344 v -0.168 h 2.184 v 0.112 q 0,0.616 0.168,1.232 0.168,0.588 0.56,1.064 0.42,0.448 1.008,0.672 0.588,0.224 1.204,0.224 0.448,0 0.868,-0.112 0.448,-0.112 0.812,-0.392 0.364,-0.28 0.616,-0.644 0.252,-0.392 0.392,-0.812 0.14,-0.42 0.196,-0.868 0.056,-0.448 0.056,-0.896 v -13.16 h -3.808 v -1.96 h 5.964 v 15.12 q 0,0.728 -0.112,1.456 -0.084,0.7 -0.364,1.372 -0.28,0.672 -0.756,1.26 -0.476,0.56 -1.092,0.924 -0.616,0.364 -1.344,0.504 -0.7,0.168 -1.428,0.168 z"
       id="path156" />
    <path
       d="m 598.108,150 -4.396,-9.212 -1.316,2.156 V 150 h -2.156 v -20.58 h 2.156 v 9.744 l 5.628,-9.744 h 2.436 l -5.544,9.324 5.544,11.256 z"
       id="path157" />
    <path
       d="m 642.688,150 v -20.58 h 2.184 v 18.62 h 7.504 V 150 Z"
       id="path158" />
    <path
       d="m 693.428,150 v -20.58 h 2.688 l 2.884,11.032 2.884,-11.032 h 2.688 V 150 h -2.1 v -4.116 q 0,-3.22 0.084,-6.412 0.112,-3.22 0.14,-6.44 l -2.828,10.78 h -1.736 l -2.828,-10.78 q 0.028,3.22 0.112,6.44 0.112,3.192 0.112,6.412 V 150 Z"
       id="path159" />
    <path
       d="m 745.792,150 v -20.58 h 2.632 l 3.528,10.192 2.352,6.916 q -0.056,-2.24 -0.168,-4.452 -0.112,-2.212 -0.112,-4.424 v -8.232 h 2.184 V 150 h -2.632 l -5.88,-17.108 q 0.056,2.24 0.168,4.452 0.112,2.212 0.112,4.424 V 150 Z"
       id="path160" />
    <path
       d="m 803,150.224 q -0.756,0 -1.512,-0.14 -0.728,-0.14 -1.372,-0.476 -0.644,-0.364 -1.176,-0.924 -0.504,-0.56 -0.812,-1.232 -0.308,-0.672 -0.448,-1.4 -0.112,-0.756 -0.112,-1.512 v -9.66 q 0,-0.756 0.112,-1.484 0.14,-0.756 0.448,-1.428 0.308,-0.672 0.812,-1.232 0.532,-0.56 1.176,-0.896 0.644,-0.364 1.372,-0.504 0.756,-0.14 1.512,-0.14 0.756,0 1.484,0.14 0.756,0.14 1.4,0.504 0.644,0.336 1.148,0.896 0.532,0.56 0.84,1.232 0.308,0.672 0.42,1.428 0.14,0.728 0.14,1.484 v 9.66 q 0,0.756 -0.14,1.512 -0.112,0.728 -0.42,1.4 -0.308,0.672 -0.84,1.232 -0.504,0.56 -1.148,0.924 -0.644,0.336 -1.4,0.476 -0.728,0.14 -1.484,0.14 z m 0,-1.96 q 0.476,0 0.924,-0.084 0.476,-0.112 0.868,-0.364 0.392,-0.252 0.672,-0.616 0.308,-0.392 0.476,-0.812 0.196,-0.448 0.252,-0.896 0.056,-0.476 0.056,-0.952 v -9.66 q 0,-0.476 -0.056,-0.924 -0.056,-0.476 -0.252,-0.896 -0.168,-0.448 -0.476,-0.812 -0.28,-0.392 -0.672,-0.644 -0.392,-0.252 -0.868,-0.336 -0.448,-0.112 -0.924,-0.112 -0.476,0 -0.952,0.112 -0.448,0.084 -0.84,0.336 -0.392,0.252 -0.7,0.644 -0.28,0.364 -0.476,0.812 -0.168,0.42 -0.224,0.896 -0.056,0.448 -0.056,0.924 v 9.66 q 0,0.476 0.056,0.952 0.056,0.448 0.224,0.896 0.196,0.42 0.476,0.812 0.308,0.364 0.7,0.616 0.392,0.252 0.84,0.364 0.476,0.084 0.952,0.084 z"
       id="path161" />
    <path
       d="m 18.24,206 v -20.58 h 4.928 q 0.756,0 1.512,0.168 0.784,0.14 1.456,0.532 0.672,0.392 1.176,1.008 0.504,0.588 0.812,1.316 0.308,0.7 0.42,1.484 0.112,0.756 0.112,1.512 0,0.784 -0.112,1.568 -0.112,0.756 -0.42,1.484 -0.308,0.7 -0.812,1.316 -0.504,0.588 -1.176,0.98 -0.672,0.392 -1.456,0.56 -0.756,0.14 -1.512,0.14 H 20.424 V 206 Z m 4.928,-10.472 q 0.504,0 0.98,-0.112 0.476,-0.14 0.868,-0.42 0.42,-0.28 0.7,-0.7 0.308,-0.42 0.476,-0.868 0.168,-0.476 0.224,-0.98 0.056,-0.504 0.056,-1.008 0,-0.476 -0.056,-0.98 -0.056,-0.504 -0.224,-0.952 -0.168,-0.476 -0.476,-0.896 -0.28,-0.42 -0.7,-0.7 -0.392,-0.28 -0.868,-0.392 -0.476,-0.14 -0.98,-0.14 h -2.744 v 8.148 z"
       id="path162" />
    <path
       d="m 79.088,211.04 q -0.672,0 -1.344,-0.112 -0.644,-0.112 -1.232,-0.42 -0.588,-0.28 -1.092,-0.756 -0.476,-0.448 -0.784,-1.036 -0.308,-0.588 -0.448,-1.232 -0.14,-0.644 -0.14,-1.316 -0.672,-0.084 -1.316,-0.308 -0.616,-0.224 -1.148,-0.616 -0.532,-0.392 -0.952,-0.924 -0.392,-0.56 -0.644,-1.176 -0.224,-0.616 -0.336,-1.26 -0.084,-0.672 -0.084,-1.344 v -9.66 q 0,-0.756 0.112,-1.484 0.14,-0.756 0.448,-1.428 0.308,-0.672 0.812,-1.232 0.532,-0.56 1.176,-0.896 0.644,-0.364 1.372,-0.504 0.756,-0.14 1.512,-0.14 0.756,0 1.484,0.14 0.756,0.14 1.4,0.504 0.644,0.336 1.148,0.896 0.532,0.56 0.84,1.232 0.308,0.672 0.42,1.428 0.14,0.728 0.14,1.484 v 9.66 q 0,0.644 -0.084,1.288 -0.084,0.644 -0.308,1.26 -0.224,0.588 -0.616,1.12 -0.364,0.532 -0.868,0.952 -0.504,0.392 -1.12,0.644 -0.588,0.224 -1.232,0.336 0.028,0.588 0.196,1.148 0.168,0.56 0.56,0.98 0.42,0.42 0.98,0.616 0.56,0.196 1.148,0.196 h 0.672 v 1.96 z M 75,204.264 q 0.476,0 0.924,-0.084 0.476,-0.112 0.868,-0.364 0.392,-0.252 0.672,-0.616 0.308,-0.392 0.476,-0.812 0.196,-0.448 0.252,-0.896 0.056,-0.476 0.056,-0.952 v -9.66 q 0,-0.476 -0.056,-0.924 -0.056,-0.476 -0.252,-0.896 -0.168,-0.448 -0.476,-0.812 -0.28,-0.392 -0.672,-0.644 -0.392,-0.252 -0.868,-0.336 -0.448,-0.112 -0.924,-0.112 -0.476,0 -0.952,0.112 -0.448,0.084 -0.84,0.336 -0.392,0.252 -0.7,0.644 -0.28,0.364 -0.476,0.812 -0.168,0.42 -0.224,0.896 -0.056,0.448 -0.056,0.924 v 9.66 q 0,0.476 0.056,0.952 0.056,0.448 0.224,0.896 0.196,0.42 0.476,0.812 0.308,0.364 0.7,0.616 0.392,0.252 0.84,0.364 0.476,0.084 0.952,0.084 z"
       id="path163" />
    <path
       d="m 121.792,206 v -20.58 h 5.376 q 0.756,0 1.484,0.168 0.756,0.168 1.4,0.588 0.644,0.392 1.12,1.008 0.476,0.588 0.756,1.288 0.308,0.7 0.392,1.456 0.112,0.756 0.112,1.512 0,0.952 -0.168,1.904 -0.168,0.952 -0.644,1.764 -0.476,0.812 -1.26,1.4 -0.756,0.588 -1.68,0.84 l 4.2,8.652 h -2.38 l -4.116,-8.512 h -2.408 V 206 Z m 5.376,-10.472 q 0.476,0 0.952,-0.14 0.476,-0.14 0.84,-0.42 0.392,-0.308 0.644,-0.728 0.252,-0.42 0.392,-0.868 0.14,-0.476 0.196,-0.952 0.056,-0.476 0.056,-0.98 0,-0.476 -0.056,-0.952 -0.056,-0.476 -0.196,-0.924 -0.14,-0.476 -0.392,-0.896 -0.252,-0.42 -0.644,-0.7 -0.364,-0.308 -0.84,-0.448 -0.476,-0.14 -0.952,-0.14 h -3.192 v 8.148 z"
       id="path164" />
    <path
       d="m 178.972,206.224 q -0.7,0 -1.4,-0.112 -0.7,-0.112 -1.344,-0.392 -0.616,-0.308 -1.148,-0.784 -0.532,-0.476 -0.896,-1.064 -0.336,-0.616 -0.504,-1.316 -0.168,-0.7 -0.168,-1.4 v -0.196 h 2.184 v 0.14 q 0,0.644 0.224,1.26 0.224,0.616 0.672,1.064 0.476,0.448 1.092,0.644 0.644,0.196 1.288,0.196 0.644,0 1.288,-0.196 0.644,-0.196 1.092,-0.672 0.476,-0.476 0.7,-1.092 0.224,-0.644 0.224,-1.288 0,-0.728 -0.308,-1.4 -0.28,-0.7 -0.784,-1.204 -0.476,-0.532 -1.12,-0.896 -0.616,-0.364 -1.26,-0.7 -0.644,-0.336 -1.288,-0.672 -0.616,-0.364 -1.176,-0.812 -0.56,-0.448 -1.036,-0.98 -0.476,-0.56 -0.84,-1.176 -0.336,-0.644 -0.504,-1.344 -0.168,-0.728 -0.168,-1.428 0,-0.7 0.14,-1.372 0.168,-0.7 0.476,-1.316 0.336,-0.616 0.812,-1.12 0.504,-0.504 1.12,-0.812 0.616,-0.336 1.288,-0.448 0.7,-0.14 1.4,-0.14 0.7,0 1.372,0.112 0.672,0.112 1.288,0.42 0.616,0.308 1.12,0.812 0.504,0.476 0.812,1.092 0.336,0.588 0.476,1.26 0.168,0.672 0.168,1.372 v 0.196 h -2.184 v -0.14 q 0,-0.616 -0.196,-1.204 -0.196,-0.616 -0.616,-1.064 -0.42,-0.476 -1.036,-0.672 -0.588,-0.224 -1.204,-0.224 -0.616,0 -1.232,0.224 -0.616,0.224 -1.036,0.7 -0.42,0.448 -0.616,1.064 -0.196,0.616 -0.196,1.26 0,0.728 0.28,1.4 0.28,0.672 0.784,1.204 0.504,0.532 1.12,0.896 0.616,0.364 1.26,0.7 0.644,0.308 1.26,0.672 0.644,0.364 1.204,0.812 0.588,0.448 1.064,0.98 0.476,0.532 0.812,1.176 0.336,0.644 0.504,1.344 0.196,0.7 0.196,1.428 0,0.7 -0.168,1.4 -0.168,0.7 -0.504,1.344 -0.336,0.616 -0.868,1.12 -0.504,0.476 -1.148,0.784 -0.644,0.308 -1.372,0.42 -0.7,0.14 -1.4,0.14 z"
       id="path165" />
    <path
       d="m 229.908,206 v -18.62 h -4.284 v -1.96 h 10.752 v 1.96 h -4.284 V 206 Z"
       id="path166" />
    <path
       d="m 283,206.224 q -0.728,0 -1.456,-0.168 -0.728,-0.14 -1.372,-0.504 -0.616,-0.364 -1.092,-0.924 -0.476,-0.56 -0.784,-1.232 -0.28,-0.672 -0.392,-1.4 -0.112,-0.728 -0.112,-1.456 v -15.12 h 2.184 v 15.12 q 0,0.448 0.056,0.924 0.056,0.448 0.196,0.868 0.168,0.42 0.42,0.812 0.252,0.364 0.616,0.644 0.392,0.252 0.84,0.364 0.448,0.112 0.896,0.112 0.448,0 0.896,-0.112 0.448,-0.112 0.812,-0.364 0.392,-0.28 0.644,-0.644 0.252,-0.392 0.392,-0.812 0.168,-0.42 0.224,-0.868 0.056,-0.476 0.056,-0.924 v -15.12 h 2.184 v 15.12 q 0,0.728 -0.112,1.456 -0.112,0.728 -0.42,1.4 -0.28,0.672 -0.756,1.232 -0.476,0.56 -1.12,0.924 -0.616,0.364 -1.344,0.504 -0.728,0.168 -1.456,0.168 z"
       id="path167" />
    <path
       d="m 333.74,206 -4.508,-20.58 h 2.24 l 2.8,13.72 q 0.196,0.896 0.364,1.792 0.196,0.896 0.364,1.792 0.168,-0.896 0.336,-1.792 0.196,-0.896 0.392,-1.792 l 2.8,-13.72 h 2.24 L 336.26,206 Z"
       id="path168" />
    <path
       d="m 383.36,206 -2.38,-20.58 h 2.1 l 1.372,16.38 1.568,-10.612 h 1.96 l 1.568,10.612 1.372,-16.38 h 2.1 L 390.64,206 h -1.932 L 387,194.492 385.292,206 Z"
       id="path169" />
    <path
       d="m 433.344,206 4.564,-10.304 -4.564,-10.276 h 2.38 l 3.276,7.728 3.276,-7.728 h 2.38 l -4.564,10.276 4.564,10.304 h -2.38 L 439,198.272 435.724,206 Z"
       id="path170" />
    <path
       d="m 489.908,206 v -8.288 L 485.26,185.42 h 2.324 l 3.416,9.408 3.416,-9.408 h 2.324 l -4.648,12.292 V 206 Z"
       id="path171" />
    <path
       d="m 537.792,206 v -1.96 l 7.924,-16.66 h -7.924 v -1.96 h 10.416 v 1.96 l -7.924,16.66 h 7.924 V 206 Z"
       id="path172" />
    <path
       d="m 591.444,210.004 v -27.048 h 7.728 v 1.96 h -5.544 v 23.128 h 5.544 v 1.96 z"
       id="path173" />
    <path
       d="m 652.348,210.004 h -2.24 l -8.456,-27.048 h 2.24 z"
       id="path174" />
    <path
       d="m 694.828,210.004 v -1.96 h 5.544 v -23.128 h -5.544 v -1.96 h 7.728 v 27.048 z"
       id="path175" />
    <path
       d="m 746.968,193.4 -1.876,-1.204 4.704,-6.468 h 2.408 l 4.704,6.468 -1.876,1.204 -4.032,-5.908 z"
       id="path176" />
    <path
       d="m 808.208,212.02 h -10.416 v -1.96 h 10.416 z"
       id="path177" />
    <path
       d="m 23.56,246.824 -4.984,-5.964 1.904,-1.316 4.62,6.188 z"
       id="path178" />
    <path
       d="m 73.992,262.224 q -0.84,0 -1.708,-0.224 -0.84,-0.224 -1.484,-0.784 -0.644,-0.588 -0.952,-1.4 -0.28,-0.84 -0.28,-1.708 0,-0.7 0.168,-1.4 0.196,-0.7 0.616,-1.26 0.448,-0.588 1.064,-0.98 0.616,-0.392 1.288,-0.616 0.672,-0.252 1.372,-0.336 0.728,-0.084 1.456,-0.084 h 2.492 v -1.372 q 0,-0.588 -0.196,-1.176 -0.196,-0.588 -0.644,-0.98 -0.448,-0.392 -1.036,-0.56 -0.588,-0.168 -1.176,-0.168 -0.532,0 -1.064,0.112 -0.532,0.084 -1.008,0.392 -0.448,0.28 -0.728,0.756 -0.252,0.476 -0.252,1.008 v 0.056 h -2.184 v -0.084 q 0,-0.644 0.196,-1.232 0.196,-0.616 0.56,-1.12 0.364,-0.532 0.868,-0.896 0.532,-0.364 1.12,-0.56 0.616,-0.224 1.232,-0.308 0.616,-0.084 1.26,-0.084 0.672,0 1.344,0.112 0.672,0.084 1.288,0.364 0.616,0.28 1.12,0.728 0.532,0.448 0.868,1.036 0.336,0.588 0.476,1.26 0.14,0.672 0.14,1.344 v 7.504 q 0,0.14 0.028,0.28 0.056,0.14 0.14,0.252 0.112,0.084 0.252,0.14 0.14,0.028 0.28,0.028 h 0.588 v 1.96 h -0.588 q -0.56,0 -1.12,-0.14 -0.532,-0.14 -0.952,-0.504 -0.42,-0.364 -0.616,-0.896 -0.196,-0.532 -0.196,-1.092 -0.224,0.588 -0.644,1.12 -0.392,0.504 -0.924,0.868 -0.532,0.364 -1.176,0.504 -0.644,0.14 -1.288,0.14 z m 0.868,-1.96 q 0.672,0 1.288,-0.196 0.644,-0.224 1.064,-0.7 0.448,-0.476 0.616,-1.12 0.196,-0.644 0.196,-1.288 v -1.568 h -2.492 q -0.448,0 -0.868,0.056 -0.42,0.028 -0.84,0.14 -0.392,0.112 -0.784,0.308 -0.392,0.168 -0.7,0.476 -0.308,0.308 -0.448,0.728 -0.14,0.392 -0.14,0.812 0,0.56 0.252,1.064 0.28,0.504 0.728,0.812 0.476,0.28 1.036,0.392 0.56,0.084 1.092,0.084 z"
       id="path179" />
    <path
       d="m 127.98,262.224 q -0.672,0 -1.316,-0.196 -0.644,-0.168 -1.176,-0.56 -0.532,-0.392 -0.924,-0.952 -0.364,-0.56 -0.588,-1.204 V 262 h -2.184 v -20.58 h 2.184 v 8.708 q 0.224,-0.644 0.588,-1.204 0.392,-0.56 0.924,-0.952 0.532,-0.392 1.176,-0.56 0.644,-0.196 1.316,-0.196 0.7,0 1.372,0.196 0.672,0.196 1.204,0.644 0.56,0.42 0.924,1.008 0.364,0.588 0.588,1.26 0.224,0.644 0.28,1.344 0.084,0.672 0.084,1.372 v 3.36 q 0,0.7 -0.084,1.4 -0.056,0.672 -0.28,1.344 -0.224,0.644 -0.588,1.232 -0.364,0.588 -0.924,1.036 -0.532,0.42 -1.204,0.616 -0.672,0.196 -1.372,0.196 z m -0.868,-1.96 q 0.476,0 0.924,-0.112 0.476,-0.112 0.84,-0.392 0.392,-0.28 0.672,-0.672 0.28,-0.392 0.42,-0.84 0.168,-0.448 0.224,-0.896 0.056,-0.476 0.056,-0.952 v -3.36 q 0,-0.476 -0.056,-0.924 -0.056,-0.476 -0.224,-0.924 -0.14,-0.448 -0.42,-0.84 -0.28,-0.392 -0.672,-0.672 -0.364,-0.28 -0.84,-0.392 -0.448,-0.112 -0.924,-0.112 -0.476,0 -0.952,0.112 -0.448,0.112 -0.84,0.392 -0.364,0.28 -0.644,0.672 -0.28,0.392 -0.448,0.84 -0.14,0.448 -0.196,0.924 -0.056,0.448 -0.056,0.924 v 3.36 q 0,0.476 0.056,0.952 0.056,0.448 0.196,0.896 0.168,0.448 0.448,0.84 0.28,0.392 0.644,0.672 0.392,0.28 0.84,0.392 0.476,0.112 0.952,0.112 z"
       id="path180" />
    <path
       d="m 178.916,262.224 q -0.756,0 -1.512,-0.168 -0.728,-0.14 -1.372,-0.504 -0.644,-0.392 -1.148,-0.952 -0.476,-0.588 -0.784,-1.26 -0.308,-0.7 -0.42,-1.428 -0.112,-0.756 -0.112,-1.512 v -3.36 q 0,-0.756 0.112,-1.484 0.112,-0.756 0.42,-1.428 0.308,-0.7 0.784,-1.26 0.504,-0.588 1.148,-0.952 0.644,-0.392 1.372,-0.532 0.756,-0.168 1.512,-0.168 0.7,0 1.4,0.112 0.7,0.112 1.316,0.42 0.616,0.308 1.12,0.812 0.532,0.476 0.868,1.092 0.336,0.616 0.476,1.316 0.168,0.672 0.168,1.372 v 0.14 h -2.184 v -0.084 q 0,-0.644 -0.196,-1.26 -0.196,-0.616 -0.644,-1.064 -0.448,-0.476 -1.064,-0.672 -0.616,-0.224 -1.26,-0.224 -0.476,0 -0.952,0.112 -0.448,0.112 -0.84,0.392 -0.392,0.28 -0.672,0.672 -0.252,0.392 -0.42,0.84 -0.168,0.42 -0.224,0.896 -0.056,0.476 -0.056,0.952 v 3.36 q 0,0.476 0.056,0.952 0.056,0.476 0.224,0.924 0.168,0.42 0.42,0.812 0.28,0.392 0.672,0.672 0.392,0.28 0.84,0.392 0.476,0.112 0.952,0.112 0.644,0 1.26,-0.196 0.616,-0.224 1.064,-0.672 0.448,-0.476 0.644,-1.092 0.196,-0.616 0.196,-1.26 v -0.084 h 2.184 v 0.14 q 0,0.7 -0.168,1.4 -0.14,0.672 -0.476,1.288 -0.336,0.616 -0.868,1.12 -0.504,0.476 -1.12,0.784 -0.616,0.308 -1.316,0.42 -0.7,0.112 -1.4,0.112 z"
       id="path181" />
    <path
       d="m 230.02,262.224 q -0.7,0 -1.372,-0.196 -0.672,-0.196 -1.232,-0.616 -0.532,-0.448 -0.896,-1.036 -0.364,-0.588 -0.588,-1.232 -0.224,-0.672 -0.308,-1.344 -0.056,-0.7 -0.056,-1.4 v -3.36 q 0,-0.7 0.056,-1.372 0.084,-0.7 0.308,-1.344 0.224,-0.672 0.588,-1.26 0.364,-0.588 0.896,-1.008 0.56,-0.448 1.232,-0.644 0.672,-0.196 1.372,-0.196 0.672,0 1.316,0.196 0.644,0.168 1.176,0.56 0.532,0.392 0.896,0.952 0.392,0.56 0.616,1.204 v -8.708 h 2.184 V 262 h -2.184 v -2.688 q -0.224,0.644 -0.616,1.204 -0.364,0.56 -0.896,0.952 -0.532,0.392 -1.176,0.56 -0.644,0.196 -1.316,0.196 z m 0.868,-1.96 q 0.476,0 0.924,-0.112 0.476,-0.112 0.84,-0.392 0.392,-0.28 0.672,-0.672 0.28,-0.392 0.42,-0.84 0.168,-0.448 0.224,-0.896 0.056,-0.476 0.056,-0.952 v -3.36 q 0,-0.476 -0.056,-0.924 -0.056,-0.476 -0.224,-0.924 -0.14,-0.448 -0.42,-0.84 -0.28,-0.392 -0.672,-0.672 -0.364,-0.28 -0.84,-0.392 -0.448,-0.112 -0.924,-0.112 -0.476,0 -0.952,0.112 -0.448,0.112 -0.84,0.392 -0.364,0.28 -0.644,0.672 -0.28,0.392 -0.448,0.84 -0.14,0.448 -0.196,0.924 -0.056,0.448 -0.056,0.924 v 3.36 q 0,0.476 0.056,0.952 0.056,0.448 0.196,0.896 0.168,0.448 0.448,0.84 0.28,0.392 0.644,0.672 0.392,0.28 0.84,0.392 0.476,0.112 0.952,0.112 z"
       id="path182" />
    <path
       d="m 283,262.224 q -0.756,0 -1.512,-0.168 -0.728,-0.14 -1.4,-0.504 -0.644,-0.364 -1.176,-0.924 -0.504,-0.588 -0.812,-1.26 -0.308,-0.7 -0.42,-1.456 -0.112,-0.756 -0.112,-1.512 v -3.36 q 0,-0.756 0.112,-1.512 0.112,-0.756 0.42,-1.428 0.308,-0.7 0.812,-1.26 0.532,-0.588 1.176,-0.952 0.672,-0.364 1.4,-0.504 0.756,-0.168 1.512,-0.168 0.756,0 1.484,0.168 0.756,0.14 1.4,0.504 0.672,0.364 1.176,0.952 0.532,0.56 0.84,1.26 0.308,0.672 0.42,1.428 0.112,0.756 0.112,1.512 v 2.66 h -8.68 v 0.7 q 0,0.476 0.056,0.952 0.056,0.476 0.224,0.924 0.168,0.448 0.448,0.84 0.308,0.392 0.7,0.672 0.392,0.252 0.868,0.364 0.476,0.112 0.952,0.112 0.56,0 1.092,-0.084 0.56,-0.112 1.036,-0.392 0.476,-0.308 0.756,-0.784 0.308,-0.504 0.308,-1.064 h 2.184 q 0,0.644 -0.224,1.26 -0.196,0.616 -0.588,1.148 -0.364,0.504 -0.896,0.896 -0.532,0.364 -1.148,0.588 -0.588,0.224 -1.232,0.308 -0.644,0.084 -1.288,0.084 z m 3.248,-8.484 v -0.7 q 0,-0.476 -0.056,-0.952 -0.056,-0.476 -0.224,-0.924 -0.168,-0.448 -0.476,-0.84 -0.28,-0.392 -0.672,-0.644 -0.392,-0.28 -0.868,-0.392 -0.476,-0.112 -0.952,-0.112 -0.476,0 -0.952,0.112 -0.476,0.112 -0.868,0.392 -0.392,0.252 -0.7,0.644 -0.28,0.392 -0.448,0.84 -0.168,0.448 -0.224,0.924 -0.056,0.476 -0.056,0.952 v 0.7 z"
       id="path183" />
    <path
       d="m 330.1,262 v -1.96 h 3.192 V 249.4 h -3.948 v -1.96 h 3.948 v -1.288 q 0,-0.644 0.084,-1.26 0.112,-0.644 0.392,-1.204 0.28,-0.588 0.728,-1.036 0.476,-0.448 1.036,-0.728 0.588,-0.28 1.204,-0.392 0.644,-0.112 1.26,-0.112 h 2.66 v 1.96 h -2.66 q -0.532,0 -1.064,0.196 -0.504,0.168 -0.868,0.588 -0.336,0.392 -0.476,0.924 -0.14,0.532 -0.14,1.064 v 1.288 h 5.208 v 1.96 h -5.208 v 10.64 H 339.9 V 262 Z"
       id="path184" />
    <path
       d="m 387.028,268.244 q -0.7,0 -1.4,-0.084 -0.7,-0.084 -1.372,-0.336 -0.644,-0.252 -1.232,-0.672 -0.588,-0.392 -0.98,-0.98 -0.392,-0.588 -0.588,-1.288 -0.168,-0.672 -0.168,-1.372 0,-0.476 0.084,-0.98 0.084,-0.476 0.28,-0.896 0.224,-0.448 0.532,-0.812 0.308,-0.364 0.7,-0.644 -0.364,-0.42 -0.588,-0.924 -0.196,-0.532 -0.196,-1.092 0,-0.7 0.308,-1.344 0.308,-0.672 0.84,-1.12 -0.42,-0.336 -0.756,-0.756 -0.336,-0.42 -0.56,-0.896 -0.196,-0.504 -0.28,-1.036 -0.084,-0.532 -0.084,-1.064 0,-0.672 0.14,-1.316 0.14,-0.672 0.448,-1.232 0.336,-0.588 0.84,-1.008 0.532,-0.448 1.148,-0.7 0.616,-0.28 1.26,-0.364 0.672,-0.112 1.316,-0.112 0.504,0 0.98,0.056 0.476,0.056 0.952,0.168 h 4.228 v 1.96 l -1.624,-0.056 q 0.364,0.588 0.504,1.26 0.14,0.672 0.14,1.344 0,0.644 -0.14,1.316 -0.14,0.644 -0.476,1.232 -0.336,0.56 -0.84,1.008 -0.504,0.448 -1.12,0.728 -0.616,0.252 -1.288,0.364 -0.644,0.084 -1.316,0.084 -0.476,0 -0.952,-0.056 -0.476,-0.056 -0.924,-0.168 -0.336,0.196 -0.56,0.56 -0.224,0.336 -0.224,0.756 0,0.336 0.14,0.644 0.168,0.28 0.448,0.476 0.28,0.196 0.588,0.28 0.336,0.084 0.672,0.112 h 1.764 q 0.644,0 1.26,0.084 0.644,0.056 1.204,0.308 0.588,0.224 1.092,0.588 0.532,0.364 0.868,0.896 0.364,0.532 0.504,1.148 0.14,0.616 0.14,1.26 0,0.7 -0.196,1.372 -0.168,0.7 -0.588,1.26 -0.392,0.56 -0.98,0.98 -0.56,0.42 -1.232,0.644 -0.644,0.252 -1.344,0.336 -0.672,0.084 -1.372,0.084 z M 386.72,254.72 q 0.588,0 1.148,-0.14 0.588,-0.168 1.008,-0.56 0.448,-0.392 0.644,-0.952 0.196,-0.56 0.196,-1.12 0,-0.532 -0.168,-1.036 -0.14,-0.532 -0.504,-0.896 -0.364,-0.392 -0.868,-0.588 -0.504,-0.196 -1.036,-0.224 l -0.42,-0.028 q -0.56,0 -1.148,0.168 -0.56,0.14 -1.008,0.532 -0.42,0.364 -0.616,0.924 -0.196,0.56 -0.196,1.148 0,0.56 0.196,1.12 0.196,0.56 0.616,0.952 0.448,0.392 1.008,0.56 0.588,0.14 1.148,0.14 z m 0.308,11.564 q 0.616,0 1.232,-0.14 0.644,-0.112 1.176,-0.448 0.532,-0.336 0.84,-0.924 0.308,-0.56 0.308,-1.204 0,-0.532 -0.224,-1.036 -0.224,-0.476 -0.672,-0.756 -0.448,-0.308 -0.98,-0.42 -0.504,-0.112 -1.036,-0.112 h -1.652 q -0.476,0.028 -0.952,0.168 -0.476,0.14 -0.868,0.448 -0.364,0.28 -0.56,0.728 -0.168,0.448 -0.168,0.924 0,0.644 0.28,1.232 0.308,0.588 0.84,0.924 0.532,0.364 1.148,0.476 0.644,0.14 1.288,0.14 z"
       id="path185" />
    <path
       d="m 433.792,262 v -20.58 h 2.184 v 8.68 q 0.224,-0.616 0.56,-1.176 0.364,-0.56 0.868,-0.952 0.532,-0.392 1.176,-0.56 0.644,-0.196 1.288,-0.196 0.7,0 1.344,0.196 0.672,0.196 1.204,0.644 0.532,0.448 0.868,1.036 0.364,0.588 0.56,1.26 0.224,0.644 0.28,1.344 0.084,0.672 0.084,1.344 V 262 h -2.184 v -8.96 q 0,-0.476 -0.056,-0.924 -0.056,-0.476 -0.196,-0.896 -0.14,-0.448 -0.42,-0.84 -0.252,-0.392 -0.616,-0.672 -0.364,-0.28 -0.812,-0.392 -0.448,-0.14 -0.924,-0.14 -0.476,0 -0.924,0.14 -0.448,0.112 -0.812,0.392 -0.364,0.28 -0.644,0.672 -0.252,0.392 -0.392,0.84 -0.14,0.42 -0.196,0.896 -0.056,0.448 -0.056,0.924 V 262 Z"
       id="path186" />
    <path
       d="m 486.1,262 v -1.96 h 4.004 V 249.4 h -3.612 v -1.96 h 5.796 v 12.6 H 495.9 V 262 Z m 5.04,-17.024 q -0.364,0 -0.7,-0.084 -0.336,-0.112 -0.588,-0.364 -0.252,-0.252 -0.364,-0.588 -0.084,-0.336 -0.084,-0.7 0,-0.364 0.084,-0.7 0.112,-0.336 0.364,-0.588 0.252,-0.252 0.588,-0.364 0.336,-0.112 0.7,-0.112 0.364,0 0.7,0.112 0.336,0.112 0.588,0.364 0.252,0.252 0.364,0.588 0.112,0.336 0.112,0.7 0,0.364 -0.112,0.7 -0.112,0.336 -0.364,0.588 -0.252,0.252 -0.588,0.364 -0.336,0.084 -0.7,0.084 z"
       id="path187" />
    <path
       d="m 538.24,268.02 v -1.96 h 2.884 q 0.532,0 1.036,-0.196 0.532,-0.168 0.868,-0.588 0.364,-0.392 0.504,-0.924 0.14,-0.532 0.14,-1.064 V 249.4 h -3.808 v -1.96 h 5.992 v 15.848 q 0,0.644 -0.112,1.26 -0.112,0.644 -0.392,1.204 -0.28,0.588 -0.728,1.036 -0.448,0.448 -1.036,0.728 -0.56,0.28 -1.204,0.392 -0.616,0.112 -1.26,0.112 z m 6.3,-23.044 q -0.364,0 -0.7,-0.084 -0.336,-0.112 -0.588,-0.364 -0.252,-0.252 -0.364,-0.588 -0.084,-0.336 -0.084,-0.7 0,-0.364 0.084,-0.7 0.112,-0.336 0.364,-0.588 0.252,-0.252 0.588,-0.364 0.336,-0.112 0.7,-0.112 0.364,0 0.7,0.112 0.336,0.112 0.588,0.364 0.252,0.252 0.364,0.588 0.112,0.336 0.112,0.7 0,0.364 -0.112,0.7 -0.112,0.336 -0.364,0.588 -0.252,0.252 -0.588,0.364 -0.336,0.084 -0.7,0.084 z"
       id="path188" />
    <path
       d="m 590.24,262 v -20.58 h 2.156 v 13.048 l 5.376,-7.028 h 2.632 l -5.236,6.636 5.236,7.924 h -2.52 l -4.004,-6.3 -1.484,1.876 V 262 Z"
       id="path189" />
    <path
       d="m 642.1,262 v -1.96 h 4.004 v -16.66 h -3.612 v -1.96 h 5.796 v 18.62 H 651.9 V 262 Z"
       id="path190" />
    <path
       d="m 693.428,262 v -14.56 h 2.016 v 1.316 q 0.14,-0.336 0.336,-0.616 0.196,-0.28 0.448,-0.504 0.28,-0.224 0.616,-0.308 0.336,-0.112 0.672,-0.112 0.448,0 0.84,0.168 0.392,0.168 0.672,0.476 0.308,0.308 0.476,0.7 0.196,0.392 0.308,0.784 0.112,-0.392 0.28,-0.784 0.196,-0.392 0.476,-0.7 0.308,-0.308 0.7,-0.476 0.392,-0.168 0.812,-0.168 0.448,0 0.868,0.196 0.42,0.168 0.7,0.504 0.308,0.308 0.476,0.728 0.168,0.392 0.28,0.84 0.112,0.42 0.14,0.868 0.028,0.42 0.028,0.868 V 262 h -2.016 v -10.78 q 0,-0.364 -0.056,-0.7 -0.028,-0.364 -0.168,-0.672 -0.14,-0.336 -0.42,-0.56 -0.28,-0.252 -0.616,-0.252 -0.364,0 -0.644,0.252 -0.28,0.224 -0.42,0.56 -0.14,0.308 -0.196,0.672 -0.028,0.336 -0.028,0.7 V 262 h -2.016 v -10.78 q 0,-0.364 -0.056,-0.7 -0.028,-0.364 -0.168,-0.672 -0.14,-0.336 -0.42,-0.56 -0.28,-0.252 -0.644,-0.252 -0.336,0 -0.616,0.252 -0.28,0.224 -0.42,0.56 -0.14,0.308 -0.196,0.672 -0.028,0.336 -0.028,0.7 V 262 Z"
       id="path191" />
    <path
       d="m 745.792,262 v -14.56 h 2.184 v 2.66 q 0.224,-0.616 0.56,-1.176 0.364,-0.56 0.868,-0.952 0.532,-0.392 1.176,-0.56 0.644,-0.196 1.288,-0.196 0.7,0 1.344,0.196 0.672,0.196 1.204,0.644 0.532,0.448 0.868,1.036 0.364,0.588 0.56,1.26 0.224,0.644 0.28,1.344 0.084,0.672 0.084,1.344 V 262 h -2.184 v -8.96 q 0,-0.476 -0.056,-0.924 -0.056,-0.476 -0.196,-0.896 -0.14,-0.448 -0.42,-0.84 -0.252,-0.392 -0.616,-0.672 -0.364,-0.28 -0.812,-0.392 -0.448,-0.14 -0.924,-0.14 -0.476,0 -0.924,0.14 -0.448,0.112 -0.812,0.392 -0.364,0.28 -0.644,0.672 -0.252,0.392 -0.392,0.84 -0.14,0.42 -0.196,0.896 -0.056,0.448 -0.056,0.924 V 262 Z"
       id="path192" />
    <path
       d="m 803,262.224 q -0.756,0 -1.512,-0.168 -0.728,-0.14 -1.4,-0.504 -0.644,-0.364 -1.176,-0.924 -0.504,-0.588 -0.812,-1.26 -0.308,-0.7 -0.42,-1.456 -0.112,-0.756 -0.112,-1.512 v -3.36 q 0,-0.756 0.112,-1.512 0.112,-0.756 0.42,-1.428 0.308,-0.7 0.812,-1.26 0.532,-0.588 1.176,-0.952 0.672,-0.364 1.4,-0.504 0.756,-0.168 1.512,-0.168 0.756,0 1.484,0.168 0.756,0.14 1.4,0.504 0.672,0.364 1.176,0.952 0.532,0.56 0.84,1.26 0.308,0.672 0.42,1.428 0.112,0.756 0.112,1.512 v 3.36 q 0,0.756 -0.112,1.512 -0.112,0.756 -0.42,1.456 -0.308,0.672 -0.84,1.26 -0.504,0.56 -1.176,0.924 -0.644,0.364 -1.4,0.504 -0.728,0.168 -1.484,0.168 z m 0,-1.96 q 0.476,0 0.952,-0.112 0.476,-0.112 0.868,-0.364 0.392,-0.28 0.672,-0.672 0.308,-0.392 0.476,-0.84 0.168,-0.448 0.224,-0.924 0.056,-0.476 0.056,-0.952 v -3.36 q 0,-0.476 -0.056,-0.952 -0.056,-0.476 -0.224,-0.924 -0.168,-0.448 -0.476,-0.84 -0.28,-0.392 -0.672,-0.644 -0.392,-0.28 -0.868,-0.392 -0.476,-0.112 -0.952,-0.112 -0.476,0 -0.952,0.112 -0.476,0.112 -0.868,0.392 -0.392,0.252 -0.7,0.644 -0.28,0.392 -0.448,0.84 -0.168,0.448 -0.224,0.924 -0.056,0.476 -0.056,0.952 v 3.36 q 0,0.476 0.056,0.952 0.056,0.476 0.224,0.924 0.168,0.448 0.448,0.84 0.308,0.392 0.7,0.672 0.392,0.252 0.868,0.364 0.476,0.112 0.952,0.112 z"
       id="path193" />
    <path
       d="m 17.792,324.02 v -20.58 h 2.184 v 2.688 q 0.224,-0.644 0.588,-1.204 0.392,-0.56 0.924,-0.952 0.532,-0.392 1.176,-0.56 0.644,-0.196 1.316,-0.196 0.7,0 1.372,0.196 0.672,0.196 1.204,0.644 0.56,0.42 0.924,1.008 0.364,0.588 0.588,1.26 0.224,0.644 0.28,1.344 0.084,0.672 0.084,1.372 v 3.36 q 0,0.7 -0.084,1.4 -0.056,0.672 -0.28,1.344 -0.224,0.644 -0.588,1.232 -0.364,0.588 -0.924,1.036 -0.532,0.42 -1.204,0.616 -0.672,0.196 -1.372,0.196 -0.672,0 -1.316,-0.196 -0.644,-0.168 -1.176,-0.56 -0.532,-0.392 -0.924,-0.952 -0.364,-0.56 -0.588,-1.204 v 8.708 z m 5.32,-7.756 q 0.476,0 0.924,-0.112 0.476,-0.112 0.84,-0.392 0.392,-0.28 0.672,-0.672 0.28,-0.392 0.42,-0.84 0.168,-0.448 0.224,-0.896 0.056,-0.476 0.056,-0.952 v -3.36 q 0,-0.476 -0.056,-0.924 -0.056,-0.476 -0.224,-0.924 -0.14,-0.448 -0.42,-0.84 -0.28,-0.392 -0.672,-0.672 -0.364,-0.28 -0.84,-0.392 -0.448,-0.112 -0.924,-0.112 -0.476,0 -0.952,0.112 -0.448,0.112 -0.84,0.392 -0.364,0.28 -0.644,0.672 -0.28,0.392 -0.448,0.84 -0.14,0.448 -0.196,0.924 -0.056,0.448 -0.056,0.924 v 3.36 q 0,0.476 0.056,0.952 0.056,0.448 0.196,0.896 0.168,0.448 0.448,0.84 0.28,0.392 0.644,0.672 0.392,0.28 0.84,0.392 0.476,0.112 0.952,0.112 z"
       id="path194" />
    <path
       d="m 78.024,324.02 v -8.708 q -0.224,0.644 -0.616,1.204 -0.364,0.56 -0.896,0.952 -0.532,0.392 -1.176,0.56 -0.644,0.196 -1.316,0.196 -0.7,0 -1.372,-0.196 -0.672,-0.196 -1.232,-0.616 -0.532,-0.448 -0.896,-1.036 -0.364,-0.588 -0.588,-1.232 -0.224,-0.672 -0.308,-1.344 -0.056,-0.7 -0.056,-1.4 v -3.36 q 0,-0.7 0.056,-1.372 0.084,-0.7 0.308,-1.344 0.224,-0.672 0.588,-1.26 0.364,-0.588 0.896,-1.008 0.56,-0.448 1.232,-0.644 0.672,-0.196 1.372,-0.196 0.672,0 1.316,0.196 0.644,0.168 1.176,0.56 0.532,0.392 0.896,0.952 0.392,0.56 0.616,1.204 v -2.688 h 2.184 v 20.58 z m -3.136,-7.756 q 0.476,0 0.924,-0.112 0.476,-0.112 0.84,-0.392 0.392,-0.28 0.672,-0.672 0.28,-0.392 0.42,-0.84 0.168,-0.448 0.224,-0.896 0.056,-0.476 0.056,-0.952 v -3.36 q 0,-0.476 -0.056,-0.924 -0.056,-0.476 -0.224,-0.924 -0.14,-0.448 -0.42,-0.84 -0.28,-0.392 -0.672,-0.672 -0.364,-0.28 -0.84,-0.392 -0.448,-0.112 -0.924,-0.112 -0.476,0 -0.952,0.112 -0.448,0.112 -0.84,0.392 -0.364,0.28 -0.644,0.672 -0.28,0.392 -0.448,0.84 -0.14,0.448 -0.196,0.924 -0.056,0.448 -0.056,0.924 v 3.36 q 0,0.476 0.056,0.952 0.056,0.448 0.196,0.896 0.168,0.448 0.448,0.84 0.28,0.392 0.644,0.672 0.392,0.28 0.84,0.392 0.476,0.112 0.952,0.112 z"
       id="path195" />
    <path
       d="m 121.68,318 v -1.96 h 1.792 V 305.4 h -1.792 v -1.96 h 3.976 v 4.004 q 0.224,-0.644 0.588,-1.232 0.392,-0.588 0.896,-1.064 0.532,-0.476 1.12,-0.812 0.616,-0.336 1.288,-0.532 0.672,-0.224 1.344,-0.28 0.7,-0.084 1.4,-0.084 h 0.336 v 1.96 h -0.336 q -0.588,0 -1.176,0.056 -0.588,0.028 -1.148,0.14 -0.56,0.112 -1.12,0.308 -0.56,0.196 -1.064,0.504 -0.476,0.308 -0.896,0.728 -0.42,0.392 -0.728,0.924 -0.28,0.504 -0.392,1.092 -0.112,0.56 -0.112,1.12 v 5.768 h 2.156 V 318 Z"
       id="path196" />
    <path
       d="m 178.972,318.224 q -0.616,0 -1.232,-0.084 -0.588,-0.056 -1.176,-0.224 -0.588,-0.196 -1.12,-0.504 -0.504,-0.336 -0.896,-0.784 -0.392,-0.476 -0.616,-1.064 -0.196,-0.588 -0.196,-1.204 v -0.14 h 2.184 v 0.084 q 0,0.504 0.308,0.924 0.308,0.42 0.756,0.672 0.476,0.224 0.98,0.308 0.504,0.056 1.008,0.056 0.504,0 1.008,-0.084 0.532,-0.084 0.98,-0.308 0.448,-0.224 0.756,-0.644 0.336,-0.448 0.336,-0.952 0,-0.504 -0.28,-0.896 -0.28,-0.42 -0.7,-0.672 -0.392,-0.28 -0.84,-0.448 -0.448,-0.168 -0.924,-0.308 -0.448,-0.14 -0.924,-0.28 -0.448,-0.168 -0.896,-0.336 -0.448,-0.196 -0.868,-0.42 -0.42,-0.224 -0.812,-0.504 -0.392,-0.308 -0.728,-0.644 -0.336,-0.364 -0.588,-0.756 -0.224,-0.42 -0.364,-0.896 -0.112,-0.476 -0.112,-0.952 0,-0.588 0.168,-1.176 0.196,-0.588 0.56,-1.064 0.364,-0.476 0.868,-0.812 0.504,-0.336 1.064,-0.532 0.56,-0.224 1.148,-0.28 0.616,-0.084 1.204,-0.084 0.588,0 1.176,0.084 0.588,0.056 1.148,0.252 0.56,0.196 1.064,0.532 0.504,0.308 0.868,0.784 0.364,0.448 0.56,1.036 0.196,0.56 0.196,1.148 v 0.168 h -2.184 v -0.084 q 0,-0.476 -0.28,-0.896 -0.252,-0.42 -0.672,-0.644 -0.42,-0.252 -0.924,-0.336 -0.476,-0.084 -0.952,-0.084 -0.476,0 -0.98,0.084 -0.476,0.084 -0.896,0.336 -0.42,0.224 -0.7,0.672 -0.28,0.42 -0.28,0.896 0,0.476 0.28,0.896 0.28,0.42 0.672,0.7 0.392,0.252 0.84,0.42 0.476,0.168 0.924,0.308 0.476,0.14 0.924,0.308 0.448,0.14 0.896,0.336 0.448,0.168 0.868,0.392 0.448,0.224 0.812,0.504 0.392,0.28 0.728,0.644 0.336,0.336 0.588,0.756 0.252,0.42 0.364,0.896 0.14,0.448 0.14,0.952 0,0.616 -0.224,1.204 -0.196,0.588 -0.588,1.064 -0.364,0.476 -0.896,0.812 -0.532,0.336 -1.12,0.532 -0.56,0.196 -1.176,0.252 -0.616,0.084 -1.232,0.084 z"
       id="path197" />
    <path
       d="m 236.656,318 h -3.276 q -0.644,0 -1.288,-0.112 -0.616,-0.112 -1.204,-0.392 -0.56,-0.28 -1.008,-0.728 -0.448,-0.448 -0.728,-1.008 -0.28,-0.588 -0.392,-1.204 -0.112,-0.644 -0.112,-1.288 V 305.4 h -3.836 v -1.96 h 3.836 v -5.012 h 2.184 v 5.012 h 5.824 v 1.96 h -5.824 v 7.868 q 0,0.532 0.14,1.064 0.14,0.532 0.476,0.952 0.364,0.392 0.868,0.588 0.532,0.168 1.064,0.168 h 3.276 z"
       id="path198" />
    <path
       d="m 282.132,318.224 q -0.7,0 -1.372,-0.196 -0.644,-0.196 -1.176,-0.644 -0.532,-0.448 -0.896,-1.036 -0.336,-0.588 -0.56,-1.232 -0.196,-0.672 -0.28,-1.344 -0.056,-0.7 -0.056,-1.372 v -8.96 h 2.184 v 8.96 q 0,0.476 0.056,0.952 0.056,0.448 0.196,0.896 0.14,0.42 0.392,0.812 0.28,0.392 0.644,0.672 0.364,0.28 0.812,0.42 0.448,0.112 0.924,0.112 0.476,0 0.924,-0.112 0.448,-0.14 0.812,-0.42 0.364,-0.28 0.616,-0.672 0.28,-0.392 0.42,-0.812 0.14,-0.448 0.196,-0.896 0.056,-0.476 0.056,-0.952 v -8.96 h 2.184 V 318 h -2.184 v -2.66 q -0.224,0.616 -0.588,1.176 -0.336,0.56 -0.868,0.952 -0.504,0.392 -1.148,0.56 -0.644,0.196 -1.288,0.196 z"
       id="path199" />
    <path
       d="m 333.74,318 -4.508,-14.56 h 2.296 l 2.8,9.716 q 0.168,0.588 0.336,1.176 0.168,0.588 0.336,1.176 0.168,-0.588 0.336,-1.176 0.168,-0.588 0.336,-1.176 l 2.8,-9.716 h 2.296 L 336.26,318 Z"
       id="path200" />
    <path
       d="m 383.36,318 -2.38,-14.56 h 2.016 l 1.008,7.98 0.364,3.024 1.652,-11.004 h 1.96 l 1.652,11.004 1.372,-11.004 h 2.016 L 390.64,318 h -1.932 L 387,306.688 385.292,318 Z"
       id="path201" />
    <path
       d="m 433.484,318 4.368,-7.28 -4.368,-7.28 h 2.548 l 2.968,5.264 2.968,-5.264 h 2.548 l -4.368,7.28 4.368,7.28 h -2.548 L 439,312.736 436.032,318 Z"
       id="path202" />
    <path
       d="m 486.128,324.02 v -1.96 h 1.484 q 0.28,0 0.588,-0.084 0.308,-0.056 0.504,-0.28 0.224,-0.224 0.336,-0.504 0.112,-0.28 0.196,-0.56 l 0.644,-2.212 -4.452,-14.98 h 2.268 l 3.332,12.04 3.276,-12.04 h 2.268 l -5.236,17.724 q -0.196,0.644 -0.476,1.232 -0.28,0.588 -0.812,0.98 -0.504,0.42 -1.148,0.532 -0.644,0.112 -1.288,0.112 z"
       id="path203" />
    <path
       d="m 537.792,318 v -1.96 l 8.036,-10.64 h -8.036 v -1.96 h 10.416 v 1.96 l -8.036,10.64 h 8.036 V 318 Z"
       id="path204" />
    <path
       d="m 596.96,322.284 q -0.644,0 -1.288,-0.084 -0.616,-0.056 -1.204,-0.308 -0.588,-0.224 -1.092,-0.644 -0.476,-0.392 -0.784,-0.952 -0.28,-0.56 -0.392,-1.204 -0.084,-0.616 -0.084,-1.232 0,-0.504 0.084,-0.98 0.084,-0.504 0.252,-0.952 0.196,-0.476 0.448,-0.896 0.252,-0.448 0.504,-0.868 0.252,-0.42 0.42,-0.896 0.168,-0.476 0.168,-0.98 0,-0.616 -0.224,-1.204 -0.224,-0.588 -0.728,-0.952 -0.476,-0.392 -1.092,-0.532 -0.588,-0.14 -1.204,-0.14 h -0.42 v -1.96 h 0.42 q 0.616,0 1.204,-0.14 0.616,-0.14 1.092,-0.504 0.504,-0.392 0.728,-0.98 0.224,-0.588 0.224,-1.204 0,-0.504 -0.168,-0.98 -0.168,-0.476 -0.42,-0.896 -0.252,-0.42 -0.504,-0.84 -0.252,-0.448 -0.448,-0.896 -0.168,-0.476 -0.252,-0.952 -0.084,-0.504 -0.084,-1.008 0,-0.616 0.084,-1.232 0.112,-0.644 0.392,-1.204 0.308,-0.56 0.784,-0.952 0.504,-0.42 1.092,-0.644 0.588,-0.252 1.204,-0.308 0.644,-0.084 1.288,-0.084 h 2.212 v 1.96 h -2.212 q -0.532,0 -1.064,0.112 -0.504,0.112 -0.924,0.476 -0.392,0.336 -0.56,0.84 -0.14,0.504 -0.14,1.036 0,0.504 0.168,0.98 0.168,0.476 0.42,0.896 0.252,0.42 0.504,0.868 0.28,0.42 0.448,0.896 0.168,0.448 0.252,0.952 0.112,0.476 0.112,0.98 0,0.616 -0.168,1.232 -0.14,0.588 -0.476,1.092 -0.336,0.504 -0.84,0.896 -0.476,0.364 -1.036,0.588 0.56,0.224 1.036,0.616 0.504,0.364 0.84,0.868 0.336,0.504 0.476,1.12 0.168,0.588 0.168,1.204 0,0.504 -0.112,1.008 -0.084,0.476 -0.252,0.952 -0.168,0.448 -0.448,0.896 -0.252,0.42 -0.504,0.84 -0.252,0.42 -0.42,0.896 -0.168,0.476 -0.168,0.98 0,0.532 0.14,1.036 0.168,0.504 0.56,0.84 0.42,0.364 0.924,0.476 0.532,0.112 1.064,0.112 h 2.212 v 1.96 z"
       id="path205" />
    <path
       d="m 645.908,322.004 v -27.048 h 2.184 v 27.048 z"
       id="path206" />
    <path
       d="m 694.828,322.284 v -1.96 h 2.212 q 0.532,0 1.036,-0.112 0.532,-0.112 0.924,-0.476 0.42,-0.336 0.56,-0.84 0.168,-0.504 0.168,-1.036 0,-0.504 -0.168,-0.98 -0.168,-0.476 -0.42,-0.896 -0.252,-0.42 -0.532,-0.84 -0.252,-0.448 -0.42,-0.896 -0.168,-0.476 -0.28,-0.952 -0.084,-0.504 -0.084,-1.008 0,-0.616 0.14,-1.204 0.168,-0.616 0.504,-1.12 0.336,-0.504 0.812,-0.868 0.504,-0.392 1.064,-0.616 -0.56,-0.224 -1.064,-0.588 -0.476,-0.392 -0.812,-0.896 -0.336,-0.504 -0.504,-1.092 -0.14,-0.616 -0.14,-1.232 0,-0.504 0.084,-0.98 0.112,-0.504 0.28,-0.952 0.168,-0.476 0.42,-0.896 0.28,-0.448 0.532,-0.868 0.252,-0.42 0.42,-0.896 0.168,-0.476 0.168,-0.98 0,-0.532 -0.168,-1.036 -0.14,-0.504 -0.56,-0.84 -0.392,-0.364 -0.924,-0.476 -0.504,-0.112 -1.036,-0.112 h -2.212 v -1.96 h 2.212 q 0.644,0 1.26,0.084 0.644,0.056 1.232,0.308 0.588,0.224 1.064,0.644 0.504,0.392 0.784,0.952 0.308,0.56 0.392,1.204 0.112,0.616 0.112,1.232 0,0.504 -0.084,1.008 -0.084,0.476 -0.28,0.952 -0.168,0.448 -0.42,0.896 -0.252,0.42 -0.504,0.84 -0.252,0.42 -0.42,0.896 -0.168,0.476 -0.168,0.98 0,0.616 0.224,1.204 0.224,0.588 0.7,0.98 0.504,0.364 1.092,0.504 0.616,0.14 1.232,0.14 h 0.42 v 1.96 h -0.42 q -0.616,0 -1.232,0.14 -0.588,0.14 -1.092,0.532 -0.476,0.364 -0.7,0.952 -0.224,0.588 -0.224,1.204 0,0.504 0.168,0.98 0.168,0.476 0.42,0.896 0.252,0.42 0.504,0.868 0.252,0.42 0.42,0.896 0.196,0.448 0.28,0.952 0.084,0.476 0.084,0.98 0,0.616 -0.112,1.232 -0.084,0.644 -0.392,1.204 -0.28,0.56 -0.784,0.952 -0.476,0.42 -1.064,0.644 -0.588,0.252 -1.232,0.308 -0.616,0.084 -1.26,0.084 z"
       id="path207" />
    <path
       d="m 753.044,312.848 q -0.224,0 -0.42,-0.028 -0.196,-0.056 -0.392,-0.112 -0.168,-0.084 -0.336,-0.196 -0.168,-0.112 -0.308,-0.224 -0.14,-0.14 -0.28,-0.28 -0.112,-0.14 -0.252,-0.28 -0.112,-0.168 -0.224,-0.336 -0.112,-0.168 -0.224,-0.336 -0.084,-0.168 -0.196,-0.336 -0.084,-0.168 -0.196,-0.336 -0.084,-0.168 -0.196,-0.364 -0.112,-0.196 -0.224,-0.364 -0.112,-0.196 -0.224,-0.364 -0.084,-0.168 -0.196,-0.308 -0.084,-0.14 -0.28,-0.308 -0.168,-0.168 -0.168,-0.252 h 0.084 q 0,0.028 -0.14,0.14 -0.112,0.112 -0.224,0.252 -0.112,0.112 -0.196,0.252 -0.084,0.14 -0.14,0.224 -0.056,0.084 -0.112,0.196 -0.056,0.084 -0.112,0.196 -0.056,0.112 -0.112,0.224 -0.056,0.112 -0.112,0.252 -0.056,0.112 -0.14,0.252 -0.056,0.112 -0.14,0.252 -0.056,0.14 -0.112,0.308 -0.056,0.14 -0.14,0.308 -0.056,0.168 -0.14,0.336 -0.056,0.168 -0.14,0.364 -0.056,0.196 -0.14,0.392 -0.084,0.196 -0.14,0.392 l -1.96,-0.644 q 0.14,-0.336 0.252,-0.616 0.112,-0.308 0.224,-0.588 0.112,-0.28 0.224,-0.532 0.112,-0.28 0.224,-0.504 0.112,-0.252 0.196,-0.448 0.112,-0.224 0.224,-0.42 0.112,-0.224 0.224,-0.392 0.112,-0.168 0.196,-0.336 0.112,-0.168 0.28,-0.392 0.168,-0.224 0.336,-0.42 0.168,-0.196 0.364,-0.336 0.196,-0.168 0.42,-0.28 0.224,-0.14 0.476,-0.196 0.252,-0.084 0.504,-0.084 0.224,0 0.42,0.056 0.196,0.028 0.364,0.112 0.196,0.056 0.364,0.168 0.168,0.112 0.308,0.252 0.14,0.112 0.252,0.252 0.14,0.14 0.252,0.308 0.14,0.14 0.252,0.308 0.112,0.168 0.196,0.336 0.112,0.168 0.196,0.336 0.112,0.168 0.196,0.336 0.112,0.168 0.224,0.364 0.112,0.196 0.224,0.392 0.112,0.168 0.196,0.336 0.112,0.168 0.196,0.308 0.112,0.14 0.28,0.308 0.196,0.168 0.196,0.252 h -0.084 q 0,-0.028 0.112,-0.14 0.14,-0.112 0.252,-0.252 0.112,-0.14 0.196,-0.252 0.084,-0.14 0.14,-0.224 0.056,-0.084 0.112,-0.168 0.056,-0.112 0.112,-0.224 0.056,-0.112 0.112,-0.224 0.056,-0.112 0.112,-0.224 0.056,-0.14 0.112,-0.252 0.084,-0.14 0.14,-0.28 0.084,-0.14 0.14,-0.28 0.056,-0.168 0.112,-0.336 0.084,-0.168 0.14,-0.336 0.084,-0.168 0.14,-0.364 0.084,-0.196 0.168,-0.392 0.084,-0.196 0.14,-0.392 l 1.96,0.644 q -0.14,0.336 -0.252,0.644 -0.112,0.28 -0.224,0.56 -0.112,0.28 -0.224,0.56 -0.112,0.252 -0.224,0.504 -0.112,0.224 -0.224,0.448 -0.084,0.196 -0.196,0.42 -0.112,0.196 -0.224,0.364 -0.112,0.168 -0.224,0.336 -0.084,0.168 -0.252,0.392 -0.168,0.224 -0.336,0.42 -0.168,0.196 -0.364,0.364 -0.196,0.14 -0.42,0.28 -0.224,0.112 -0.476,0.196 -0.252,0.056 -0.504,0.056 z"
       id="path208" />
    <path
       d="m 798.464,321.276 -1.344,-1.232 4.9,-4.928 v -4.424 h -5.124 v -1.764 h 5.124 v -2.492 q -0.924,-0.112 -1.792,-0.532 -0.868,-0.42 -1.484,-1.148 -0.588,-0.756 -0.84,-1.68 -0.224,-0.952 -0.224,-1.904 0,-0.7 0.112,-1.4 0.14,-0.728 0.448,-1.344 0.336,-0.644 0.84,-1.148 0.504,-0.532 1.148,-0.84 0.644,-0.336 1.344,-0.448 0.728,-0.14 1.428,-0.14 0.7,0 1.4,0.14 0.728,0.112 1.372,0.448 0.644,0.308 1.148,0.84 0.504,0.504 0.812,1.148 0.336,0.616 0.448,1.344 0.14,0.7 0.14,1.4 0,0.952 -0.252,1.904 -0.224,0.924 -0.84,1.68 -0.588,0.728 -1.456,1.148 -0.868,0.42 -1.792,0.532 v 2.492 h 5.124 v 1.764 h -5.124 v 4.424 l 4.9,4.928 -1.344,1.232 L 803,316.74 Z M 803,304.756 q 0.7,0 1.372,-0.224 0.672,-0.252 1.148,-0.756 0.476,-0.532 0.672,-1.204 0.196,-0.7 0.196,-1.4 0,-0.7 -0.196,-1.372 -0.196,-0.7 -0.672,-1.204 -0.476,-0.532 -1.148,-0.756 -0.672,-0.224 -1.372,-0.224 -0.7,0 -1.372,0.224 -0.672,0.224 -1.148,0.756 -0.476,0.504 -0.672,1.204 -0.196,0.672 -0.196,1.372 0,0.7 0.196,1.4 0.196,0.672 0.672,1.204 0.476,0.504 1.148,0.756 0.672,0.224 1.372,0.224 z"
       id="path209" />
    <path
       d="m 24.092,371.396 -6.916,-6.916 6.916,-6.916 1.176,1.064 -5.18,4.928 h 22.288 v 1.848 H 20.088 l 5.18,4.928 z"
       id="path210" />
    <path
       d="m 81.076,376.856 v -22.288 l -4.928,5.18 -1.064,-1.176 6.916,-6.916 6.916,6.916 -1.064,1.176 -4.928,-5.18 v 22.288 z"
       id="path211" />
    <path
       d="m 139.908,371.396 -1.176,-1.064 5.18,-4.928 h -22.288 v -1.848 h 22.288 l -5.18,-4.928 1.176,-1.064 6.916,6.916 z"
       id="path212" />
    <path
       d="m 186,377.304 -6.916,-6.916 1.064,-1.176 4.928,5.18 v -22.288 h 1.848 v 22.288 l 4.928,-5.18 1.064,1.176 z"
       id="path213" />
    <path
       d="m 246.988,373.468 h -17.976 v -17.976 h 17.976 z"
       id="path214" />
    <path
       d="m 281.012,373.468 v -17.976 h 17.976 v 17.976 z m 1.652,-1.652 h 14.672 v -14.672 h -14.672 z"
       id="path215" />
    <path
       d="M 331.08,373.468 342,355.492 352.92,373.468 Z"
       id="path216" />
    <path
       d="m 383.08,373.468 10.92,-17.976 10.92,17.976 z m 2.968,-1.652 h 15.904 L 394,358.712 Z"
       id="path217" />
    <path
       d="m 446,373.468 -8.988,-8.988 8.988,-8.988 8.988,8.988 z m 0,-1.652 7.336,-7.336 -7.336,-7.336 -7.336,7.336 z"
       id="path218" />
    <path
       d="m 498,373.468 -8.988,-8.988 8.988,-8.988 8.988,8.988 z m 0,-1.652 7.336,-7.336 -7.336,-7.336 -7.336,7.336 z m 0,-3.668 -3.668,-3.668 3.668,-3.668 3.668,3.668 z"
       id="path219" />
    <path
       d="m 547.704,368.792 -9.912,-5.572 v -2.128 l 9.912,-5.572 1.008,1.624 -9.016,5.012 9.016,5.012 z m -9.912,4.788 v -1.876 h 10.416 v 1.876 z"
       id="path220" />
    <path
       d="m 590.296,368.792 -1.008,-1.624 9.016,-5.012 -9.016,-5.012 1.008,-1.624 9.912,5.572 v 2.128 z m -0.504,4.788 v -1.876 h 10.416 v 1.876 z"
       id="path221" />
    <path
       d="m 653.328,374.224 q -0.644,0 -1.316,-0.14 -0.644,-0.14 -1.176,-0.532 -0.532,-0.392 -0.896,-0.952 -0.364,-0.588 -0.616,-1.204 -0.252,-0.616 -0.392,-1.26 -0.112,-0.644 -0.28,-1.288 l -1.68,-6.692 -3.276,11.844 h -2.268 l 4.452,-14.924 -0.644,-2.268 q -0.084,-0.308 -0.196,-0.588 -0.112,-0.28 -0.336,-0.476 -0.196,-0.224 -0.504,-0.28 -0.308,-0.084 -0.588,-0.084 h -1.484 v -1.96 h 1.484 q 0.644,0 1.288,0.112 0.644,0.112 1.148,0.504 0.532,0.392 0.812,1.008 0.28,0.588 0.476,1.232 l 3.416,12.068 q 0.112,0.308 0.168,0.616 0.084,0.308 0.14,0.644 0.084,0.308 0.14,0.644 0.084,0.308 0.196,0.616 0.14,0.28 0.308,0.56 0.168,0.28 0.42,0.504 0.252,0.196 0.56,0.28 0.336,0.056 0.644,0.056 z"
       id="path222" />
    <path
       d="m 693.792,380.02 v -21 q 0,-0.728 0.084,-1.456 0.112,-0.728 0.364,-1.4 0.28,-0.672 0.728,-1.26 0.448,-0.588 1.036,-0.98 0.616,-0.392 1.316,-0.56 0.728,-0.168 1.456,-0.168 0.7,0 1.4,0.14 0.7,0.14 1.288,0.504 0.616,0.364 1.064,0.924 0.476,0.532 0.728,1.176 0.28,0.644 0.392,1.344 0.112,0.7 0.112,1.4 0,0.644 -0.112,1.288 -0.084,0.644 -0.364,1.232 -0.28,0.588 -0.756,1.064 -0.448,0.448 -1.008,0.756 0.728,0.308 1.316,0.868 0.616,0.532 0.98,1.232 0.364,0.7 0.476,1.484 0.14,0.784 0.14,1.568 0,0.7 -0.084,1.428 -0.084,0.7 -0.308,1.372 -0.196,0.672 -0.56,1.288 -0.364,0.616 -0.924,1.092 -0.532,0.448 -1.232,0.644 -0.672,0.224 -1.372,0.224 -0.616,0 -1.204,-0.112 -0.588,-0.084 -1.12,-0.364 -0.532,-0.28 -0.98,-0.7 -0.42,-0.42 -0.672,-0.98 v 7.952 z m 5.292,-7.756 q 0.476,0 0.952,-0.14 0.504,-0.14 0.868,-0.448 0.392,-0.308 0.644,-0.728 0.28,-0.448 0.42,-0.896 0.168,-0.476 0.224,-0.98 0.056,-0.504 0.056,-0.98 0,-0.504 -0.056,-0.98 -0.056,-0.504 -0.224,-0.952 -0.14,-0.476 -0.448,-0.868 -0.28,-0.42 -0.672,-0.7 -0.392,-0.28 -0.868,-0.392 -0.476,-0.14 -0.98,-0.14 h -1.204 V 362.1 H 699 q 0.588,0 1.148,-0.28 0.56,-0.28 0.868,-0.784 0.336,-0.504 0.448,-1.092 0.112,-0.616 0.112,-1.204 0,-0.448 -0.056,-0.868 -0.028,-0.42 -0.168,-0.812 -0.14,-0.42 -0.392,-0.784 -0.224,-0.364 -0.588,-0.616 -0.336,-0.28 -0.756,-0.392 -0.42,-0.112 -0.84,-0.112 -0.448,0 -0.896,0.14 -0.42,0.14 -0.784,0.448 -0.336,0.28 -0.56,0.672 -0.224,0.392 -0.364,0.84 -0.112,0.42 -0.168,0.868 -0.028,0.448 -0.028,0.896 v 11.144 q 0.056,0.532 0.336,0.98 0.308,0.42 0.756,0.7 0.448,0.252 0.952,0.336 0.532,0.084 1.064,0.084 z"
       id="path223" />
    <path
       d="m 750.916,374.224 q -0.728,0 -1.484,-0.14 -0.728,-0.14 -1.372,-0.504 -0.644,-0.364 -1.148,-0.924 -0.504,-0.56 -0.812,-1.232 -0.308,-0.672 -0.42,-1.4 -0.112,-0.756 -0.112,-1.484 v -1.904 h -1.064 V 364.9 h 1.064 v -2.38 h -1.064 v -1.736 h 1.064 v -1.904 q 0,-0.728 0.112,-1.456 0.112,-0.756 0.42,-1.428 0.308,-0.672 0.812,-1.232 0.504,-0.56 1.148,-0.924 0.644,-0.364 1.372,-0.504 0.756,-0.14 1.484,-0.14 0.7,0 1.372,0.112 0.7,0.112 1.316,0.42 0.644,0.308 1.148,0.812 0.532,0.476 0.868,1.092 0.336,0.588 0.476,1.288 0.168,0.672 0.168,1.372 v 0.168 h -2.184 v -0.112 q 0,-0.644 -0.196,-1.26 -0.196,-0.616 -0.644,-1.064 -0.448,-0.476 -1.064,-0.672 -0.616,-0.196 -1.26,-0.196 -0.7,0 -1.372,0.28 -0.644,0.28 -1.064,0.84 -0.42,0.532 -0.588,1.232 -0.14,0.672 -0.14,1.372 v 1.904 h 3.192 v 1.736 h -3.192 v 2.38 h 3.192 v 1.736 h -3.192 v 1.904 q 0,0.7 0.14,1.4 0.168,0.672 0.588,1.232 0.42,0.532 1.064,0.812 0.672,0.28 1.372,0.28 0.644,0 1.26,-0.196 0.616,-0.196 1.064,-0.644 0.448,-0.476 0.644,-1.092 0.196,-0.616 0.196,-1.26 v -0.112 h 2.184 v 0.168 q 0,0.7 -0.168,1.4 -0.14,0.672 -0.476,1.288 -0.336,0.588 -0.868,1.092 -0.504,0.476 -1.148,0.784 -0.616,0.308 -1.316,0.42 -0.672,0.112 -1.372,0.112 z"
       id="path224" />
    <path
       d="m 797.792,374 v -1.96 l 4.228,-8.344 -4.228,-8.316 v -1.96 h 10.416 v 1.96 h -8.232 l 4.228,8.316 -4.228,8.344 h 8.232 V 374 Z"
       id="path225" />
    <path
       d="M 40.696,421.404 H 17.792 v -1.848 h 22.904 z m -8.372,6.272 -1.064,-1.568 9.156,-5.628 -9.156,-5.628 1.064,-1.568 9.884,6.104 v 2.184 z m 68.096,-6.272 H 73.792 v -1.848 h 26.628 z m -8.372,6.272 -1.064,-1.568 9.156,-5.628 -9.156,-5.628 1.064,-1.568 9.884,6.104 v 2.184 z m 10.276,0 -1.064,-1.568 9.156,-5.628 -9.156,-5.628 1.064,-1.568 9.884,6.104 v 2.184 z m 56.98,-6.272 h -15.512 v -1.848 h 15.512 z m 10.696,7.7 -12.208,-7.532 v -2.184 l 12.208,-7.532 1.792,1.12 -12.208,7.504 12.208,7.504 z m 0,0 -1.792,-1.12 12.208,-7.504 -12.208,-7.504 1.792,-1.12 12.208,7.532 v 2.184 z m 59.304,-7.7 h -15.512 v -1.848 h 15.512 z m 8.372,6.272 -9.884,-6.104 v -2.184 l 9.884,-6.104 1.064,1.568 -9.156,5.628 9.156,5.628 z m 6.524,0 -1.064,-1.568 9.156,-5.628 -9.156,-5.628 1.064,-1.568 9.884,6.104 v 2.184 z m 10.248,0 -1.064,-1.568 9.156,-5.628 -9.156,-5.628 1.064,-1.568 9.884,6.104 v 2.184 z m 58.856,-6.272 h -15.512 v -1.848 h 15.512 z m 10.696,7.7 -12.208,-7.532 v -2.184 l 12.208,-7.532 1.792,1.12 -12.208,7.504 12.208,7.504 z m 0,0 -1.792,-1.12 12.208,-7.504 -12.208,-7.504 1.792,-1.12 12.208,7.532 v 2.184 z m 25.676,-1.428 -9.884,-6.104 v -2.184 l 9.884,-6.104 1.064,1.568 -9.156,5.628 9.156,5.628 z m 47.628,-6.272 h -15.512 v -1.848 h 15.512 z m 10.696,7.7 -12.208,-7.532 v -2.184 l 12.208,-7.532 1.792,1.12 -12.208,7.504 12.208,7.504 z m 0,0 -1.792,-1.12 12.208,-7.504 -12.208,-7.504 1.792,-1.12 12.208,7.532 v 2.184 z m 25.676,-1.428 -9.884,-6.104 v -2.184 l 9.884,-6.104 1.064,1.568 -9.156,5.628 9.156,5.628 z m 9.324,0.308 q -0.448,0 -0.868,-0.112 -0.42,-0.14 -0.756,-0.448 -0.308,-0.336 -0.448,-0.756 -0.112,-0.42 -0.112,-0.868 0,-0.448 0.112,-0.868 0.14,-0.42 0.448,-0.728 0.336,-0.336 0.756,-0.448 0.42,-0.14 0.868,-0.14 0.448,0 0.868,0.14 0.42,0.112 0.728,0.448 0.336,0.308 0.448,0.728 0.14,0.42 0.14,0.868 0,0.448 -0.14,0.868 -0.112,0.42 -0.448,0.756 -0.308,0.308 -0.728,0.448 -0.42,0.112 -0.868,0.112 z m 0,-10.64 q -0.448,0 -0.868,-0.112 -0.42,-0.14 -0.756,-0.448 -0.308,-0.336 -0.448,-0.756 -0.112,-0.42 -0.112,-0.868 0,-0.448 0.112,-0.868 0.14,-0.42 0.448,-0.728 0.336,-0.336 0.756,-0.448 0.42,-0.14 0.868,-0.14 0.448,0 0.868,0.14 0.42,0.112 0.728,0.448 0.336,0.308 0.448,0.728 0.14,0.42 0.14,0.868 0,0.448 -0.14,0.868 -0.112,0.42 -0.448,0.756 -0.308,0.308 -0.728,0.448 -0.42,0.112 -0.868,0.112 z m 56.028,4.06 h -19.236 v -1.848 h 19.236 z m 8.372,6.272 -9.884,-6.104 v -2.184 l 9.884,-6.104 1.064,1.568 -9.156,5.628 9.156,5.628 z m 10.276,0 -9.884,-6.104 v -2.184 l 9.884,-6.104 1.064,1.568 -9.156,5.628 9.156,5.628 z m 51.352,-6.272 h -19.236 v -1.848 h 19.236 z m 8.372,6.272 -9.884,-6.104 v -2.184 l 9.884,-6.104 1.064,1.568 -9.156,5.628 9.156,5.628 z m 10.276,0 -9.884,-6.104 v -2.184 l 9.884,-6.104 1.064,1.568 -9.156,5.628 9.156,5.628 z m 9.324,0.308 q -0.448,0 -0.868,-0.112 -0.42,-0.14 -0.756,-0.448 -0.308,-0.336 -0.448,-0.756 -0.112,-0.42 -0.112,-0.868 0,-0.448 0.112,-0.868 0.14,-0.42 0.448,-0.728 0.336,-0.336 0.756,-0.448 0.42,-0.14 0.868,-0.14 0.448,0 0.868,0.14 0.42,0.112 0.728,0.448 0.336,0.308 0.448,0.728 0.14,0.42 0.14,0.868 0,0.448 -0.14,0.868 -0.112,0.42 -0.448,0.756 -0.308,0.308 -0.728,0.448 -0.42,0.112 -0.868,0.112 z m 0,-10.64 q -0.448,0 -0.868,-0.112 -0.42,-0.14 -0.756,-0.448 -0.308,-0.336 -0.448,-0.756 -0.112,-0.42 -0.112,-0.868 0,-0.448 0.112,-0.868 0.14,-0.42 0.448,-0.728 0.336,-0.336 0.756,-0.448 0.42,-0.14 0.868,-0.14 0.448,0 0.868,0.14 0.42,0.112 0.728,0.448 0.336,0.308 0.448,0.728 0.14,0.42 0.14,0.868 0,0.448 -0.14,0.868 -0.112,0.42 -0.448,0.756 -0.308,0.308 -0.728,0.448 -0.42,0.112 -0.868,0.112 z m 52.304,4.06 h -15.512 v -1.848 h 15.512 z m 8.372,6.272 -9.884,-6.104 v -2.184 l 9.884,-6.104 1.064,1.568 -9.156,5.628 9.156,5.628 z m 47.628,-6.272 h -15.512 v -1.848 h 15.512 z m 8.372,6.272 -9.884,-6.104 v -2.184 l 9.884,-6.104 1.064,1.568 -9.156,5.628 9.156,5.628 z m 9.324,0.308 q -0.448,0 -0.868,-0.112 -0.42,-0.14 -0.756,-0.448 -0.308,-0.336 -0.448,-0.756 -0.112,-0.42 -0.112,-0.868 0,-0.448 0.112,-0.868 0.14,-0.42 0.448,-0.728 0.336,-0.336 0.756,-0.448 0.42,-0.14 0.868,-0.14 0.448,0 0.868,0.14 0.42,0.112 0.728,0.448 0.336,0.308 0.448,0.728 0.14,0.42 0.14,0.868 0,0.448 -0.14,0.868 -0.112,0.42 -0.448,0.756 -0.308,0.308 -0.728,0.448 -0.42,0.112 -0.868,0.112 z m 0,-10.64 q -0.448,0 -0.868,-0.112 -0.42,-0.14 -0.756,-0.448 -0.308,-0.336 -0.448,-0.756 -0.112,-0.42 -0.112,-0.868 0,-0.448 0.112,-0.868 0.14,-0.42 0.448,-0.728 0.336,-0.336 0.756,-0.448 0.42,-0.14 0.868,-0.14 0.448,0 0.868,0.14 0.42,0.112 0.728,0.448 0.336,0.308 0.448,0.728 0.14,0.42 0.14,0.868 0,0.448 -0.14,0.868 -0.112,0.42 -0.448,0.756 -0.308,0.308 -0.728,0.448 -0.42,0.112 -0.868,0.112 z m 41.86,18.676 -1.652,-1.26 q 0.896,-1.008 1.624,-2.128 0.756,-1.12 1.12,-2.408 h -0.14 q -0.42,0 -0.868,-0.14 -0.42,-0.14 -0.728,-0.448 -0.308,-0.308 -0.448,-0.728 -0.112,-0.42 -0.112,-0.868 0,-0.448 0.112,-0.868 0.14,-0.42 0.448,-0.728 0.336,-0.336 0.756,-0.448 0.42,-0.14 0.868,-0.14 0.448,0 0.896,0.14 0.448,0.14 0.756,0.476 0.308,0.308 0.42,0.756 0.112,0.448 0.112,0.896 0,1.092 -0.252,2.156 -0.252,1.064 -0.672,2.044 -0.42,1.008 -1.008,1.932 -0.56,0.924 -1.232,1.764 z m 0.98,-16.436 q -0.448,0 -0.868,-0.112 -0.42,-0.14 -0.756,-0.448 -0.308,-0.336 -0.448,-0.756 -0.112,-0.42 -0.112,-0.868 0,-0.448 0.112,-0.868 0.14,-0.42 0.448,-0.728 0.336,-0.336 0.756,-0.448 0.42,-0.14 0.868,-0.14 0.448,0 0.868,0.14 0.42,0.112 0.728,0.448 0.336,0.308 0.448,0.728 0.14,0.42 0.14,0.868 0,0.448 -0.14,0.868 -0.112,0.42 -0.448,0.756 -0.308,0.308 -0.728,0.448 -0.42,0.112 -0.868,0.112 z m 11.34,16.436 -1.652,-1.26 q 0.896,-1.008 1.624,-2.128 0.756,-1.12 1.12,-2.408 h -0.14 q -0.42,0 -0.868,-0.14 -0.42,-0.14 -0.728,-0.448 -0.308,-0.308 -0.448,-0.728 -0.112,-0.42 -0.112,-0.868 0,-0.448 0.112,-0.868 0.14,-0.42 0.448,-0.728 0.336,-0.336 0.756,-0.448 0.42,-0.14 0.868,-0.14 0.448,0 0.896,0.14 0.448,0.14 0.756,0.476 0.308,0.308 0.42,0.756 0.112,0.448 0.112,0.896 0,1.092 -0.252,2.156 -0.252,1.064 -0.672,2.044 -0.42,1.008 -1.008,1.932 -0.56,0.924 -1.232,1.764 z m 0.98,-16.436 q -0.448,0 -0.868,-0.112 -0.42,-0.14 -0.756,-0.448 -0.308,-0.336 -0.448,-0.756 -0.112,-0.42 -0.112,-0.868 0,-0.448 0.112,-0.868 0.14,-0.42 0.448,-0.728 0.336,-0.336 0.756,-0.448 0.42,-0.14 0.868,-0.14 0.448,0 0.868,0.14 0.42,0.112 0.728,0.448 0.336,0.308 0.448,0.728 0.14,0.42 0.14,0.868 0,0.448 -0.14,0.868 -0.112,0.42 -0.448,0.756 -0.308,0.308 -0.728,0.448 -0.42,0.112 -0.868,0.112 z"
       id="path226" />
    <path
       d="m 22.552,485.496 3.668,-19.572 h 2.1 l -0.924,4.9 h 2.352 v 1.96 h -2.716 l -1.12,5.852 h 2.604 v 1.96 h -2.968 l -0.924,4.9 z m -4.872,0 0.924,-4.9 h -2.352 v -1.96 h 2.716 l 1.12,-5.852 h -2.604 v -1.96 h 2.968 l 0.924,-4.9 h 2.072 l -3.668,19.572 z m 21.28,4.788 q -0.644,0 -1.288,-0.084 -0.616,-0.056 -1.204,-0.308 -0.588,-0.224 -1.092,-0.644 -0.476,-0.392 -0.784,-0.952 -0.28,-0.56 -0.392,-1.204 -0.084,-0.616 -0.084,-1.232 0,-0.504 0.084,-0.98 0.084,-0.504 0.252,-0.952 0.196,-0.476 0.448,-0.896 0.252,-0.448 0.504,-0.868 0.252,-0.42 0.42,-0.896 0.168,-0.476 0.168,-0.98 0,-0.616 -0.224,-1.204 -0.224,-0.588 -0.728,-0.952 -0.476,-0.392 -1.092,-0.532 -0.588,-0.14 -1.204,-0.14 h -0.42 v -1.96 h 0.42 q 0.616,0 1.204,-0.14 0.616,-0.14 1.092,-0.504 0.504,-0.392 0.728,-0.98 0.224,-0.588 0.224,-1.204 0,-0.504 -0.168,-0.98 -0.168,-0.476 -0.42,-0.896 -0.252,-0.42 -0.504,-0.84 -0.252,-0.448 -0.448,-0.896 -0.168,-0.476 -0.252,-0.952 -0.084,-0.504 -0.084,-1.008 0,-0.616 0.084,-1.232 0.112,-0.644 0.392,-1.204 0.308,-0.56 0.784,-0.952 0.504,-0.42 1.092,-0.644 0.588,-0.252 1.204,-0.308 0.644,-0.084 1.288,-0.084 h 2.212 v 1.96 H 38.96 q -0.532,0 -1.064,0.112 -0.504,0.112 -0.924,0.476 -0.392,0.336 -0.56,0.84 -0.14,0.504 -0.14,1.036 0,0.504 0.168,0.98 0.168,0.476 0.42,0.896 0.252,0.42 0.504,0.868 0.28,0.42 0.448,0.896 0.168,0.448 0.252,0.952 0.112,0.476 0.112,0.98 0,0.616 -0.168,1.232 -0.14,0.588 -0.476,1.092 -0.336,0.504 -0.84,0.896 -0.476,0.364 -1.036,0.588 0.56,0.224 1.036,0.616 0.504,0.364 0.84,0.868 0.336,0.504 0.476,1.12 0.168,0.588 0.168,1.204 0,0.504 -0.112,1.008 -0.084,0.476 -0.252,0.952 -0.168,0.448 -0.448,0.896 -0.252,0.42 -0.504,0.84 -0.252,0.42 -0.42,0.896 -0.168,0.476 -0.168,0.98 0,0.532 0.14,1.036 0.168,0.504 0.56,0.84 0.42,0.364 0.924,0.476 0.532,0.112 1.064,0.112 h 2.212 v 1.96 z m 39.592,-4.788 3.668,-19.572 h 2.1 l -0.924,4.9 h 2.352 v 1.96 h -2.716 l -1.12,5.852 h 2.604 v 1.96 h -2.968 l -0.924,4.9 z m -4.872,0 0.924,-4.9 h -2.352 v -1.96 h 2.716 l 1.12,-5.852 h -2.604 v -1.96 h 2.968 l 0.924,-4.9 h 2.072 l -3.668,19.572 z m 22.736,5.012 q -1.204,-0.672 -2.268,-1.596 -1.036,-0.896 -1.876,-2.016 -0.84,-1.092 -1.428,-2.352 -0.588,-1.26 -0.952,-2.576 -0.364,-1.344 -0.532,-2.716 -0.14,-1.4 -0.14,-2.772 0,-1.372 0.14,-2.744 0.168,-1.4 0.532,-2.716 0.364,-1.344 0.952,-2.604 0.588,-1.26 1.428,-2.352 0.84,-1.12 1.876,-2.016 1.064,-0.924 2.268,-1.596 l 1.064,1.708 q -1.54,0.896 -2.772,2.268 -1.204,1.372 -1.96,3.024 -0.756,1.624 -1.064,3.444 -0.28,1.792 -0.28,3.584 0,1.792 0.28,3.612 0.308,1.792 1.064,3.444 0.756,1.624 1.96,2.996 1.232,1.372 2.772,2.268 z m 38.136,-5.012 3.668,-19.572 h 2.1 l -0.924,4.9 h 2.352 v 1.96 h -2.716 l -1.12,5.852 h 2.604 v 1.96 h -2.968 l -0.924,4.9 z m -4.872,0 0.924,-4.9 h -2.352 v -1.96 h 2.716 l 1.12,-5.852 h -2.604 v -1.96 h 2.968 l 0.924,-4.9 h 2.072 l -3.668,19.572 z m 24.528,6.524 h -10.416 v -1.96 h 10.416 z m 36.344,-6.524 3.668,-19.572 h 2.1 l -0.924,4.9 h 2.352 v 1.96 h -2.716 l -1.12,5.852 h 2.604 v 1.96 h -2.968 l -0.924,4.9 z m -4.872,0 0.924,-4.9 h -2.352 v -1.96 h 2.716 l 1.12,-5.852 h -2.604 v -1.96 h 2.968 l 0.924,-4.9 h 2.072 l -3.668,19.572 z m 24.528,6.524 h -10.416 v -1.96 h 10.416 z m 12.208,-1.512 q -1.204,-0.672 -2.268,-1.596 -1.036,-0.896 -1.876,-2.016 -0.84,-1.092 -1.428,-2.352 -0.588,-1.26 -0.952,-2.576 -0.364,-1.344 -0.532,-2.716 -0.14,-1.4 -0.14,-2.772 0,-1.372 0.14,-2.744 0.168,-1.4 0.532,-2.716 0.364,-1.344 0.952,-2.604 0.588,-1.26 1.428,-2.352 0.84,-1.12 1.876,-2.016 1.064,-0.924 2.268,-1.596 l 1.064,1.708 q -1.54,0.896 -2.772,2.268 -1.204,1.372 -1.96,3.024 -0.756,1.624 -1.064,3.444 -0.28,1.792 -0.28,3.584 0,1.792 0.28,3.612 0.308,1.792 1.064,3.444 0.756,1.624 1.96,2.996 1.232,1.372 2.772,2.268 z m 38.136,-5.012 3.668,-19.572 h 2.1 l -0.924,4.9 h 2.352 v 1.96 h -2.716 l -1.12,5.852 h 2.604 v 1.96 h -2.968 l -0.924,4.9 z m -4.872,0 0.924,-4.9 h -2.352 v -1.96 h 2.716 l 1.12,-5.852 h -2.604 v -1.96 h 2.968 l 0.924,-4.9 h 2.072 l -3.668,19.572 z m 18.228,-5.684 V 474.8 H 275 q 0.7,0 1.372,-0.252 0.672,-0.28 1.12,-0.84 0.448,-0.56 0.588,-1.26 0.168,-0.7 0.168,-1.4 0,-0.476 -0.056,-0.952 -0.056,-0.476 -0.224,-0.924 -0.168,-0.448 -0.448,-0.84 -0.252,-0.392 -0.644,-0.672 -0.392,-0.28 -0.868,-0.392 -0.448,-0.112 -0.924,-0.112 -0.644,0 -1.26,0.224 -0.616,0.196 -1.064,0.672 -0.448,0.448 -0.644,1.064 -0.196,0.616 -0.196,1.26 v 0.084 h -2.184 v -0.14 q 0,-0.7 0.14,-1.372 0.168,-0.7 0.504,-1.288 0.336,-0.616 0.84,-1.12 0.532,-0.504 1.148,-0.784 0.616,-0.308 1.316,-0.42 0.7,-0.14 1.4,-0.14 0.756,0 1.484,0.168 0.756,0.14 1.4,0.532 0.644,0.364 1.12,0.952 0.504,0.56 0.812,1.26 0.308,0.7 0.42,1.456 0.112,0.728 0.112,1.484 0,0.98 -0.224,1.96 -0.224,0.98 -0.812,1.792 -0.56,0.784 -1.456,1.288 -0.868,0.476 -1.848,0.616 v 3.108 z m 1.092,6.412 q -0.392,0 -0.784,-0.112 -0.392,-0.112 -0.672,-0.392 -0.28,-0.308 -0.392,-0.672 -0.112,-0.392 -0.112,-0.812 0,-0.392 0.112,-0.756 0.112,-0.392 0.392,-0.672 0.28,-0.308 0.672,-0.42 0.392,-0.112 0.784,-0.112 0.392,0 0.784,0.112 0.392,0.112 0.672,0.42 0.28,0.28 0.392,0.672 0.14,0.364 0.14,0.756 0,0.42 -0.14,0.812 -0.112,0.364 -0.392,0.672 -0.28,0.28 -0.672,0.392 -0.392,0.112 -0.784,0.112 z m 41.552,-0.728 3.668,-19.572 h 2.1 l -0.924,4.9 h 2.352 v 1.96 h -2.716 l -1.12,5.852 h 2.604 v 1.96 h -2.968 l -0.924,4.9 z m -4.872,0 0.924,-4.9 h -2.352 v -1.96 h 2.716 l 1.12,-5.852 h -2.604 v -1.96 h 2.968 l 0.924,-4.9 h 2.072 l -3.668,19.572 z m 19.32,0.728 q -0.448,0 -0.868,-0.14 -0.42,-0.112 -0.756,-0.42 -0.308,-0.336 -0.448,-0.756 -0.112,-0.42 -0.112,-0.868 0,-0.448 0.112,-0.868 0.14,-0.42 0.448,-0.728 0.336,-0.336 0.756,-0.448 0.42,-0.14 0.868,-0.14 0.448,0 0.868,0.14 0.42,0.112 0.728,0.448 0.336,0.308 0.448,0.728 0.14,0.42 0.14,0.868 0,0.448 -0.14,0.868 -0.112,0.42 -0.448,0.756 -0.308,0.308 -0.728,0.42 -0.42,0.14 -0.868,0.14 z m 0,-10.64 q -0.448,0 -0.868,-0.112 -0.42,-0.14 -0.756,-0.448 -0.308,-0.336 -0.448,-0.756 -0.112,-0.42 -0.112,-0.868 0,-0.448 0.112,-0.868 0.14,-0.42 0.448,-0.728 0.336,-0.336 0.756,-0.448 0.42,-0.14 0.868,-0.14 0.448,0 0.868,0.14 0.42,0.112 0.728,0.448 0.336,0.308 0.448,0.728 0.14,0.42 0.14,0.868 0,0.448 -0.14,0.868 -0.112,0.42 -0.448,0.756 -0.308,0.308 -0.728,0.448 -0.42,0.112 -0.868,0.112 z m 42,3.08 q -0.448,0 -0.868,-0.112 -0.42,-0.14 -0.756,-0.448 -0.308,-0.336 -0.448,-0.756 -0.112,-0.42 -0.112,-0.868 0,-0.448 0.112,-0.868 0.14,-0.42 0.448,-0.728 0.336,-0.336 0.756,-0.448 0.42,-0.14 0.868,-0.14 0.448,0 0.868,0.14 0.42,0.112 0.728,0.448 0.336,0.308 0.448,0.728 0.14,0.42 0.14,0.868 0,0.448 -0.14,0.868 -0.112,0.42 -0.448,0.756 -0.308,0.308 -0.728,0.448 -0.42,0.112 -0.868,0.112 z m 19.208,-1.204 h -10.416 v -1.96 h 10.416 z m 38.836,3.388 q -0.224,0 -0.42,-0.028 -0.196,-0.056 -0.392,-0.112 -0.168,-0.084 -0.336,-0.196 -0.168,-0.112 -0.308,-0.224 -0.14,-0.14 -0.28,-0.28 -0.112,-0.14 -0.252,-0.28 -0.112,-0.168 -0.224,-0.336 -0.112,-0.168 -0.224,-0.336 -0.084,-0.168 -0.196,-0.336 -0.084,-0.168 -0.196,-0.336 -0.084,-0.168 -0.196,-0.364 -0.112,-0.196 -0.224,-0.364 -0.112,-0.196 -0.224,-0.364 -0.084,-0.168 -0.196,-0.308 -0.084,-0.14 -0.28,-0.308 -0.168,-0.168 -0.168,-0.252 h 0.084 q 0,0.028 -0.14,0.14 -0.112,0.112 -0.224,0.252 -0.112,0.112 -0.196,0.252 -0.084,0.14 -0.14,0.224 -0.056,0.084 -0.112,0.196 -0.056,0.084 -0.112,0.196 -0.056,0.112 -0.112,0.224 -0.056,0.112 -0.112,0.252 -0.056,0.112 -0.14,0.252 -0.056,0.112 -0.14,0.252 -0.056,0.14 -0.112,0.308 -0.056,0.14 -0.14,0.308 -0.056,0.168 -0.14,0.336 -0.056,0.168 -0.14,0.364 -0.056,0.196 -0.14,0.392 -0.084,0.196 -0.14,0.392 l -1.96,-0.644 q 0.14,-0.336 0.252,-0.616 0.112,-0.308 0.224,-0.588 0.112,-0.28 0.224,-0.532 0.112,-0.28 0.224,-0.504 0.112,-0.252 0.196,-0.448 0.112,-0.224 0.224,-0.42 0.112,-0.224 0.224,-0.392 0.112,-0.168 0.196,-0.336 0.112,-0.168 0.28,-0.392 0.168,-0.224 0.336,-0.42 0.168,-0.196 0.364,-0.336 0.196,-0.168 0.42,-0.28 0.224,-0.14 0.476,-0.196 0.252,-0.084 0.504,-0.084 0.224,0 0.42,0.056 0.196,0.028 0.364,0.112 0.196,0.056 0.364,0.168 0.168,0.112 0.308,0.252 0.14,0.112 0.252,0.252 0.14,0.14 0.252,0.308 0.14,0.14 0.252,0.308 0.112,0.168 0.196,0.336 0.112,0.168 0.196,0.336 0.112,0.168 0.196,0.336 0.112,0.168 0.224,0.364 0.112,0.196 0.224,0.392 0.112,0.168 0.196,0.336 0.112,0.168 0.196,0.308 0.112,0.14 0.28,0.308 0.196,0.168 0.196,0.252 h -0.084 q 0,-0.028 0.112,-0.14 0.14,-0.112 0.252,-0.252 0.112,-0.14 0.196,-0.252 0.084,-0.14 0.14,-0.224 0.056,-0.084 0.112,-0.168 0.056,-0.112 0.112,-0.224 0.056,-0.112 0.112,-0.224 0.056,-0.112 0.112,-0.224 0.056,-0.14 0.112,-0.252 0.084,-0.14 0.14,-0.28 0.084,-0.14 0.14,-0.28 0.056,-0.168 0.112,-0.336 0.084,-0.168 0.14,-0.336 0.084,-0.168 0.14,-0.364 0.084,-0.196 0.168,-0.392 0.084,-0.196 0.14,-0.392 l 1.96,0.644 q -0.14,0.336 -0.252,0.644 -0.112,0.28 -0.224,0.56 -0.112,0.28 -0.224,0.56 -0.112,0.252 -0.224,0.504 -0.112,0.224 -0.224,0.448 -0.084,0.196 -0.196,0.42 -0.112,0.196 -0.224,0.364 -0.112,0.168 -0.224,0.336 -0.084,0.168 -0.252,0.392 -0.168,0.224 -0.336,0.42 -0.168,0.196 -0.364,0.364 -0.196,0.14 -0.42,0.28 -0.224,0.112 -0.476,0.196 -0.252,0.056 -0.504,0.056 z m 16.184,7.308 H 443 q -0.728,0 -1.456,-0.168 -0.728,-0.14 -1.372,-0.504 -0.616,-0.364 -1.092,-0.924 -0.476,-0.56 -0.784,-1.232 -0.28,-0.672 -0.392,-1.4 -0.112,-0.728 -0.112,-1.456 v -11.984 q 0,-0.728 0.112,-1.456 0.112,-0.728 0.392,-1.4 0.308,-0.672 0.784,-1.232 0.476,-0.56 1.092,-0.924 0.644,-0.364 1.372,-0.504 0.728,-0.168 1.456,-0.168 0.728,0 1.456,0.168 0.728,0.14 1.344,0.504 0.644,0.364 1.12,0.924 0.476,0.56 0.756,1.232 0.308,0.672 0.42,1.4 0.112,0.728 0.112,1.456 v 9.24 q 0,0.476 -0.056,0.952 -0.056,0.448 -0.224,0.896 -0.168,0.448 -0.448,0.84 -0.252,0.392 -0.644,0.672 -0.364,0.252 -0.84,0.364 -0.476,0.112 -0.924,0.112 -0.476,0 -0.952,-0.112 -0.448,-0.112 -0.84,-0.364 -0.392,-0.28 -0.672,-0.672 -0.252,-0.392 -0.42,-0.84 -0.14,-0.448 -0.224,-0.896 -0.056,-0.476 -0.056,-0.952 v -5.348 q 0,-0.476 0.056,-0.952 0.084,-0.476 0.252,-0.924 0.168,-0.448 0.448,-0.84 0.308,-0.392 0.7,-0.644 0.392,-0.252 0.868,-0.364 0.476,-0.112 0.952,-0.112 h 1.092 v -0.056 q 0,-0.476 -0.084,-0.924 -0.056,-0.476 -0.252,-0.896 -0.168,-0.448 -0.476,-0.812 -0.28,-0.392 -0.672,-0.644 -0.392,-0.252 -0.868,-0.336 -0.448,-0.112 -0.924,-0.112 -0.476,0 -0.952,0.112 -0.448,0.084 -0.84,0.336 -0.392,0.252 -0.7,0.644 -0.28,0.364 -0.476,0.812 -0.168,0.42 -0.252,0.896 -0.056,0.448 -0.056,0.924 v 11.984 q 0,0.476 0.056,0.952 0.084,0.448 0.252,0.896 0.196,0.42 0.476,0.812 0.308,0.364 0.7,0.616 0.392,0.224 0.84,0.336 0.476,0.112 0.952,0.112 h 4.228 z m -2.156,-6.328 q 0.336,0 0.588,-0.224 0.28,-0.252 0.392,-0.56 0.14,-0.308 0.168,-0.644 0.056,-0.336 0.056,-0.672 v -7.448 h -1.092 q -0.336,0 -0.644,0.224 -0.28,0.196 -0.448,0.532 -0.14,0.308 -0.196,0.672 -0.028,0.336 -0.028,0.672 v 5.348 q 0,0.336 0.028,0.672 0.056,0.336 0.168,0.644 0.14,0.308 0.392,0.56 0.28,0.224 0.616,0.224 z m 39.34,4.396 q -0.672,0 -1.372,-0.168 -0.672,-0.14 -1.26,-0.504 -0.56,-0.392 -0.98,-0.952 -0.42,-0.56 -0.7,-1.176 -0.252,-0.644 -0.42,-1.316 -0.14,-0.672 -0.14,-1.372 0,-0.84 0.252,-1.624 0.252,-0.812 0.672,-1.512 0.448,-0.728 1.008,-1.344 0.56,-0.616 1.148,-1.204 -0.392,-0.644 -0.812,-1.288 -0.42,-0.644 -0.756,-1.316 -0.336,-0.7 -0.56,-1.428 -0.196,-0.756 -0.196,-1.512 0,-0.84 0.252,-1.652 0.28,-0.84 0.84,-1.456 0.588,-0.644 1.4,-0.924 0.812,-0.28 1.652,-0.28 0.588,0 1.148,0.14 0.588,0.112 1.092,0.42 0.504,0.28 0.868,0.728 0.392,0.448 0.616,0.98 0.252,0.532 0.336,1.12 0.084,0.588 0.084,1.176 h -2.1 q 0,-0.476 -0.112,-0.952 -0.084,-0.476 -0.336,-0.868 -0.252,-0.392 -0.7,-0.616 -0.42,-0.224 -0.896,-0.224 -0.448,0 -0.868,0.196 -0.42,0.168 -0.7,0.56 -0.252,0.364 -0.364,0.812 -0.084,0.42 -0.084,0.868 0,0.616 0.168,1.232 0.196,0.588 0.476,1.148 0.28,0.532 0.616,1.064 0.336,0.504 0.672,1.008 0.336,0.504 0.644,1.036 0.336,0.504 0.644,1.036 l 2.52,4.256 1.148,-2.968 h 2.156 l -1.68,4.312 q -0.084,0.224 -0.168,0.448 -0.084,0.196 -0.168,0.392 l 2.072,3.5 h -2.38 l -1.008,-1.708 q -0.392,0.532 -0.924,0.98 -0.504,0.448 -1.148,0.672 -0.392,0.14 -0.812,0.196 -0.42,0.084 -0.84,0.084 z m 0.196,-1.904 q 0.392,0 0.784,-0.112 0.392,-0.14 0.7,-0.364 0.336,-0.224 0.588,-0.532 0.28,-0.308 0.476,-0.672 l -3.304,-5.6 q -0.056,-0.084 -0.112,-0.168 -0.028,-0.084 -0.084,-0.168 -0.42,0.42 -0.784,0.868 -0.364,0.42 -0.644,0.924 -0.28,0.504 -0.42,1.064 -0.14,0.56 -0.14,1.12 0,0.448 0.056,0.896 0.084,0.42 0.224,0.84 0.168,0.392 0.42,0.784 0.252,0.364 0.588,0.644 0.364,0.252 0.784,0.364 0.42,0.112 0.868,0.112 z m 13.804,1.904 q -0.672,0 -1.372,-0.168 -0.672,-0.14 -1.26,-0.504 -0.56,-0.392 -0.98,-0.952 -0.42,-0.56 -0.7,-1.176 -0.252,-0.644 -0.42,-1.316 -0.14,-0.672 -0.14,-1.372 0,-0.84 0.252,-1.624 0.252,-0.812 0.672,-1.512 0.448,-0.728 1.008,-1.344 0.56,-0.616 1.148,-1.204 -0.392,-0.644 -0.812,-1.288 -0.42,-0.644 -0.756,-1.316 -0.336,-0.7 -0.56,-1.428 -0.196,-0.756 -0.196,-1.512 0,-0.84 0.252,-1.652 0.28,-0.84 0.84,-1.456 0.588,-0.644 1.4,-0.924 0.812,-0.28 1.652,-0.28 0.588,0 1.148,0.14 0.588,0.112 1.092,0.42 0.504,0.28 0.868,0.728 0.392,0.448 0.616,0.98 0.252,0.532 0.336,1.12 0.084,0.588 0.084,1.176 h -2.1 q 0,-0.476 -0.112,-0.952 -0.084,-0.476 -0.336,-0.868 -0.252,-0.392 -0.7,-0.616 -0.42,-0.224 -0.896,-0.224 -0.448,0 -0.868,0.196 -0.42,0.168 -0.7,0.56 -0.252,0.364 -0.364,0.812 -0.084,0.42 -0.084,0.868 0,0.616 0.168,1.232 0.196,0.588 0.476,1.148 0.28,0.532 0.616,1.064 0.336,0.504 0.672,1.008 0.336,0.504 0.644,1.036 0.336,0.504 0.644,1.036 l 2.52,4.256 1.148,-2.968 h 2.156 l -1.68,4.312 q -0.084,0.224 -0.168,0.448 -0.084,0.196 -0.168,0.392 l 2.072,3.5 h -2.38 l -1.008,-1.708 q -0.392,0.532 -0.924,0.98 -0.504,0.448 -1.148,0.672 -0.392,0.14 -0.812,0.196 -0.42,0.084 -0.84,0.084 z m 0.196,-1.904 q 0.392,0 0.784,-0.112 0.392,-0.14 0.7,-0.364 0.336,-0.224 0.588,-0.532 0.28,-0.308 0.476,-0.672 l -3.304,-5.6 q -0.056,-0.084 -0.112,-0.168 -0.028,-0.084 -0.084,-0.168 -0.42,0.42 -0.784,0.868 -0.364,0.42 -0.644,0.924 -0.28,0.504 -0.42,1.064 -0.14,0.56 -0.14,1.12 0,0.448 0.056,0.896 0.084,0.42 0.224,0.84 0.168,0.392 0.42,0.784 0.252,0.364 0.588,0.644 0.364,0.252 0.784,0.364 0.42,0.112 0.868,0.112 z m 28.14,5.684 v -27.048 h 2.184 v 27.048 z m 12.32,0 v -27.048 h 2.184 v 27.048 z m 38.556,0 11.228,-27.048 h 2.296 l -11.228,27.048 z m 22.456,0 -11.228,-27.048 h 2.296 l 11.228,27.048 z m 44.772,0 -11.228,-27.048 h 2.296 l 11.228,27.048 z m 0,0 11.228,-27.048 h 2.296 l -11.228,27.048 z m 56.308,-12.6 h -11.368 v -1.848 h 11.368 v 0.308 h 1.68 v -0.308 h 3.332 v 1.848 h -3.332 v -0.308 h -1.68 z m 6.748,12.6 v -27.048 h 2.184 v 27.048 z"
       id="path227" />
  </g>
</svg>
