<?xml version="1.0" encoding="UTF-8" standalone="no"?>
<svg width="1142" height="3266" viewBox="0 0 1142 3266" xmlns="http://www.w3.org/2000/svg">
  <rect x="0.5" y="0.5" width="1141" height="3265" rx="16" fill="#0b1113" stroke="#28343a" />
  <text x="24" y="46" font-family="sans-serif" font-size="22" font-weight="600" fill="#dee4e3">All zero variants</text>
  <text x="24" y="68" font-family="sans-serif" font-size="14" fill="#b8c4c2">54 upstream Iosevka zero variants, extracted from preview assets</text>

  <g transform="translate(24 68)">
    <rect x="0.5" y="0.5" width="259" height="209" rx="12" fill="#10181b" stroke="#28343a" />
  </g>
  <g transform="translate(90 88)">
    <path d="M 250 8 Q 223 8 196.5 2.5 Q 170 -3 146.5 -16 Q 123 -29 104.5 -49.5 Q 86 -70 75 -94.5 Q 64 -119 60 -146 Q 56 -173 56 -200 L 56 -535 Q 56 -562 60 -589 Q 64 -616 75 -640.5 Q 86 -665 104.5 -685.5 Q 123 -706 146.5 -719 Q 170 -732 196.5 -737.5 Q 223 -743 250 -743 Q 277 -743 303.5 -737.5 Q 330 -732 353.5 -719 Q 377 -706 395.5 -685.5 Q 414 -665 425 -640.5 Q 436 -616 440 -589 Q 444 -562 444 -535 L 444 -200 Q 444 -173 440 -146 Q 436 -119 425 -94.5 Q 414 -70 395.5 -49.5 Q 377 -29 353.5 -16 Q 330 -3 303.5 2.5 Q 277 8 250 8 Z M 250 -62 Q 271 -62 291 -68.5 Q 311 -75 327 -89 L 236 -312 L 308 -312 L 365 -172 Q 366 -179 366 -186 Q 366 -193 366 -200 L 366 -535 Q 366 -552 364 -569 Q 362 -586 356 -602 Q 350 -618 339.5 -632 Q 329 -646 315 -655.5 Q 301 -665 284 -669 Q 267 -673 250 -673 Q 229 -673 209 -666.5 Q 189 -660 173 -646 L 264 -423 L 192 -423 L 135 -563 Q 134 -556 134 -549 Q 134 -542 134 -535 L 134 -200 Q 134 -183 136 -166 Q 138 -149 144 -133 Q 150 -117 160.5 -103 Q 171 -89 185 -79.5 Q 199 -70 216 -66 Q 233 -62 250 -62 Z " transform="translate(40 104.99201) rotate(0) scale(0.09599999)" fill="#dee4e3" />
  </g>
  <text x="154" y="232" text-anchor="middle" font-family="sans-serif" font-size="16" fill="#b8c4c2">broken-reverse-slash</text>

  <g transform="translate(302 68)">
    <rect x="0.5" y="0.5" width="259" height="209" rx="12" fill="#10181b" stroke="#28343a" />
  </g>
  <g transform="translate(368 88)">
    <path d="M 250 8 Q 223 8 196.5 2.5 Q 170 -3 146.5 -16 Q 123 -29 104.5 -49.5 Q 86 -70 75 -94.5 Q 64 -119 60 -146 Q 56 -173 56 -200 L 56 -535 Q 56 -562 60 -589 Q 64 -616 75 -640.5 Q 86 -665 104.5 -685.5 Q 123 -706 146.5 -719 Q 170 -732 196.5 -737.5 Q 223 -743 250 -743 Q 277 -743 303.5 -737.5 Q 330 -732 353.5 -719 Q 377 -706 395.5 -685.5 Q 414 -665 425 -640.5 Q 436 -616 440 -589 Q 444 -562 444 -535 L 444 -200 Q 444 -173 440 -146 Q 436 -119 425 -94.5 Q 414 -70 395.5 -49.5 Q 377 -29 353.5 -16 Q 330 -3 303.5 2.5 Q 277 8 250 8 Z M 250 -62 Q 267 -62 284 -66 Q 301 -70 315 -79.5 Q 329 -89 339.5 -103 Q 350 -117 356 -133 Q 362 -149 364 -166 Q 366 -183 366 -200 L 366 -535 Q 366 -542 366 -549 Q 366 -556 365 -563 L 308 -423 L 236 -423 Q 259 -479 281.5 -534.5 Q 304 -590 327 -646 Q 311 -660 291 -666.5 Q 271 -673 250 -673 Q 233 -673 216 -669 Q 199 -665 185 -655.5 Q 171 -646 160.5 -632 Q 150 -618 144 -602 Q 138 -586 136 -569 Q 134 -552 134 -535 L 134 -200 Q 134 -193 134 -186 Q 134 -179 135 -172 L 192 -312 L 264 -312 L 173 -89 Q 189 -75 209 -68.5 Q 229 -62 250 -62 Z " transform="translate(40 104.99201) rotate(0) scale(0.09599999)" fill="#dee4e3" />
  </g>
  <text x="432" y="232" text-anchor="middle" font-family="sans-serif" font-size="16" fill="#b8c4c2">broken-slash</text>

  <g transform="translate(580 68)">
    <rect x="0.5" y="0.5" width="259" height="209" rx="12" fill="#10181b" stroke="#28343a" />
  </g>
  <g transform="translate(646 88)">
    <path d="M 250 8 Q 223 8 196.5 2.5 Q 170 -3 146.5 -16 Q 123 -29 104.5 -49.5 Q 86 -70 75 -94.5 Q 64 -119 60 -146 Q 56 -173 56 -200 L 56 -535 Q 56 -562 60 -589 Q 64 -616 75 -640.5 Q 86 -665 104.5 -685.5 Q 123 -706 146.5 -719 Q 170 -732 196.5 -737.5 Q 223 -743 250 -743 Q 277 -743 303.5 -737.5 Q 330 -732 353.5 -719 Q 377 -706 395.5 -685.5 Q 414 -665 425 -640.5 Q 436 -616 440 -589 Q 444 -562 444 -535 L 444 -200 Q 444 -173 440 -146 Q 436 -119 425 -94.5 Q 414 -70 395.5 -49.5 Q 377 -29 353.5 -16 Q 330 -3 303.5 2.5 Q 277 8 250 8 Z M 216 -66 L 216 -322 L 284 -322 L 284 -66 Q 305 -71 322 -85 Q 339 -99 349 -117.5 Q 359 -136 362.5 -157.5 Q 366 -179 366 -200 L 366 -535 Q 366 -556 362.5 -577.5 Q 359 -599 349 -617.5 Q 339 -636 322 -650 Q 305 -664 284 -669 L 284 -413 L 216 -413 L 216 -669 Q 195 -664 178 -650 Q 161 -636 151 -617.5 Q 141 -599 137.5 -577.5 Q 134 -556 134 -535 L 134 -200 Q 134 -179 137.5 -157.5 Q 141 -136 151 -117.5 Q 161 -99 178 -85 Q 195 -71 216 -66 Z " transform="translate(40 104.99201) rotate(0) scale(0.09599999)" fill="#dee4e3" />
  </g>
  <text x="710" y="232" text-anchor="middle" font-family="sans-serif" font-size="16" fill="#b8c4c2">broken-vertical-bar</text>

  <g transform="translate(858 68)">
    <rect x="0.5" y="0.5" width="259" height="209" rx="12" fill="#10181b" stroke="#28343a" />
  </g>
  <g transform="translate(924 88)">
    <path d="M 250 8 Q 231 8 212.5 5 Q 194 2 179 -9 Q 164 -20 155 -37 Q 146 -54 140 -71 L 92 -211 L 92 -212 L 91 -212 Q 85 -231 78.5 -250 Q 72 -269 67 -288.5 Q 62 -308 59 -327.5 Q 56 -347 56 -367 Q 56 -388 59 -407.5 Q 62 -427 67 -446.5 Q 72 -466 78.5 -485 Q 85 -504 91 -523 L 92 -523 L 92 -524 L 140 -664 Q 146 -681 155 -698 Q 164 -715 179 -726 Q 194 -737 212.5 -740 Q 231 -743 250 -743 Q 269 -743 287.5 -740 Q 306 -737 321 -726 Q 336 -715 345 -698 Q 354 -681 360 -664 L 408 -524 L 408 -523 L 409 -523 Q 415 -504 421.5 -485 Q 428 -466 433 -446.5 Q 438 -427 441 -407.5 Q 444 -388 444 -368 Q 444 -347 441 -327.5 Q 438 -308 433 -288.5 Q 428 -269 421.5 -250 Q 415 -231 409 -212 L 408 -212 L 408 -211 L 360 -71 Q 354 -54 345 -37 Q 336 -20 321 -9 Q 306 2 287.5 5 Q 269 8 250 8 Z M 250 -57 Q 257 -57 264.5 -59 Q 272 -61 277.5 -66 Q 283 -71 286 -78 Q 289 -85 291 -92 L 306 -139 L 236 -312 L 308 -312 L 338 -238 Q 348 -270 357 -302 Q 366 -334 366 -367 Q 366 -385 363.5 -402 Q 361 -419 356.5 -436 Q 352 -453 347 -469.5 Q 342 -486 336 -503 L 291 -643 Q 289 -650 286 -657 Q 283 -664 277.5 -669 Q 272 -674 264.5 -676 Q 257 -678 250 -678 Q 243 -678 235.5 -676 Q 228 -674 222.5 -669 Q 217 -664 214 -657 Q 211 -650 209 -643 L 194 -596 L 264 -423 L 192 -423 L 162 -497 Q 152 -465 143 -433 Q 134 -401 134 -368 Q 134 -350 136.5 -333 Q 139 -316 143.5 -299 Q 148 -282 153 -265.5 Q 158 -249 164 -232 L 209 -92 Q 211 -85 214 -78 Q 217 -71 222.5 -66 Q 228 -61 235.5 -59 Q 243 -57 250 -57 Z " transform="translate(40 104.99201) rotate(0) scale(0.09599999)" fill="#dee4e3" />
  </g>
  <text x="988" y="232" text-anchor="middle" font-family="sans-serif" font-size="16" fill="#b8c4c2">diamond-broken-reverse-slash</text>

  <g transform="translate(24 296)">
    <rect x="0.5" y="0.5" width="259" height="209" rx="12" fill="#10181b" stroke="#28343a" />
  </g>
  <g transform="translate(90 316)">
    <path d="M 250 8 Q 231 8 212.5 5 Q 194 2 179 -9 Q 164 -20 155 -37 Q 146 -54 140 -71 L 92 -211 L 92 -212 L 91 -212 Q 85 -231 78.5 -250 Q 72 -269 67 -288.5 Q 62 -308 59 -327.5 Q 56 -347 56 -367 Q 56 -388 59 -407.5 Q 62 -427 67 -446.5 Q 72 -466 78.5 -485 Q 85 -504 91 -523 L 92 -523 L 92 -524 L 140 -664 Q 146 -681 155 -698 Q 164 -715 179 -726 Q 194 -737 212.5 -740 Q 231 -743 250 -743 Q 269 -743 287.5 -740 Q 306 -737 321 -726 Q 336 -715 345 -698 Q 354 -681 360 -664 L 408 -524 L 408 -523 L 409 -523 Q 415 -504 421.5 -485 Q 428 -466 433 -446.5 Q 438 -427 441 -407.5 Q 444 -388 444 -368 Q 444 -347 441 -327.5 Q 438 -308 433 -288.5 Q 428 -269 421.5 -250 Q 415 -231 409 -212 L 408 -212 L 408 -211 L 360 -71 Q 354 -54 345 -37 Q 336 -20 321 -9 Q 306 2 287.5 5 Q 269 8 250 8 Z M 250 -57 Q 257 -57 264.5 -59 Q 272 -61 277.5 -66 Q 283 -71 286 -78 Q 289 -85 291 -92 L 336 -232 Q 342 -249 347 -265.5 Q 352 -282 356.5 -299 Q 361 -316 363.5 -333 Q 366 -350 366 -367 Q 366 -401 357 -433 Q 348 -465 338 -497 L 308 -423 L 236 -423 Q 254 -466 271.5 -509.5 Q 289 -553 306 -596 L 291 -643 Q 289 -650 286 -657 Q 283 -664 277.5 -669 Q 272 -674 264.5 -676 Q 257 -678 250 -678 Q 243 -678 235.5 -676 Q 228 -674 222.5 -669 Q 217 -664 214 -657 Q 211 -650 209 -643 L 164 -503 Q 158 -486 153 -469.5 Q 148 -453 143.5 -436 Q 139 -419 136.5 -402 Q 134 -385 134 -368 Q 134 -334 143 -302 Q 152 -270 162 -238 L 192 -312 L 264 -312 L 194 -139 L 209 -92 Q 211 -85 214 -78 Q 217 -71 222.5 -66 Q 228 -61 235.5 -59 Q 243 -57 250 -57 Z " transform="translate(40 104.99201) rotate(0) scale(0.09599999)" fill="#dee4e3" />
  </g>
  <text x="154" y="460" text-anchor="middle" font-family="sans-serif" font-size="16" fill="#b8c4c2">diamond-broken-slash</text>

  <g transform="translate(302 296)">
    <rect x="0.5" y="0.5" width="259" height="209" rx="12" fill="#10181b" stroke="#28343a" />
  </g>
  <g transform="translate(368 316)">
    <path d="M 250 8 Q 231 8 212.5 5 Q 194 2 179 -9 Q 164 -20 155 -37 Q 146 -54 140 -71 L 92 -211 L 92 -212 L 91 -212 Q 85 -231 78.5 -250 Q 72 -269 67 -288.5 Q 62 -308 59 -327.5 Q 56 -347 56 -367 Q 56 -388 59 -407.5 Q 62 -427 67 -446.5 Q 72 -466 78.5 -485 Q 85 -504 91 -523 L 92 -523 L 92 -524 L 140 -664 Q 146 -681 155 -698 Q 164 -715 179 -726 Q 194 -737 212.5 -740 Q 231 -743 250 -743 Q 269 -743 287.5 -740 Q 306 -737 321 -726 Q 336 -715 345 -698 Q 354 -681 360 -664 L 408 -524 L 408 -523 L 409 -523 Q 415 -504 421.5 -485 Q 428 -466 433 -446.5 Q 438 -427 441 -407.5 Q 444 -388 444 -368 Q 444 -347 441 -327.5 Q 438 -308 433 -288.5 Q 428 -269 421.5 -250 Q 415 -231 409 -212 L 408 -212 L 408 -211 L 360 -71 Q 354 -54 345 -37 Q 336 -20 321 -9 Q 306 2 287.5 5 Q 269 8 250 8 Z M 216 -74 L 216 -322 L 284 -322 L 284 -74 Q 286 -78 288 -82.5 Q 290 -87 291 -92 L 336 -232 Q 342 -249 347 -265.5 Q 352 -282 356.5 -299 Q 361 -316 363.5 -333 Q 366 -350 366 -367 Q 366 -385 363.5 -402 Q 361 -419 356.5 -436 Q 352 -453 347 -469.5 Q 342 -486 336 -503 L 291 -643 Q 290 -648 288 -652.5 Q 286 -657 284 -661 L 284 -413 L 216 -413 L 216 -661 Q 214 -657 212 -652.5 Q 210 -648 209 -643 L 164 -503 Q 158 -486 153 -469.5 Q 148 -453 143.5 -436 Q 139 -419 136.5 -402 Q 134 -385 134 -368 Q 134 -350 136.5 -333 Q 139 -316 143.5 -299 Q 148 -282 153 -265.5 Q 158 -249 164 -232 L 209 -92 Q 210 -87 212 -82.5 Q 214 -78 216 -74 Z " transform="translate(40 104.99201) rotate(0) scale(0.09599999)" fill="#dee4e3" />
  </g>
  <text x="432" y="460" text-anchor="middle" font-family="sans-serif" font-size="16" fill="#b8c4c2">diamond-broken-vertical-bar</text>

  <g transform="translate(580 296)">
    <rect x="0.5" y="0.5" width="259" height="209" rx="12" fill="#10181b" stroke="#28343a" />
  </g>
  <g transform="translate(646 316)">
    <path d="M 250 8 Q 231 8 212.5 5 Q 194 2 179 -9 Q 164 -20 155 -37 Q 146 -54 140 -71 L 92 -211 L 92 -212 L 91 -212 Q 85 -231 78.5 -250 Q 72 -269 67 -288.5 Q 62 -308 59 -327.5 Q 56 -347 56 -367 Q 56 -388 59 -407.5 Q 62 -427 67 -446.5 Q 72 -466 78.5 -485 Q 85 -504 91 -523 L 92 -523 L 92 -524 L 140 -664 Q 146 -681 155 -698 Q 164 -715 179 -726 Q 194 -737 212.5 -740 Q 231 -743 250 -743 Q 269 -743 287.5 -740 Q 306 -737 321 -726 Q 336 -715 345 -698 Q 354 -681 360 -664 L 408 -524 L 408 -523 L 409 -523 Q 415 -504 421.5 -485 Q 428 -466 433 -446.5 Q 438 -427 441 -407.5 Q 444 -388 444 -368 Q 444 -347 441 -327.5 Q 438 -308 433 -288.5 Q 428 -269 421.5 -250 Q 415 -231 409 -212 L 408 -212 L 408 -211 L 360 -71 Q 354 -54 345 -37 Q 336 -20 321 -9 Q 306 2 287.5 5 Q 269 8 250 8 Z M 250 -57 Q 257 -57 264.5 -59 Q 272 -61 277.5 -66 Q 283 -71 286 -78 Q 289 -85 291 -92 L 336 -232 Q 342 -249 347 -265.5 Q 352 -282 356.5 -299 Q 361 -316 363.5 -333 Q 366 -350 366 -367 Q 366 -385 363.5 -402 Q 361 -419 356.5 -436 Q 352 -453 347 -469.5 Q 342 -486 336 -503 L 291 -643 Q 289 -650 286 -657 Q 283 -664 277.5 -669 Q 272 -674 264.5 -676 Q 257 -678 250 -678 Q 243 -678 235.5 -676 Q 228 -674 222.5 -669 Q 217 -664 214 -657 Q 211 -650 209 -643 L 164 -503 Q 158 -486 153 -469.5 Q 148 -453 143.5 -436 Q 139 -419 136.5 -402 Q 134 -385 134 -368 Q 134 -350 136.5 -333 Q 139 -316 143.5 -299 Q 148 -282 153 -265.5 Q 158 -249 164 -232 L 209 -92 Q 211 -85 214 -78 Q 217 -71 222.5 -66 Q 228 -61 235.5 -59 Q 243 -57 250 -57 Z M 250 -305 Q 238 -305 227 -309.5 Q 216 -314 208.5 -323 Q 201 -332 198.5 -343.5 Q 196 -355 196 -367 L 196 -368 Q 196 -380 198.5 -391.5 Q 201 -403 208.5 -412 Q 216 -421 227 -425.5 Q 238 -430 250 -430 Q 262 -430 273 -425.5 Q 284 -421 291.5 -412 Q 299 -403 301.5 -391.5 Q 304 -380 304 -368 L 304 -367 Q 304 -355 301.5 -343.5 Q 299 -332 291.5 -323 Q 284 -314 273 -309.5 Q 262 -305 250 -305 Z " transform="translate(40 104.99201) rotate(0) scale(0.09599999)" fill="#dee4e3" />
  </g>
  <text x="710" y="460" text-anchor="middle" font-family="sans-serif" font-size="16" fill="#b8c4c2">diamond-dotted</text>

  <g transform="translate(858 296)">
    <rect x="0.5" y="0.5" width="259" height="209" rx="12" fill="#10181b" stroke="#28343a" />
  </g>
  <g transform="translate(924 316)">
    <path d="M 250 8 Q 231 8 212.5 5 Q 194 2 179 -9 Q 164 -20 155 -37 Q 146 -54 140 -71 L 92 -211 L 92 -212 L 91 -212 Q 85 -231 78.5 -250 Q 72 -269 67 -288.5 Q 62 -308 59 -327.5 Q 56 -347 56 -367 Q 56 -388 59 -407.5 Q 62 -427 67 -446.5 Q 72 -466 78.5 -485 Q 85 -504 91 -523 L 92 -523 L 92 -524 L 140 -664 Q 146 -681 155 -698 Q 164 -715 179 -726 Q 194 -737 212.5 -740 Q 231 -743 250 -743 Q 269 -743 287.5 -740 Q 306 -737 321 -726 Q 336 -715 345 -698 Q 354 -681 360 -664 L 408 -524 L 408 -523 L 409 -523 Q 415 -504 421.5 -485 Q 428 -466 433 -446.5 Q 438 -427 441 -407.5 Q 444 -388 444 -368 Q 444 -347 441 -327.5 Q 438 -308 433 -288.5 Q 428 -269 421.5 -250 Q 415 -231 409 -212 L 408 -212 L 408 -211 L 360 -71 Q 354 -54 345 -37 Q 336 -20 321 -9 Q 306 2 287.5 5 Q 269 8 250 8 Z M 250 -57 Q 257 -57 264.5 -59 Q 272 -61 277.5 -66 Q 283 -71 286 -78 Q 289 -85 291 -92 L 336 -232 Q 342 -249 347 -265.5 Q 352 -282 356.5 -299 Q 361 -316 363.5 -333 Q 366 -350 366 -367 Q 366 -385 363.5 -402 Q 361 -419 356.5 -436 Q 352 -453 347 -469.5 Q 342 -486 336 -503 L 291 -643 Q 289 -650 286 -657 Q 283 -664 277.5 -669 Q 272 -674 264.5 -676 Q 257 -678 250 -678 Q 243 -678 235.5 -676 Q 228 -674 222.5 -669 Q 217 -664 214 -657 Q 211 -650 209 -643 L 164 -503 Q 158 -486 153 -469.5 Q 148 -453 143.5 -436 Q 139 -419 136.5 -402 Q 134 -385 134 -368 Q 134 -350 136.5 -333 Q 139 -316 143.5 -299 Q 148 -282 153 -265.5 Q 158 -249 164 -232 L 209 -92 Q 211 -85 214 -78 Q 217 -71 222.5 -66 Q 228 -61 235.5 -59 Q 243 -57 250 -57 Z M 250 -219 Q 242 -219 234.5 -222 Q 227 -225 222.5 -231.5 Q 218 -238 216.5 -246 Q 215 -254 215 -262 L 215 -473 Q 215 -481 216.5 -489 Q 218 -497 222.5 -503.5 Q 227 -510 234.5 -513 Q 242 -516 250 -516 Q 258 -516 265.5 -513 Q 273 -510 277.5 -503.5 Q 282 -497 283.5 -489 Q 285 -481 285 -473 L 285 -262 Q 285 -254 283.5 -246 Q 282 -238 277.5 -231.5 Q 273 -225 265.5 -222 Q 258 -219 250 -219 Z " transform="translate(40 104.99201) rotate(0) scale(0.09599999)" fill="#dee4e3" />
  </g>
  <text x="988" y="460" text-anchor="middle" font-family="sans-serif" font-size="16" fill="#b8c4c2">diamond-long-dotted</text>

  <g transform="translate(24 524)">
    <rect x="0.5" y="0.5" width="259" height="209" rx="12" fill="#10181b" stroke="#28343a" />
  </g>
  <g transform="translate(90 544)">
    <path d="M 250 8 Q 231 8 212.5 5 Q 194 2 179 -9 Q 164 -20 155 -37 Q 146 -54 140 -71 L 92 -211 L 92 -212 L 91 -212 Q 85 -231 78.5 -250 Q 72 -269 67 -288.5 Q 62 -308 59 -327.5 Q 56 -347 56 -367 Q 56 -388 59 -407.5 Q 62 -427 67 -446.5 Q 72 -466 78.5 -485 Q 85 -504 91 -523 L 92 -523 L 92 -524 L 140 -664 Q 146 -681 155 -698 Q 164 -715 179 -726 Q 194 -737 212.5 -740 Q 231 -743 250 -743 Q 269 -743 287.5 -740 Q 306 -737 321 -726 Q 336 -715 345 -698 Q 354 -681 360 -664 L 408 -524 L 408 -523 L 409 -523 Q 415 -504 421.5 -485 Q 428 -466 433 -446.5 Q 438 -427 441 -407.5 Q 444 -388 444 -368 Q 444 -347 441 -327.5 Q 438 -308 433 -288.5 Q 428 -269 421.5 -250 Q 415 -231 409 -212 L 408 -212 L 408 -211 L 360 -71 Q 354 -54 345 -37 Q 336 -20 321 -9 Q 306 2 287.5 5 Q 269 8 250 8 Z M 361 -320 Q 364 -332 365 -343.5 Q 366 -355 366 -367 Q 366 -385 363.5 -402 Q 361 -419 356.5 -436 Q 352 -453 347 -469.5 Q 342 -486 336 -503 L 291 -643 Q 289 -650 286 -657 Q 283 -664 277.5 -669 Q 272 -674 264.5 -676 Q 257 -678 250 -678 Q 243 -678 235.5 -676 Q 228 -674 222.5 -669 Q 217 -664 214 -657 Q 211 -650 209 -643 L 164 -503 Q 162 -497 160.5 -492 Q 159 -487 157 -482 Z M 250 -57 Q 257 -57 264.5 -59 Q 272 -61 277.5 -66 Q 283 -71 286 -78 Q 289 -85 291 -92 L 336 -232 Q 338 -238 339.5 -243 Q 341 -248 343 -253 L 139 -415 Q 136 -403 135 -391.5 Q 134 -380 134 -368 Q 134 -350 136.5 -333 Q 139 -316 143.5 -299 Q 148 -282 153 -265.5 Q 158 -249 164 -232 L 209 -92 Q 211 -85 214 -78 Q 217 -71 222.5 -66 Q 228 -61 235.5 -59 Q 243 -57 250 -57 Z " transform="translate(40 104.99201) rotate(0) scale(0.09599999)" fill="#dee4e3" />
  </g>
  <text x="154" y="688" text-anchor="middle" font-family="sans-serif" font-size="16" fill="#b8c4c2">diamond-reverse-slashed</text>

  <g transform="translate(302 524)">
    <rect x="0.5" y="0.5" width="259" height="209" rx="12" fill="#10181b" stroke="#28343a" />
  </g>
  <g transform="translate(368 544)">
    <path d="M 429 -274 L 363 -327 Q 364 -337 365 -347 Q 366 -357 366 -367 Q 366 -385 363.5 -402 Q 361 -419 356.5 -436 Q 352 -453 347 -469.5 Q 342 -486 336 -503 L 291 -643 Q 289 -650 286 -657 Q 283 -664 277.5 -669 Q 272 -674 264.5 -676 Q 257 -678 250 -678 Q 243 -678 235.5 -676 Q 228 -674 222.5 -669 Q 217 -664 214 -657 Q 211 -650 209 -643 L 164 -503 Q 163 -499 161.5 -495.5 Q 160 -492 159 -489 L 97 -538 L 140 -664 Q 146 -681 155 -698 Q 164 -715 179 -726 Q 194 -737 212.5 -740 Q 231 -743 250 -743 Q 269 -743 287.5 -740 Q 306 -737 321 -726 Q 336 -715 345 -698 Q 354 -681 360 -664 L 408 -524 L 409 -523 Q 415 -504 421.5 -485 Q 428 -466 433 -446.5 Q 438 -427 441 -407.5 Q 444 -388 444 -368 Q 444 -344 439.5 -320.5 Q 435 -297 429 -274 Z M 250 8 Q 231 8 212.5 5 Q 194 2 179 -9 Q 164 -20 155 -37 Q 146 -54 140 -71 L 92 -211 L 91 -212 Q 85 -231 78.5 -250 Q 72 -269 67 -288.5 Q 62 -308 59 -327.5 Q 56 -347 56 -367 Q 56 -391 60.5 -414.5 Q 65 -438 71 -461 L 137 -408 Q 136 -398 135 -388 Q 134 -378 134 -368 Q 134 -350 136.5 -333 Q 139 -316 143.5 -299 Q 148 -282 153 -265.5 Q 158 -249 164 -232 L 209 -92 Q 211 -85 214 -78 Q 217 -71 222.5 -66 Q 228 -61 235.5 -59 Q 243 -57 250 -57 Q 257 -57 264.5 -59 Q 272 -61 277.5 -66 Q 283 -71 286 -78 Q 289 -85 291 -92 L 336 -232 Q 337 -236 338.5 -239.5 Q 340 -243 341 -246 L 403 -197 L 360 -71 Q 354 -54 345 -37 Q 336 -20 321 -9 Q 306 2 287.5 5 Q 269 8 250 8 Z " transform="translate(40 104.99201) rotate(0) scale(0.09599999)" fill="#dee4e3" />
  </g>
  <text x="432" y="688" text-anchor="middle" font-family="sans-serif" font-size="16" fill="#b8c4c2">diamond-reverse-slashed-cutout</text>

  <g transform="translate(580 524)">
    <rect x="0.5" y="0.5" width="259" height="209" rx="12" fill="#10181b" stroke="#28343a" />
  </g>
  <g transform="translate(646 544)">
    <path d="M 250 8 Q 231 8 212.5 5 Q 194 2 179 -9 Q 164 -20 155 -37 Q 146 -54 140 -71 L 92 -211 L 92 -212 L 91 -212 Q 85 -231 78.5 -250 Q 72 -269 67 -288.5 Q 62 -308 59 -327.5 Q 56 -347 56 -367 Q 56 -388 59 -407.5 Q 62 -427 67 -446.5 Q 72 -466 78.5 -485 Q 85 -504 91 -523 L 92 -523 L 92 -524 L 140 -664 Q 146 -681 155 -698 Q 164 -715 179 -726 Q 194 -737 212.5 -740 Q 231 -743 250 -743 Q 269 -743 287.5 -740 Q 306 -737 321 -726 Q 336 -715 345 -698 Q 354 -681 360 -664 L 408 -524 L 408 -523 L 409 -523 Q 415 -504 421.5 -485 Q 428 -466 433 -446.5 Q 438 -427 441 -407.5 Q 444 -388 444 -368 Q 444 -347 441 -327.5 Q 438 -308 433 -288.5 Q 428 -269 421.5 -250 Q 415 -231 409 -212 L 408 -212 L 408 -211 L 360 -71 Q 354 -54 345 -37 Q 336 -20 321 -9 Q 306 2 287.5 5 Q 269 8 250 8 Z M 250 -57 Q 257 -57 264.5 -59 Q 272 -61 277.5 -66 Q 283 -71 286 -78 Q 289 -85 291 -92 L 336 -232 Q 342 -249 347 -265.5 Q 352 -282 356.5 -299 Q 361 -316 363.5 -333 Q 366 -350 366 -367 Q 366 -385 363.5 -402 Q 361 -419 356.5 -436 Q 352 -453 347 -469.5 Q 342 -486 336 -503 L 291 -643 Q 289 -650 286 -657 Q 283 -664 277.5 -669 Q 272 -674 264.5 -676 Q 257 -678 250 -678 Q 243 -678 235.5 -676 Q 228 -674 222.5 -669 Q 217 -664 214 -657 Q 211 -650 209 -643 L 164 -503 Q 158 -486 153 -469.5 Q 148 -453 143.5 -436 Q 139 -419 136.5 -402 Q 134 -385 134 -368 Q 134 -350 136.5 -333 Q 139 -316 143.5 -299 Q 148 -282 153 -265.5 Q 158 -249 164 -232 L 209 -92 Q 211 -85 214 -78 Q 217 -71 222.5 -66 Q 228 -61 235.5 -59 Q 243 -57 250 -57 Z M 295 -291 L 195 -371 Q 195 -389 198 -407.5 Q 201 -426 205 -444 L 305 -364 Q 305 -346 302 -327.5 Q 299 -309 295 -291 Z " transform="translate(40 104.99201) rotate(0) scale(0.09599999)" fill="#dee4e3" />
  </g>
  <text x="710" y="688" text-anchor="middle" font-family="sans-serif" font-size="16" fill="#b8c4c2">diamond-reverse-slashed-split</text>

  <g transform="translate(858 524)">
    <rect x="0.5" y="0.5" width="259" height="209" rx="12" fill="#10181b" stroke="#28343a" />
  </g>
  <g transform="translate(924 544)">
    <path d="M 250 8 Q 231 8 212.5 5 Q 194 2 179 -9 Q 164 -20 155 -37 Q 146 -54 140 -71 L 92 -211 L 92 -212 L 91 -212 Q 85 -231 78.5 -250 Q 72 -269 67 -288.5 Q 62 -308 59 -327.5 Q 56 -347 56 -367 Q 56 -388 59 -407.5 Q 62 -427 67 -446.5 Q 72 -466 78.5 -485 Q 85 -504 91 -523 L 92 -523 L 92 -524 L 140 -664 Q 146 -681 155 -698 Q 164 -715 179 -726 Q 194 -737 212.5 -740 Q 231 -743 250 -743 Q 269 -743 287.5 -740 Q 306 -737 321 -726 Q 336 -715 345 -698 Q 354 -681 360 -664 L 408 -524 L 408 -523 L 409 -523 Q 415 -504 421.5 -485 Q 428 -466 433 -446.5 Q 438 -427 441 -407.5 Q 444 -388 444 -368 Q 444 -347 441 -327.5 Q 438 -308 433 -288.5 Q 428 -269 421.5 -250 Q 415 -231 409 -212 L 408 -212 L 408 -211 L 360 -71 Q 354 -54 345 -37 Q 336 -20 321 -9 Q 306 2 287.5 5 Q 269 8 250 8 Z M 139 -320 L 343 -482 Q 341 -487 339.5 -492 Q 338 -497 336 -503 L 291 -643 Q 289 -650 286 -657 Q 283 -664 277.5 -669 Q 272 -674 264.5 -676 Q 257 -678 250 -678 Q 243 -678 235.5 -676 Q 228 -674 222.5 -669 Q 217 -664 214 -657 Q 211 -650 209 -643 L 164 -503 Q 158 -486 153 -469.5 Q 148 -453 143.5 -436 Q 139 -419 136.5 -402 Q 134 -385 134 -368 Q 134 -355 135 -343.5 Q 136 -332 139 -320 Z M 250 -57 Q 257 -57 264.5 -59 Q 272 -61 277.5 -66 Q 283 -71 286 -78 Q 289 -85 291 -92 L 336 -232 Q 342 -249 347 -265.5 Q 352 -282 356.5 -299 Q 361 -316 363.5 -333 Q 366 -350 366 -367 Q 366 -380 365 -391.5 Q 364 -403 361 -415 L 157 -253 Q 159 -248 160.5 -243 Q 162 -238 164 -232 L 209 -92 Q 211 -85 214 -78 Q 217 -71 222.5 -66 Q 228 -61 235.5 -59 Q 243 -57 250 -57 Z " transform="translate(40 104.99201) rotate(0) scale(0.09599999)" fill="#dee4e3" />
  </g>
  <text x="988" y="688" text-anchor="middle" font-family="sans-serif" font-size="16" fill="#b8c4c2">diamond-slashed</text>

  <g transform="translate(24 752)">
    <rect x="0.5" y="0.5" width="259" height="209" rx="12" fill="#10181b" stroke="#28343a" />
  </g>
  <g transform="translate(90 772)">
    <path d="M 71 -274 Q 65 -297 60.5 -320.5 Q 56 -344 56 -367 Q 56 -388 59 -407.5 Q 62 -427 67 -446.5 Q 72 -466 78.5 -485 Q 85 -504 91 -523 L 92 -523 L 92 -524 L 140 -664 Q 146 -681 155 -698 Q 164 -715 179 -726 Q 194 -737 212.5 -740 Q 231 -743 250 -743 Q 269 -743 287.5 -740 Q 306 -737 321 -726 Q 336 -715 345 -698 Q 354 -681 360 -664 L 403 -538 L 341 -489 Q 340 -492 338.5 -495.5 Q 337 -499 336 -503 L 291 -643 Q 289 -650 286 -657 Q 283 -664 277.5 -669 Q 272 -674 264.5 -676 Q 257 -678 250 -678 Q 243 -678 235.5 -676 Q 228 -674 222.5 -669 Q 217 -664 214 -657 Q 211 -650 209 -643 L 164 -503 Q 158 -486 153 -469.5 Q 148 -453 143.5 -436 Q 139 -419 136.5 -402 Q 134 -385 134 -368 Q 134 -357 135 -347 Q 136 -337 137 -327 Z M 250 8 Q 231 8 212.5 5 Q 194 2 179 -9 Q 164 -20 155 -37 Q 146 -54 140 -71 L 97 -197 L 159 -246 Q 160 -243 161.5 -239.5 Q 163 -236 164 -232 L 209 -92 Q 211 -85 214 -78 Q 217 -71 222.5 -66 Q 228 -61 235.5 -59 Q 243 -57 250 -57 Q 257 -57 264.5 -59 Q 272 -61 277.5 -66 Q 283 -71 286 -78 Q 289 -85 291 -92 L 336 -232 Q 342 -249 347 -265.5 Q 352 -282 356.5 -299 Q 361 -316 363.5 -333 Q 366 -350 366 -367 Q 366 -378 365 -388 Q 364 -398 363 -408 L 429 -461 Q 435 -438 439.5 -414.5 Q 444 -391 444 -368 Q 444 -347 441 -327.5 Q 438 -308 433 -288.5 Q 428 -269 421.5 -250 Q 415 -231 409 -212 L 408 -212 L 408 -211 L 360 -71 Q 354 -54 345 -37 Q 336 -20 321 -9 Q 306 2 287.5 5 Q 269 8 250 8 Z " transform="translate(40 104.99201) rotate(0) scale(0.09599999)" fill="#dee4e3" />
  </g>
  <text x="154" y="916" text-anchor="middle" font-family="sans-serif" font-size="16" fill="#b8c4c2">diamond-slashed-cutout</text>

  <g transform="translate(302 752)">
    <rect x="0.5" y="0.5" width="259" height="209" rx="12" fill="#10181b" stroke="#28343a" />
  </g>
  <g transform="translate(368 772)">
    <path d="M 250 8 Q 231 8 212.5 5 Q 194 2 179 -9 Q 164 -20 155 -37 Q 146 -54 140 -71 L 92 -211 L 92 -212 L 91 -212 Q 85 -231 78.5 -250 Q 72 -269 67 -288.5 Q 62 -308 59 -327.5 Q 56 -347 56 -367 Q 56 -388 59 -407.5 Q 62 -427 67 -446.5 Q 72 -466 78.5 -485 Q 85 -504 91 -523 L 92 -523 L 92 -524 L 140 -664 Q 146 -681 155 -698 Q 164 -715 179 -726 Q 194 -737 212.5 -740 Q 231 -743 250 -743 Q 269 -743 287.5 -740 Q 306 -737 321 -726 Q 336 -715 345 -698 Q 354 -681 360 -664 L 408 -524 L 408 -523 L 409 -523 Q 415 -504 421.5 -485 Q 428 -466 433 -446.5 Q 438 -427 441 -407.5 Q 444 -388 444 -368 Q 444 -347 441 -327.5 Q 438 -308 433 -288.5 Q 428 -269 421.5 -250 Q 415 -231 409 -212 L 408 -212 L 408 -211 L 360 -71 Q 354 -54 345 -37 Q 336 -20 321 -9 Q 306 2 287.5 5 Q 269 8 250 8 Z M 250 -57 Q 257 -57 264.5 -59 Q 272 -61 277.5 -66 Q 283 -71 286 -78 Q 289 -85 291 -92 L 336 -232 Q 342 -249 347 -265.5 Q 352 -282 356.5 -299 Q 361 -316 363.5 -333 Q 366 -350 366 -367 Q 366 -385 363.5 -402 Q 361 -419 356.5 -436 Q 352 -453 347 -469.5 Q 342 -486 336 -503 L 291 -643 Q 289 -650 286 -657 Q 283 -664 277.5 -669 Q 272 -674 264.5 -676 Q 257 -678 250 -678 Q 243 -678 235.5 -676 Q 228 -674 222.5 -669 Q 217 -664 214 -657 Q 211 -650 209 -643 L 164 -503 Q 158 -486 153 -469.5 Q 148 -453 143.5 -436 Q 139 -419 136.5 -402 Q 134 -385 134 -368 Q 134 -350 136.5 -333 Q 139 -316 143.5 -299 Q 148 -282 153 -265.5 Q 158 -249 164 -232 L 209 -92 Q 211 -85 214 -78 Q 217 -71 222.5 -66 Q 228 -61 235.5 -59 Q 243 -57 250 -57 Z M 205 -291 Q 201 -309 198 -327.5 Q 195 -346 195 -364 L 295 -444 Q 299 -426 302 -407.5 Q 305 -389 305 -371 Z " transform="translate(40 104.99201) rotate(0) scale(0.09599999)" fill="#dee4e3" />
  </g>
  <text x="432" y="916" text-anchor="middle" font-family="sans-serif" font-size="16" fill="#b8c4c2">diamond-slashed-split</text>

  <g transform="translate(580 752)">
    <rect x="0.5" y="0.5" width="259" height="209" rx="12" fill="#10181b" stroke="#28343a" />
  </g>
  <g transform="translate(646 772)">
    <path d="M 250 8 Q 231 8 212.5 5 Q 194 2 179 -9 Q 164 -20 155 -37 Q 146 -54 140 -71 L 92 -211 L 92 -212 L 91 -212 Q 85 -231 78.5 -250 Q 72 -269 67 -288.5 Q 62 -308 59 -327.5 Q 56 -347 56 -367 Q 56 -388 59 -407.5 Q 62 -427 67 -446.5 Q 72 -466 78.5 -485 Q 85 -504 91 -523 L 92 -523 L 92 -524 L 140 -664 Q 146 -681 155 -698 Q 164 -715 179 -726 Q 194 -737 212.5 -740 Q 231 -743 250 -743 Q 269 -743 287.5 -740 Q 306 -737 321 -726 Q 336 -715 345 -698 Q 354 -681 360 -664 L 408 -524 L 408 -523 L 409 -523 Q 415 -504 421.5 -485 Q 428 -466 433 -446.5 Q 438 -427 441 -407.5 Q 444 -388 444 -368 Q 444 -347 441 -327.5 Q 438 -308 433 -288.5 Q 428 -269 421.5 -250 Q 415 -231 409 -212 L 408 -212 L 408 -211 L 360 -71 Q 354 -54 345 -37 Q 336 -20 321 -9 Q 306 2 287.5 5 Q 269 8 250 8 Z M 351 -278 Q 357 -300 361.5 -322.5 Q 366 -345 366 -367 Q 366 -385 363.5 -402 Q 361 -419 356.5 -436 Q 352 -453 347 -469.5 Q 342 -486 336 -503 L 291 -643 Q 289 -650 286 -657 Q 283 -664 277.5 -669 Q 272 -674 264.5 -676 Q 257 -678 250 -678 Q 243 -678 235.5 -676 Q 228 -674 222.5 -669 Q 217 -664 214 -657 Q 211 -650 209 -643 L 175 -537 Z M 250 -57 Q 257 -57 264.5 -59 Q 272 -61 277.5 -66 Q 283 -71 286 -78 Q 289 -85 291 -92 L 325 -198 L 149 -457 Q 143 -435 138.5 -412.5 Q 134 -390 134 -368 Q 134 -350 136.5 -333 Q 139 -316 143.5 -299 Q 148 -282 153 -265.5 Q 158 -249 164 -232 L 209 -92 Q 211 -85 214 -78 Q 217 -71 222.5 -66 Q 228 -61 235.5 -59 Q 243 -57 250 -57 Z " transform="translate(40 104.99201) rotate(0) scale(0.09599999)" fill="#dee4e3" />
  </g>
  <text x="710" y="916" text-anchor="middle" font-family="sans-serif" font-size="16" fill="#b8c4c2">diamond-tall-reverse-slashed</text>

  <g transform="translate(858 752)">
    <rect x="0.5" y="0.5" width="259" height="209" rx="12" fill="#10181b" stroke="#28343a" />
  </g>
  <g transform="translate(924 772)">
    <path d="M 407 -207 L 353 -286 Q 359 -306 362.5 -326.5 Q 366 -347 366 -367 Q 366 -385 363.5 -402 Q 361 -419 356.5 -436 Q 352 -453 347 -469.5 Q 342 -486 336 -503 L 291 -643 Q 289 -650 286 -657 Q 283 -664 277.5 -669 Q 272 -674 264.5 -676 Q 257 -678 250 -678 Q 243 -678 235.5 -676 Q 228 -674 222.5 -669 Q 217 -664 214 -657 Q 211 -650 209 -643 L 177 -545 L 125 -621 L 140 -664 Q 146 -681 155 -698 Q 164 -715 179 -726 Q 194 -737 212.5 -740 Q 231 -743 250 -743 Q 269 -743 287.5 -740 Q 306 -737 321 -726 Q 336 -715 345 -698 Q 354 -681 360 -664 L 408 -524 L 409 -523 Q 415 -504 421.5 -485 Q 428 -466 433 -446.5 Q 438 -427 441 -407.5 Q 444 -388 444 -368 Q 444 -347 441 -327.5 Q 438 -308 433 -288.5 Q 428 -269 421.5 -250 Q 415 -231 409 -212 L 408 -212 Z M 250 8 Q 231 8 212.5 5 Q 194 2 179 -9 Q 164 -20 155 -37 Q 146 -54 140 -71 L 92 -211 L 91 -212 Q 85 -231 78.5 -250 Q 72 -269 67 -288.5 Q 62 -308 59 -327.5 Q 56 -347 56 -367 Q 56 -388 59 -407.5 Q 62 -427 67 -446.5 Q 72 -466 78.5 -485 Q 85 -504 91 -523 L 92 -523 L 93 -528 L 147 -449 Q 141 -429 137.5 -408.5 Q 134 -388 134 -368 Q 134 -350 136.5 -333 Q 139 -316 143.5 -299 Q 148 -282 153 -265.5 Q 158 -249 164 -232 L 209 -92 Q 211 -85 214 -78 Q 217 -71 222.5 -66 Q 228 -61 235.5 -59 Q 243 -57 250 -57 Q 257 -57 264.5 -59 Q 272 -61 277.5 -66 Q 283 -71 286 -78 Q 289 -85 291 -92 L 323 -190 L 375 -114 L 360 -71 Q 354 -54 345 -37 Q 336 -20 321 -9 Q 306 2 287.5 5 Q 269 8 250 8 Z " transform="translate(40 104.99201) rotate(0) scale(0.09599999)" fill="#dee4e3" />
  </g>
  <text x="988" y="916" text-anchor="middle" font-family="sans-serif" font-size="16" fill="#b8c4c2">diamond-tall-reverse-slashed-cutout</text>

  <g transform="translate(24 980)">
    <rect x="0.5" y="0.5" width="259" height="209" rx="12" fill="#10181b" stroke="#28343a" />
  </g>
  <g transform="translate(90 1000)">
    <path d="M 250 8 Q 231 8 212.5 5 Q 194 2 179 -9 Q 164 -20 155 -37 Q 146 -54 140 -71 L 92 -211 L 92 -212 L 91 -212 Q 85 -231 78.5 -250 Q 72 -269 67 -288.5 Q 62 -308 59 -327.5 Q 56 -347 56 -367 Q 56 -388 59 -407.5 Q 62 -427 67 -446.5 Q 72 -466 78.5 -485 Q 85 -504 91 -523 L 92 -523 L 92 -524 L 140 -664 Q 146 -681 155 -698 Q 164 -715 179 -726 Q 194 -737 212.5 -740 Q 231 -743 250 -743 Q 269 -743 287.5 -740 Q 306 -737 321 -726 Q 336 -715 345 -698 Q 354 -681 360 -664 L 408 -524 L 408 -523 L 409 -523 Q 415 -504 421.5 -485 Q 428 -466 433 -446.5 Q 438 -427 441 -407.5 Q 444 -388 444 -368 Q 444 -347 441 -327.5 Q 438 -308 433 -288.5 Q 428 -269 421.5 -250 Q 415 -231 409 -212 L 408 -212 L 408 -211 L 360 -71 Q 354 -54 345 -37 Q 336 -20 321 -9 Q 306 2 287.5 5 Q 269 8 250 8 Z M 149 -278 L 325 -537 L 291 -643 Q 289 -650 286 -657 Q 283 -664 277.5 -669 Q 272 -674 264.5 -676 Q 257 -678 250 -678 Q 243 -678 235.5 -676 Q 228 -674 222.5 -669 Q 217 -664 214 -657 Q 211 -650 209 -643 L 164 -503 Q 158 -486 153 -469.5 Q 148 -453 143.5 -436 Q 139 -419 136.5 -402 Q 134 -385 134 -368 Q 134 -345 138.5 -322.5 Q 143 -300 149 -278 Z M 250 -57 Q 257 -57 264.5 -59 Q 272 -61 277.5 -66 Q 283 -71 286 -78 Q 289 -85 291 -92 L 336 -232 Q 342 -249 347 -265.5 Q 352 -282 356.5 -299 Q 361 -316 363.5 -333 Q 366 -350 366 -367 Q 366 -390 361.5 -412.5 Q 357 -435 351 -457 L 175 -198 L 209 -92 Q 211 -85 214 -78 Q 217 -71 222.5 -66 Q 228 -61 235.5 -59 Q 243 -57 250 -57 Z " transform="translate(40 104.99201) rotate(0) scale(0.09599999)" fill="#dee4e3" />
  </g>
  <text x="154" y="1144" text-anchor="middle" font-family="sans-serif" font-size="16" fill="#b8c4c2">diamond-tall-slashed</text>

  <g transform="translate(302 980)">
    <rect x="0.5" y="0.5" width="259" height="209" rx="12" fill="#10181b" stroke="#28343a" />
  </g>
  <g transform="translate(368 1000)">
    <path d="M 93 -207 L 92 -211 L 91 -212 Q 85 -231 78.5 -250 Q 72 -269 67 -288.5 Q 62 -308 59 -327.5 Q 56 -347 56 -367 Q 56 -388 59 -407.5 Q 62 -427 67 -446.5 Q 72 -466 78.5 -485 Q 85 -504 91 -523 L 92 -523 L 92 -524 L 140 -664 Q 146 -681 155 -698 Q 164 -715 179 -726 Q 194 -737 212.5 -740 Q 231 -743 250 -743 Q 269 -743 287.5 -740 Q 306 -737 321 -726 Q 336 -715 345 -698 Q 354 -681 360 -664 L 375 -621 L 323 -545 L 291 -643 Q 289 -650 286 -657 Q 283 -664 277.5 -669 Q 272 -674 264.5 -676 Q 257 -678 250 -678 Q 243 -678 235.5 -676 Q 228 -674 222.5 -669 Q 217 -664 214 -657 Q 211 -650 209 -643 L 164 -503 Q 158 -486 153 -469.5 Q 148 -453 143.5 -436 Q 139 -419 136.5 -402 Q 134 -385 134 -368 Q 134 -347 137.5 -326.5 Q 141 -306 147 -286 Z M 250 8 Q 231 8 212.5 5 Q 194 2 179 -9 Q 164 -20 155 -37 Q 146 -54 140 -71 L 125 -114 L 177 -190 L 209 -92 Q 211 -85 214 -78 Q 217 -71 222.5 -66 Q 228 -61 235.5 -59 Q 243 -57 250 -57 Q 257 -57 264.5 -59 Q 272 -61 277.5 -66 Q 283 -71 286 -78 Q 289 -85 291 -92 L 336 -232 Q 342 -249 347 -265.5 Q 352 -282 356.5 -299 Q 361 -316 363.5 -333 Q 366 -350 366 -367 Q 366 -388 362.5 -408.5 Q 359 -429 353 -449 L 407 -528 L 408 -524 L 409 -523 Q 415 -504 421.5 -485 Q 428 -466 433 -446.5 Q 438 -427 441 -407.5 Q 444 -388 444 -368 Q 444 -347 441 -327.5 Q 438 -308 433 -288.5 Q 428 -269 421.5 -250 Q 415 -231 409 -212 L 408 -212 L 408 -211 L 360 -71 Q 354 -54 345 -37 Q 336 -20 321 -9 Q 306 2 287.5 5 Q 269 8 250 8 Z " transform="translate(40 104.99201) rotate(0) scale(0.09599999)" fill="#dee4e3" />
  </g>
  <text x="432" y="1144" text-anchor="middle" font-family="sans-serif" font-size="16" fill="#b8c4c2">diamond-tall-slashed-cutout</text>

  <g transform="translate(580 980)">
    <rect x="0.5" y="0.5" width="259" height="209" rx="12" fill="#10181b" stroke="#28343a" />
  </g>
  <g transform="translate(646 1000)">
    <path d="M 250 8 Q 231 8 212.5 5 Q 194 2 179 -9 Q 164 -20 155 -37 Q 146 -54 140 -71 L 92 -211 L 91 -212 Q 85 -231 78.5 -250 Q 72 -269 67 -288.5 Q 62 -308 59 -327.5 Q 56 -347 56 -367 Q 56 -388 59 -407.5 Q 62 -427 67 -446.5 Q 72 -466 78.5 -485 Q 85 -504 91 -523 L 92 -523 L 92 -524 L 140 -664 Q 146 -681 155 -698 Q 164 -715 179 -726 Q 194 -737 212.5 -740 Q 231 -743 250 -743 Q 264 -743 278 -741.5 Q 292 -740 305 -735 Q 318 -730 328 -720 Q 338 -710 345 -698 L 291 -643 Q 289 -650 286 -657 Q 283 -664 277.5 -669.5 Q 272 -675 264.5 -676.5 Q 257 -678 250 -678 Q 243 -678 235.5 -676 Q 228 -674 222.5 -669 Q 217 -664 214 -657 Q 211 -650 209 -643 L 164 -503 Q 158 -486 153 -469.5 Q 148 -453 143.5 -436 Q 139 -419 136.5 -402 Q 134 -385 134 -368 Q 134 -350 136.5 -333 Q 139 -316 143.5 -299 Q 148 -282 153 -265.5 Q 158 -249 164 -232 L 209 -92 Q 211 -85 214 -78 Q 217 -71 222.5 -66 Q 228 -61 235.5 -59 Q 243 -57 250 -57 Q 257 -57 264.5 -59 Q 272 -61 277.5 -66 Q 283 -71 286 -78 Q 289 -85 291 -92 L 336 -232 Q 342 -249 347 -265.5 Q 352 -282 356.5 -299 Q 361 -316 363.5 -333 Q 366 -350 366 -367 Q 366 -385 363.5 -402 Q 361 -419 356.5 -436 Q 352 -453 347 -469.5 Q 342 -486 336 -503 L 318 -560 L 376 -618 L 408 -524 L 409 -523 Q 415 -504 421.5 -485 Q 428 -466 433 -446.5 Q 438 -427 441 -407.5 Q 444 -388 444 -368 Q 444 -347 441 -327.5 Q 438 -308 433 -288.5 Q 428 -269 421.5 -250 Q 415 -231 409 -212 L 408 -212 L 408 -211 L 360 -71 Q 354 -54 345 -37 Q 336 -20 321 -9 Q 306 2 287.5 5 Q 269 8 250 8 Z " transform="translate(40 104.99201) rotate(0) scale(0.09599999)" fill="#dee4e3" />
  </g>
  <text x="710" y="1144" text-anchor="middle" font-family="sans-serif" font-size="16" fill="#b8c4c2">diamond-top-right-cutout</text>

  <g transform="translate(858 980)">
    <rect x="0.5" y="0.5" width="259" height="209" rx="12" fill="#10181b" stroke="#28343a" />
  </g>
  <g transform="translate(924 1000)">
    <path d="M 250 8 Q 231 8 212.5 5 Q 194 2 179 -9 Q 164 -20 155 -37 Q 146 -54 140 -71 L 92 -211 L 92 -212 L 91 -212 Q 85 -231 78.5 -250 Q 72 -269 67 -288.5 Q 62 -308 59 -327.5 Q 56 -347 56 -367 Q 56 -388 59 -407.5 Q 62 -427 67 -446.5 Q 72 -466 78.5 -485 Q 85 -504 91 -523 L 92 -523 L 92 -524 L 140 -664 Q 146 -681 155 -698 Q 164 -715 179 -726 Q 194 -737 212.5 -740 Q 231 -743 250 -743 Q 269 -743 287.5 -740 Q 306 -737 321 -726 Q 336 -715 345 -698 Q 354 -681 360 -664 L 408 -524 L 408 -523 L 409 -523 Q 415 -504 421.5 -485 Q 428 -466 433 -446.5 Q 438 -427 441 -407.5 Q 444 -388 444 -368 Q 444 -347 441 -327.5 Q 438 -308 433 -288.5 Q 428 -269 421.5 -250 Q 415 -231 409 -212 L 408 -212 L 408 -211 L 360 -71 Q 354 -54 345 -37 Q 336 -20 321 -9 Q 306 2 287.5 5 Q 269 8 250 8 Z M 250 -57 Q 257 -57 264.5 -59 Q 272 -61 277.5 -66 Q 283 -71 286 -78 Q 289 -85 291 -92 L 336 -232 Q 342 -249 347 -265.5 Q 352 -282 356.5 -299 Q 361 -316 363.5 -333 Q 366 -350 366 -367 Q 366 -385 363.5 -402 Q 361 -419 356.5 -436 Q 352 -453 347 -469.5 Q 342 -486 336 -503 L 291 -643 Q 289 -650 286 -657 Q 283 -664 277.5 -669 Q 272 -674 264.5 -676 Q 257 -678 250 -678 Q 243 -678 235.5 -676 Q 228 -674 222.5 -669 Q 217 -664 214 -657 Q 211 -650 209 -643 L 164 -503 Q 158 -486 153 -469.5 Q 148 -453 143.5 -436 Q 139 -419 136.5 -402 Q 134 -385 134 -368 Q 134 -350 136.5 -333 Q 139 -316 143.5 -299 Q 148 -282 153 -265.5 Q 158 -249 164 -232 L 209 -92 Q 211 -85 214 -78 Q 217 -71 222.5 -66 Q 228 -61 235.5 -59 Q 243 -57 250 -57 Z " transform="translate(40 104.99201) rotate(0) scale(0.09599999)" fill="#dee4e3" />
  </g>
  <text x="988" y="1144" text-anchor="middle" font-family="sans-serif" font-size="16" fill="#b8c4c2">diamond-unslashed</text>

  <g transform="translate(24 1208)">
    <rect x="0.5" y="0.5" width="259" height="209" rx="12" fill="#10181b" stroke="#28343a" />
  </g>
  <g transform="translate(90 1228)">
    <path d="M 286 6 L 286 -78 Q 288 -82 289 -85.5 Q 290 -89 291 -92 L 336 -232 Q 342 -249 347 -265.5 Q 352 -282 356.5 -299 Q 361 -316 363.5 -333 Q 366 -350 366 -367 Q 366 -385 363.5 -402 Q 361 -419 356.5 -436 Q 352 -453 347 -469.5 Q 342 -486 336 -503 L 291 -643 Q 290 -646 289 -649.5 Q 288 -653 286 -657 L 286 -741 Q 300 -738 312.5 -731 Q 325 -724 334.5 -713.5 Q 344 -703 349.5 -690 Q 355 -677 360 -664 L 408 -524 L 409 -523 Q 415 -504 421.5 -485 Q 428 -466 433 -446.5 Q 438 -427 441 -407.5 Q 444 -388 444 -368 Q 444 -347 441 -327.5 Q 438 -308 433 -288.5 Q 428 -269 421.5 -250 Q 415 -231 409 -212 L 408 -212 L 408 -211 L 360 -71 Q 355 -58 349.5 -45 Q 344 -32 334.5 -21.5 Q 325 -11 312.5 -4 Q 300 3 286 6 Z M 214 6 Q 200 3 187.5 -4 Q 175 -11 165.5 -21.5 Q 156 -32 150.5 -45 Q 145 -58 140 -71 L 92 -211 L 91 -212 Q 85 -231 78.5 -250 Q 72 -269 67 -288.5 Q 62 -308 59 -327.5 Q 56 -347 56 -367 Q 56 -388 59 -407.5 Q 62 -427 67 -446.5 Q 72 -466 78.5 -485 Q 85 -504 91 -523 L 92 -523 L 92 -524 L 140 -664 Q 145 -677 150.5 -690 Q 156 -703 165.5 -713.5 Q 175 -724 187.5 -731 Q 200 -738 214 -741 L 214 -657 Q 212 -653 211 -649.5 Q 210 -646 209 -643 L 164 -503 Q 158 -486 153 -469.5 Q 148 -453 143.5 -436 Q 139 -419 136.5 -402 Q 134 -385 134 -368 Q 134 -350 136.5 -333 Q 139 -316 143.5 -299 Q 148 -282 153 -265.5 Q 158 -249 164 -232 L 209 -92 Q 210 -89 211 -85.5 Q 212 -82 214 -78 Z " transform="translate(40 104.99201) rotate(0) scale(0.09599999)" fill="#dee4e3" />
  </g>
  <text x="154" y="1372" text-anchor="middle" font-family="sans-serif" font-size="16" fill="#b8c4c2">diamond-vertical-bar-cutout</text>

  <g transform="translate(302 1208)">
    <rect x="0.5" y="0.5" width="259" height="209" rx="12" fill="#10181b" stroke="#28343a" />
  </g>
  <g transform="translate(368 1228)">
    <path d="M 250 8 Q 223 8 196.5 2.5 Q 170 -3 146.5 -16 Q 123 -29 104.5 -49.5 Q 86 -70 75 -94.5 Q 64 -119 60 -146 Q 56 -173 56 -200 L 56 -535 Q 56 -562 60 -589 Q 64 -616 75 -640.5 Q 86 -665 104.5 -685.5 Q 123 -706 146.5 -719 Q 170 -732 196.5 -737.5 Q 223 -743 250 -743 Q 277 -743 303.5 -737.5 Q 330 -732 353.5 -719 Q 377 -706 395.5 -685.5 Q 414 -665 425 -640.5 Q 436 -616 440 -589 Q 444 -562 444 -535 L 444 -200 Q 444 -173 440 -146 Q 436 -119 425 -94.5 Q 414 -70 395.5 -49.5 Q 377 -29 353.5 -16 Q 330 -3 303.5 2.5 Q 277 8 250 8 Z M 250 -62 Q 267 -62 284 -66 Q 301 -70 315 -79.5 Q 329 -89 339.5 -103 Q 350 -117 356 -133 Q 362 -149 364 -166 Q 366 -183 366 -200 L 366 -535 Q 366 -552 364 -569 Q 362 -586 356 -602 Q 350 -618 339.5 -632 Q 329 -646 315 -655.5 Q 301 -665 284 -669 Q 267 -673 250 -673 Q 233 -673 216 -669 Q 199 -665 185 -655.5 Q 171 -646 160.5 -632 Q 150 -618 144 -602 Q 138 -586 136 -569 Q 134 -552 134 -535 L 134 -200 Q 134 -183 136 -166 Q 138 -149 144 -133 Q 150 -117 160.5 -103 Q 171 -89 185 -79.5 Q 199 -70 216 -66 Q 233 -62 250 -62 Z M 250 -305 Q 238 -305 227 -309.5 Q 216 -314 208.5 -323 Q 201 -332 198.5 -343.5 Q 196 -355 196 -367 L 196 -368 Q 196 -380 198.5 -391.5 Q 201 -403 208.5 -412 Q 216 -421 227 -425.5 Q 238 -430 250 -430 Q 262 -430 273 -425.5 Q 284 -421 291.5 -412 Q 299 -403 301.5 -391.5 Q 304 -380 304 -368 L 304 -367 Q 304 -355 301.5 -343.5 Q 299 -332 291.5 -323 Q 284 -314 273 -309.5 Q 262 -305 250 -305 Z " transform="translate(40 104.99201) rotate(0) scale(0.09599999)" fill="#dee4e3" />
  </g>
  <text x="432" y="1372" text-anchor="middle" font-family="sans-serif" font-size="16" fill="#b8c4c2">dotted</text>

  <g transform="translate(580 1208)">
    <rect x="0.5" y="0.5" width="259" height="209" rx="12" fill="#10181b" stroke="#28343a" />
  </g>
  <g transform="translate(646 1228)">
    <path d="M 250 8 Q 223 8 196.5 2.5 Q 170 -3 146.5 -16 Q 123 -29 104.5 -49.5 Q 86 -70 75 -94.5 Q 64 -119 60 -146 Q 56 -173 56 -200 L 56 -535 Q 56 -562 60 -589 Q 64 -616 75 -640.5 Q 86 -665 104.5 -685.5 Q 123 -706 146.5 -719 Q 170 -732 196.5 -737.5 Q 223 -743 250 -743 Q 277 -743 303.5 -737.5 Q 330 -732 353.5 -719 Q 377 -706 395.5 -685.5 Q 414 -665 425 -640.5 Q 436 -616 440 -589 Q 444 -562 444 -535 L 444 -200 Q 444 -173 440 -146 Q 436 -119 425 -94.5 Q 414 -70 395.5 -49.5 Q 377 -29 353.5 -16 Q 330 -3 303.5 2.5 Q 277 8 250 8 Z M 250 -62 Q 267 -62 284 -66 Q 301 -70 315 -79.5 Q 329 -89 339.5 -103 Q 350 -117 356 -133 Q 362 -149 364 -166 Q 366 -183 366 -200 L 366 -535 Q 366 -552 364 -569 Q 362 -586 356 -602 Q 350 -618 339.5 -632 Q 329 -646 315 -655.5 Q 301 -665 284 -669 Q 267 -673 250 -673 Q 233 -673 216 -669 Q 199 -665 185 -655.5 Q 171 -646 160.5 -632 Q 150 -618 144 -602 Q 138 -586 136 -569 Q 134 -552 134 -535 L 134 -200 Q 134 -183 136 -166 Q 138 -149 144 -133 Q 150 -117 160.5 -103 Q 171 -89 185 -79.5 Q 199 -70 216 -66 Q 233 -62 250 -62 Z M 250 -219 Q 242 -219 234.5 -222 Q 227 -225 222.5 -231.5 Q 218 -238 216.5 -246 Q 215 -254 215 -262 L 215 -473 Q 215 -481 216.5 -489 Q 218 -497 222.5 -503.5 Q 227 -510 234.5 -513 Q 242 -516 250 -516 Q 258 -516 265.5 -513 Q 273 -510 277.5 -503.5 Q 282 -497 283.5 -489 Q 285 -481 285 -473 L 285 -262 Q 285 -254 283.5 -246 Q 282 -238 277.5 -231.5 Q 273 -225 265.5 -222 Q 258 -219 250 -219 Z " transform="translate(40 104.99201) rotate(0) scale(0.09599999)" fill="#dee4e3" />
  </g>
  <text x="710" y="1372" text-anchor="middle" font-family="sans-serif" font-size="16" fill="#b8c4c2">long-dotted</text>

  <g transform="translate(858 1208)">
    <rect x="0.5" y="0.5" width="259" height="209" rx="12" fill="#10181b" stroke="#28343a" />
  </g>
  <g transform="translate(924 1228)">
    <path d="M 250 8 Q 221 8 193 -3.5 Q 165 -15 145 -36 Q 125 -57 111 -83 Q 97 -109 87.5 -136.5 Q 78 -164 72 -193 Q 66 -222 62.5 -251 Q 59 -280 57.5 -309 Q 56 -338 56 -368 Q 56 -397 57.5 -426 Q 59 -455 62.5 -484 Q 66 -513 72 -542 Q 78 -571 87.5 -598.5 Q 97 -626 111 -652 Q 125 -678 145 -699 Q 165 -720 193 -731.5 Q 221 -743 250 -743 Q 279 -743 307 -731.5 Q 335 -720 355 -699 Q 375 -678 389 -652 Q 403 -626 412.5 -598.5 Q 422 -571 428 -542 Q 434 -513 437.5 -484 Q 441 -455 442.5 -426 Q 444 -397 444 -368 Q 444 -338 442.5 -309 Q 441 -280 437.5 -251 Q 434 -222 428 -193 Q 422 -164 412.5 -136.5 Q 403 -109 389 -83 Q 375 -57 355 -36 Q 335 -15 307 -3.5 Q 279 8 250 8 Z M 250 -62 Q 261 -62 271.5 -65.5 Q 282 -69 291 -75 Q 300 -81 307 -89.5 Q 314 -98 319 -107 L 236 -312 L 308 -312 L 353 -203 Q 361 -243 363.5 -284.5 Q 366 -326 366 -368 Q 366 -385 365.5 -403 Q 365 -421 364 -438.5 Q 363 -456 361.5 -473.5 Q 360 -491 357 -508.5 Q 354 -526 350.5 -543.5 Q 347 -561 341.5 -577.5 Q 336 -594 328.5 -610.5 Q 321 -627 310.5 -641 Q 300 -655 284 -664 Q 268 -673 250 -673 Q 239 -673 228.5 -669.5 Q 218 -666 209 -660 Q 200 -654 193 -645.5 Q 186 -637 181 -628 L 264 -423 L 192 -423 L 147 -532 Q 139 -492 136.5 -450.5 Q 134 -409 134 -368 Q 134 -350 134.5 -332 Q 135 -314 136 -296.5 Q 137 -279 138.5 -261.5 Q 140 -244 143 -226.5 Q 146 -209 149.5 -191.5 Q 153 -174 158.5 -157.5 Q 164 -141 171.5 -124.5 Q 179 -108 189.5 -94 Q 200 -80 216 -71 Q 232 -62 250 -62 Z " transform="translate(40 104.99201) rotate(0) scale(0.09599999)" fill="#dee4e3" />
  </g>
  <text x="988" y="1372" text-anchor="middle" font-family="sans-serif" font-size="16" fill="#b8c4c2">oval-broken-reverse-slash</text>

  <g transform="translate(24 1436)">
    <rect x="0.5" y="0.5" width="259" height="209" rx="12" fill="#10181b" stroke="#28343a" />
  </g>
  <g transform="translate(90 1456)">
    <path d="M 250 8 Q 221 8 193 -3.5 Q 165 -15 145 -36 Q 125 -57 111 -83 Q 97 -109 87.5 -136.5 Q 78 -164 72 -193 Q 66 -222 62.5 -251 Q 59 -280 57.5 -309 Q 56 -338 56 -368 Q 56 -397 57.5 -426 Q 59 -455 62.5 -484 Q 66 -513 72 -542 Q 78 -571 87.5 -598.5 Q 97 -626 111 -652 Q 125 -678 145 -699 Q 165 -720 193 -731.5 Q 221 -743 250 -743 Q 279 -743 307 -731.5 Q 335 -720 355 -699 Q 375 -678 389 -652 Q 403 -626 412.5 -598.5 Q 422 -571 428 -542 Q 434 -513 437.5 -484 Q 441 -455 442.5 -426 Q 444 -397 444 -368 Q 444 -338 442.5 -309 Q 441 -280 437.5 -251 Q 434 -222 428 -193 Q 422 -164 412.5 -136.5 Q 403 -109 389 -83 Q 375 -57 355 -36 Q 335 -15 307 -3.5 Q 279 8 250 8 Z M 250 -62 Q 268 -62 284 -71 Q 300 -80 310.5 -94 Q 321 -108 328.5 -124.5 Q 336 -141 341.5 -157.5 Q 347 -174 350.5 -191.5 Q 354 -209 357 -226.5 Q 360 -244 361.5 -261.5 Q 363 -279 364 -296.5 Q 365 -314 365.5 -332 Q 366 -350 366 -368 Q 366 -409 363.5 -450.5 Q 361 -492 353 -532 L 308 -423 L 236 -423 Q 257 -474 277.5 -525 Q 298 -576 319 -628 Q 314 -637 307 -645.5 Q 300 -654 291 -660 Q 282 -666 271.5 -669.5 Q 261 -673 250 -673 Q 232 -673 216 -664 Q 200 -655 189.5 -641 Q 179 -627 171.5 -610.5 Q 164 -594 158.5 -577.5 Q 153 -561 149.5 -543.5 Q 146 -526 143 -508.5 Q 140 -491 138.5 -473.5 Q 137 -456 136 -438.5 Q 135 -421 134.5 -403 Q 134 -385 134 -368 Q 134 -326 136.5 -284.5 Q 139 -243 147 -203 L 192 -312 L 264 -312 L 181 -107 Q 186 -98 193 -89.5 Q 200 -81 209 -75 Q 218 -69 228.5 -65.5 Q 239 -62 250 -62 Z " transform="translate(40 104.99201) rotate(0) scale(0.09599999)" fill="#dee4e3" />
  </g>
  <text x="154" y="1600" text-anchor="middle" font-family="sans-serif" font-size="16" fill="#b8c4c2">oval-broken-slash</text>

  <g transform="translate(302 1436)">
    <rect x="0.5" y="0.5" width="259" height="209" rx="12" fill="#10181b" stroke="#28343a" />
  </g>
  <g transform="translate(368 1456)">
    <path d="M 250 8 Q 221 8 193 -3.5 Q 165 -15 145 -36 Q 125 -57 111 -83 Q 97 -109 87.5 -136.5 Q 78 -164 72 -193 Q 66 -222 62.5 -251 Q 59 -280 57.5 -309 Q 56 -338 56 -368 Q 56 -397 57.5 -426 Q 59 -455 62.5 -484 Q 66 -513 72 -542 Q 78 -571 87.5 -598.5 Q 97 -626 111 -652 Q 125 -678 145 -699 Q 165 -720 193 -731.5 Q 221 -743 250 -743 Q 279 -743 307 -731.5 Q 335 -720 355 -699 Q 375 -678 389 -652 Q 403 -626 412.5 -598.5 Q 422 -571 428 -542 Q 434 -513 437.5 -484 Q 441 -455 442.5 -426 Q 444 -397 444 -368 Q 444 -338 442.5 -309 Q 441 -280 437.5 -251 Q 434 -222 428 -193 Q 422 -164 412.5 -136.5 Q 403 -109 389 -83 Q 375 -57 355 -36 Q 335 -15 307 -3.5 Q 279 8 250 8 Z M 284 -71 Q 301 -80 312.5 -97 Q 324 -114 332 -132.5 Q 340 -151 345 -170 Q 350 -189 354 -208.5 Q 358 -228 360 -248 Q 362 -268 363.5 -288 Q 365 -308 365.5 -328 Q 366 -348 366 -368 Q 366 -387 365.5 -407 Q 365 -427 363.5 -447 Q 362 -467 360 -487 Q 358 -507 354 -526.5 Q 350 -546 345 -565 Q 340 -584 332 -602.5 Q 324 -621 312.5 -638 Q 301 -655 284 -664 L 284 -413 L 216 -413 L 216 -664 Q 199 -655 187.5 -638 Q 176 -621 168 -602.5 Q 160 -584 155 -565 Q 150 -546 146 -526.5 Q 142 -507 140 -487 Q 138 -467 136.5 -447 Q 135 -427 134.5 -407 Q 134 -387 134 -368 Q 134 -348 134.5 -328 Q 135 -308 136.5 -288 Q 138 -268 140 -248 Q 142 -228 146 -208.5 Q 150 -189 155 -170 Q 160 -151 168 -132.5 Q 176 -114 187.5 -97 Q 199 -80 216 -71 L 216 -322 L 284 -322 Z " transform="translate(40 104.99201) rotate(0) scale(0.09599999)" fill="#dee4e3" />
  </g>
  <text x="432" y="1600" text-anchor="middle" font-family="sans-serif" font-size="16" fill="#b8c4c2">oval-broken-vertical-bar</text>

  <g transform="translate(580 1436)">
    <rect x="0.5" y="0.5" width="259" height="209" rx="12" fill="#10181b" stroke="#28343a" />
  </g>
  <g transform="translate(646 1456)">
    <path d="M 250 8 Q 221 8 193 -3.5 Q 165 -15 145 -36 Q 125 -57 111 -83 Q 97 -109 87.5 -136.5 Q 78 -164 72 -193 Q 66 -222 62.5 -251 Q 59 -280 57.5 -309 Q 56 -338 56 -368 Q 56 -397 57.5 -426 Q 59 -455 62.5 -484 Q 66 -513 72 -542 Q 78 -571 87.5 -598.5 Q 97 -626 111 -652 Q 125 -678 145 -699 Q 165 -720 193 -731.5 Q 221 -743 250 -743 Q 279 -743 307 -731.5 Q 335 -720 355 -699 Q 375 -678 389 -652 Q 403 -626 412.5 -598.5 Q 422 -571 428 -542 Q 434 -513 437.5 -484 Q 441 -455 442.5 -426 Q 444 -397 444 -368 Q 444 -338 442.5 -309 Q 441 -280 437.5 -251 Q 434 -222 428 -193 Q 422 -164 412.5 -136.5 Q 403 -109 389 -83 Q 375 -57 355 -36 Q 335 -15 307 -3.5 Q 279 8 250 8 Z M 250 -62 Q 268 -62 284 -71 Q 300 -80 310.5 -94 Q 321 -108 328.5 -124.5 Q 336 -141 341.5 -157.5 Q 347 -174 350.5 -191.5 Q 354 -209 357 -226.5 Q 360 -244 361.5 -261.5 Q 363 -279 364 -296.5 Q 365 -314 365.5 -332 Q 366 -350 366 -368 Q 366 -385 365.5 -403 Q 365 -421 364 -438.5 Q 363 -456 361.5 -473.5 Q 360 -491 357 -508.5 Q 354 -526 350.5 -543.5 Q 347 -561 341.5 -577.5 Q 336 -594 328.5 -610.5 Q 321 -627 310.5 -641 Q 300 -655 284 -664 Q 268 -673 250 -673 Q 232 -673 216 -664 Q 200 -655 189.5 -641 Q 179 -627 171.5 -610.5 Q 164 -594 158.5 -577.5 Q 153 -561 149.5 -543.5 Q 146 -526 143 -508.5 Q 140 -491 138.5 -473.5 Q 137 -456 136 -438.5 Q 135 -421 134.5 -403 Q 134 -385 134 -368 Q 134 -350 134.5 -332 Q 135 -314 136 -296.5 Q 137 -279 138.5 -261.5 Q 140 -244 143 -226.5 Q 146 -209 149.5 -191.5 Q 153 -174 158.5 -157.5 Q 164 -141 171.5 -124.5 Q 179 -108 189.5 -94 Q 200 -80 216 -71 Q 232 -62 250 -62 Z M 250 -305 Q 238 -305 227 -309.5 Q 216 -314 208.5 -323 Q 201 -332 198.5 -343.5 Q 196 -355 196 -367 L 196 -368 Q 196 -380 198.5 -391.5 Q 201 -403 208.5 -412 Q 216 -421 227 -425.5 Q 238 -430 250 -430 Q 262 -430 273 -425.5 Q 284 -421 291.5 -412 Q 299 -403 301.5 -391.5 Q 304 -380 304 -368 L 304 -367 Q 304 -355 301.5 -343.5 Q 299 -332 291.5 -323 Q 284 -314 273 -309.5 Q 262 -305 250 -305 Z " transform="translate(40 104.99201) rotate(0) scale(0.09599999)" fill="#dee4e3" />
  </g>
  <text x="710" y="1600" text-anchor="middle" font-family="sans-serif" font-size="16" fill="#b8c4c2">oval-dotted</text>

  <g transform="translate(858 1436)">
    <rect x="0.5" y="0.5" width="259" height="209" rx="12" fill="#10181b" stroke="#28343a" />
  </g>
  <g transform="translate(924 1456)">
    <path d="M 250 8 Q 221 8 193 -3.5 Q 165 -15 145 -36 Q 125 -57 111 -83 Q 97 -109 87.5 -136.5 Q 78 -164 72 -193 Q 66 -222 62.5 -251 Q 59 -280 57.5 -309 Q 56 -338 56 -368 Q 56 -397 57.5 -426 Q 59 -455 62.5 -484 Q 66 -513 72 -542 Q 78 -571 87.5 -598.5 Q 97 -626 111 -652 Q 125 -678 145 -699 Q 165 -720 193 -731.5 Q 221 -743 250 -743 Q 279 -743 307 -731.5 Q 335 -720 355 -699 Q 375 -678 389 -652 Q 403 -626 412.5 -598.5 Q 422 -571 428 -542 Q 434 -513 437.5 -484 Q 441 -455 442.5 -426 Q 444 -397 444 -368 Q 444 -338 442.5 -309 Q 441 -280 437.5 -251 Q 434 -222 428 -193 Q 422 -164 412.5 -136.5 Q 403 -109 389 -83 Q 375 -57 355 -36 Q 335 -15 307 -3.5 Q 279 8 250 8 Z M 250 -62 Q 268 -62 284 -71 Q 300 -80 310.5 -94 Q 321 -108 328.5 -124.5 Q 336 -141 341.5 -157.5 Q 347 -174 350.5 -191.5 Q 354 -209 357 -226.5 Q 360 -244 361.5 -261.5 Q 363 -279 364 -296.5 Q 365 -314 365.5 -332 Q 366 -350 366 -368 Q 366 -385 365.5 -403 Q 365 -421 364 -438.5 Q 363 -456 361.5 -473.5 Q 360 -491 357 -508.5 Q 354 -526 350.5 -543.5 Q 347 -561 341.5 -577.5 Q 336 -594 328.5 -610.5 Q 321 -627 310.5 -641 Q 300 -655 284 -664 Q 268 -673 250 -673 Q 232 -673 216 -664 Q 200 -655 189.5 -641 Q 179 -627 171.5 -610.5 Q 164 -594 158.5 -577.5 Q 153 -561 149.5 -543.5 Q 146 -526 143 -508.5 Q 140 -491 138.5 -473.5 Q 137 -456 136 -438.5 Q 135 -421 134.5 -403 Q 134 -385 134 -368 Q 134 -350 134.5 -332 Q 135 -314 136 -296.5 Q 137 -279 138.5 -261.5 Q 140 -244 143 -226.5 Q 146 -209 149.5 -191.5 Q 153 -174 158.5 -157.5 Q 164 -141 171.5 -124.5 Q 179 -108 189.5 -94 Q 200 -80 216 -71 Q 232 -62 250 -62 Z M 250 -219 Q 242 -219 234.5 -222 Q 227 -225 222.5 -231.5 Q 218 -238 216.5 -246 Q 215 -254 215 -262 L 215 -473 Q 215 -481 216.5 -489 Q 218 -497 222.5 -503.5 Q 227 -510 234.5 -513 Q 242 -516 250 -516 Q 258 -516 265.5 -513 Q 273 -510 277.5 -503.5 Q 282 -497 283.5 -489 Q 285 -481 285 -473 L 285 -262 Q 285 -254 283.5 -246 Q 282 -238 277.5 -231.5 Q 273 -225 265.5 -222 Q 258 -219 250 -219 Z " transform="translate(40 104.99201) rotate(0) scale(0.09599999)" fill="#dee4e3" />
  </g>
  <text x="988" y="1600" text-anchor="middle" font-family="sans-serif" font-size="16" fill="#b8c4c2">oval-long-dotted</text>

  <g transform="translate(24 1664)">
    <rect x="0.5" y="0.5" width="259" height="209" rx="12" fill="#10181b" stroke="#28343a" />
  </g>
  <g transform="translate(90 1684)">
    <path d="M 250 8 Q 221 8 193 -3.5 Q 165 -15 145 -36 Q 125 -57 111 -83 Q 97 -109 87.5 -136.5 Q 78 -164 72 -193 Q 66 -222 62.5 -251 Q 59 -280 57.5 -309 Q 56 -338 56 -368 Q 56 -397 57.5 -426 Q 59 -455 62.5 -484 Q 66 -513 72 -542 Q 78 -571 87.5 -598.5 Q 97 -626 111 -652 Q 125 -678 145 -699 Q 165 -720 193 -731.5 Q 221 -743 250 -743 Q 279 -743 307 -731.5 Q 335 -720 355 -699 Q 375 -678 389 -652 Q 403 -626 412.5 -598.5 Q 422 -571 428 -542 Q 434 -513 437.5 -484 Q 441 -455 442.5 -426 Q 444 -397 444 -368 Q 444 -338 442.5 -309 Q 441 -280 437.5 -251 Q 434 -222 428 -193 Q 422 -164 412.5 -136.5 Q 403 -109 389 -83 Q 375 -57 355 -36 Q 335 -15 307 -3.5 Q 279 8 250 8 Z M 365 -317 Q 366 -329 366 -342 Q 366 -355 366 -368 Q 366 -385 365.5 -403 Q 365 -421 364 -438.5 Q 363 -456 361.5 -473.5 Q 360 -491 357 -508.5 Q 354 -526 350.5 -543.5 Q 347 -561 341.5 -577.5 Q 336 -594 328.5 -610.5 Q 321 -627 310.5 -641 Q 300 -655 284 -664 Q 268 -673 250 -673 Q 231 -673 214.5 -663 Q 198 -653 187 -637.5 Q 176 -622 168.5 -604.5 Q 161 -587 156 -568.5 Q 151 -550 147 -531.5 Q 143 -513 141 -495 Z M 250 -62 Q 269 -62 285.5 -72 Q 302 -82 313 -97.5 Q 324 -113 331.5 -130.5 Q 339 -148 344 -166.5 Q 349 -185 353 -203.5 Q 357 -222 359 -240 L 135 -418 Q 134 -406 134 -393 Q 134 -380 134 -368 Q 134 -350 134.5 -332 Q 135 -314 136 -296.5 Q 137 -279 138.5 -261.5 Q 140 -244 143 -226.5 Q 146 -209 149.5 -191.5 Q 153 -174 158.5 -157.5 Q 164 -141 171.5 -124.5 Q 179 -108 189.5 -94 Q 200 -80 216 -71 Q 232 -62 250 -62 Z " transform="translate(40 104.99201) rotate(0) scale(0.09599999)" fill="#dee4e3" />
  </g>
  <text x="154" y="1828" text-anchor="middle" font-family="sans-serif" font-size="16" fill="#b8c4c2">oval-reverse-slashed</text>

  <g transform="translate(302 1664)">
    <rect x="0.5" y="0.5" width="259" height="209" rx="12" fill="#10181b" stroke="#28343a" />
  </g>
  <g transform="translate(368 1684)">
    <path d="M 439 -266 L 366 -325 L 366 -368 Q 366 -385 365.5 -403 Q 365 -421 364 -438.5 Q 363 -456 361.5 -473.5 Q 360 -491 357 -508.5 Q 354 -526 350.5 -543.5 Q 347 -561 341.5 -577.5 Q 336 -594 328.5 -610.5 Q 321 -627 310.5 -641 Q 300 -655 284 -664 Q 268 -673 250 -673 Q 232 -673 215.5 -663.5 Q 199 -654 188.5 -639 Q 178 -624 170.5 -607.5 Q 163 -591 157.5 -573.5 Q 152 -556 148.5 -538 Q 145 -520 142 -502 L 75 -555 Q 80 -578 88 -600 Q 96 -622 106.5 -642.5 Q 117 -663 131 -682 Q 145 -701 163.5 -715 Q 182 -729 204.5 -736 Q 227 -743 250 -743 Q 279 -743 307 -731.5 Q 335 -720 355 -699 Q 375 -678 389 -652 Q 403 -626 412.5 -598.5 Q 422 -571 428 -542 Q 434 -513 437.5 -484 Q 441 -455 442.5 -426 Q 444 -397 444 -368 Q 444 -342 443 -316.5 Q 442 -291 439 -266 Z M 250 8 Q 221 8 193 -3.5 Q 165 -15 145 -36 Q 125 -57 111 -83 Q 97 -109 87.5 -136.5 Q 78 -164 72 -193 Q 66 -222 62.5 -251 Q 59 -280 57.5 -309 Q 56 -338 56 -368 Q 56 -393 57 -418.5 Q 58 -444 61 -469 L 134 -410 L 134 -368 Q 134 -350 134.5 -332 Q 135 -314 136 -296.5 Q 137 -279 138.5 -261.5 Q 140 -244 143 -226.5 Q 146 -209 149.5 -191.5 Q 153 -174 158.5 -157.5 Q 164 -141 171.5 -124.5 Q 179 -108 189.5 -94 Q 200 -80 216 -71 Q 232 -62 250 -62 Q 268 -62 284.5 -71.5 Q 301 -81 311.5 -96 Q 322 -111 329.5 -127.5 Q 337 -144 342.5 -161.5 Q 348 -179 351.5 -197 Q 355 -215 358 -233 L 425 -180 Q 420 -157 412 -135 Q 404 -113 393.5 -92.5 Q 383 -72 369 -53 Q 355 -34 336.5 -20 Q 318 -6 295.5 1 Q 273 8 250 8 Z " transform="translate(40 104.99201) rotate(0) scale(0.09599999)" fill="#dee4e3" />
  </g>
  <text x="432" y="1828" text-anchor="middle" font-family="sans-serif" font-size="16" fill="#b8c4c2">oval-reverse-slashed-cutout</text>

  <g transform="translate(580 1664)">
    <rect x="0.5" y="0.5" width="259" height="209" rx="12" fill="#10181b" stroke="#28343a" />
  </g>
  <g transform="translate(646 1684)">
    <path d="M 250 8 Q 221 8 193 -3.5 Q 165 -15 145 -36 Q 125 -57 111 -83 Q 97 -109 87.5 -136.5 Q 78 -164 72 -193 Q 66 -222 62.5 -251 Q 59 -280 57.5 -309 Q 56 -338 56 -368 Q 56 -397 57.5 -426 Q 59 -455 62.5 -484 Q 66 -513 72 -542 Q 78 -571 87.5 -598.5 Q 97 -626 111 -652 Q 125 -678 145 -699 Q 165 -720 193 -731.5 Q 221 -743 250 -743 Q 279 -743 307 -731.5 Q 335 -720 355 -699 Q 375 -678 389 -652 Q 403 -626 412.5 -598.5 Q 422 -571 428 -542 Q 434 -513 437.5 -484 Q 441 -455 442.5 -426 Q 444 -397 444 -368 Q 444 -338 442.5 -309 Q 441 -280 437.5 -251 Q 434 -222 428 -193 Q 422 -164 412.5 -136.5 Q 403 -109 389 -83 Q 375 -57 355 -36 Q 335 -15 307 -3.5 Q 279 8 250 8 Z M 250 -62 Q 268 -62 284 -71 Q 300 -80 310.5 -94 Q 321 -108 328.5 -124.5 Q 336 -141 341.5 -157.5 Q 347 -174 350.5 -191.5 Q 354 -209 357 -226.5 Q 360 -244 361.5 -261.5 Q 363 -279 364 -296.5 Q 365 -314 365.5 -332 Q 366 -350 366 -368 Q 366 -385 365.5 -403 Q 365 -421 364 -438.5 Q 363 -456 361.5 -473.5 Q 360 -491 357 -508.5 Q 354 -526 350.5 -543.5 Q 347 -561 341.5 -577.5 Q 336 -594 328.5 -610.5 Q 321 -627 310.5 -641 Q 300 -655 284 -664 Q 268 -673 250 -673 Q 232 -673 216 -664 Q 200 -655 189.5 -641 Q 179 -627 171.5 -610.5 Q 164 -594 158.5 -577.5 Q 153 -561 149.5 -543.5 Q 146 -526 143 -508.5 Q 140 -491 138.5 -473.5 Q 137 -456 136 -438.5 Q 135 -421 134.5 -403 Q 134 -385 134 -368 Q 134 -350 134.5 -332 Q 135 -314 136 -296.5 Q 137 -279 138.5 -261.5 Q 140 -244 143 -226.5 Q 146 -209 149.5 -191.5 Q 153 -174 158.5 -157.5 Q 164 -141 171.5 -124.5 Q 179 -108 189.5 -94 Q 200 -80 216 -71 Q 232 -62 250 -62 Z M 303 -285 L 195 -371 Q 195 -391 195.5 -410.5 Q 196 -430 197 -450 L 305 -364 Q 305 -344 304.5 -324.5 Q 304 -305 303 -285 Z " transform="translate(40 104.99201) rotate(0) scale(0.09599999)" fill="#dee4e3" />
  </g>
  <text x="710" y="1828" text-anchor="middle" font-family="sans-serif" font-size="16" fill="#b8c4c2">oval-reverse-slashed-split</text>

  <g transform="translate(858 1664)">
    <rect x="0.5" y="0.5" width="259" height="209" rx="12" fill="#10181b" stroke="#28343a" />
  </g>
  <g transform="translate(924 1684)">
    <path d="M 250 8 Q 221 8 193 -3.5 Q 165 -15 145 -36 Q 125 -57 111 -83 Q 97 -109 87.5 -136.5 Q 78 -164 72 -193 Q 66 -222 62.5 -251 Q 59 -280 57.5 -309 Q 56 -338 56 -368 Q 56 -397 57.5 -426 Q 59 -455 62.5 -484 Q 66 -513 72 -542 Q 78 -571 87.5 -598.5 Q 97 -626 111 -652 Q 125 -678 145 -699 Q 165 -720 193 -731.5 Q 221 -743 250 -743 Q 279 -743 307 -731.5 Q 335 -720 355 -699 Q 375 -678 389 -652 Q 403 -626 412.5 -598.5 Q 422 -571 428 -542 Q 434 -513 437.5 -484 Q 441 -455 442.5 -426 Q 444 -397 444 -368 Q 444 -338 442.5 -309 Q 441 -280 437.5 -251 Q 434 -222 428 -193 Q 422 -164 412.5 -136.5 Q 403 -109 389 -83 Q 375 -57 355 -36 Q 335 -15 307 -3.5 Q 279 8 250 8 Z M 135 -317 L 359 -495 Q 357 -513 353 -531.5 Q 349 -550 344 -568.5 Q 339 -587 331.5 -604.5 Q 324 -622 313 -637.5 Q 302 -653 285.5 -663 Q 269 -673 250 -673 Q 232 -673 216 -664 Q 200 -655 189.5 -641 Q 179 -627 171.5 -610.5 Q 164 -594 158.5 -577.5 Q 153 -561 149.5 -543.5 Q 146 -526 143 -508.5 Q 140 -491 138.5 -473.5 Q 137 -456 136 -438.5 Q 135 -421 134.5 -403 Q 134 -385 134 -368 Q 134 -355 134 -342 Q 134 -329 135 -317 Z M 250 -62 Q 268 -62 284 -71 Q 300 -80 310.5 -94 Q 321 -108 328.5 -124.5 Q 336 -141 341.5 -157.5 Q 347 -174 350.5 -191.5 Q 354 -209 357 -226.5 Q 360 -244 361.5 -261.5 Q 363 -279 364 -296.5 Q 365 -314 365.5 -332 Q 366 -350 366 -368 Q 366 -380 366 -393 Q 366 -406 365 -418 L 141 -240 Q 143 -222 147 -203.5 Q 151 -185 156 -166.5 Q 161 -148 168.5 -130.5 Q 176 -113 187 -97.5 Q 198 -82 214.5 -72 Q 231 -62 250 -62 Z " transform="translate(40 104.99201) rotate(0) scale(0.09599999)" fill="#dee4e3" />
  </g>
  <text x="988" y="1828" text-anchor="middle" font-family="sans-serif" font-size="16" fill="#b8c4c2">oval-slashed</text>

  <g transform="translate(24 1892)">
    <rect x="0.5" y="0.5" width="259" height="209" rx="12" fill="#10181b" stroke="#28343a" />
  </g>
  <g transform="translate(90 1912)">
    <path d="M 61 -266 Q 58 -291 57 -316.5 Q 56 -342 56 -368 Q 56 -397 57.5 -426 Q 59 -455 62.5 -484 Q 66 -513 72 -542 Q 78 -571 87.5 -598.5 Q 97 -626 111 -652 Q 125 -678 145 -699 Q 165 -720 193 -731.5 Q 221 -743 250 -743 Q 273 -743 295.5 -736 Q 318 -729 336.5 -715 Q 355 -701 369 -682 Q 383 -663 393.5 -642.5 Q 404 -622 412 -600 Q 420 -578 425 -555 L 358 -502 Q 355 -520 351.5 -538 Q 348 -556 342.5 -573.5 Q 337 -591 329.5 -607.5 Q 322 -624 311.5 -639 Q 301 -654 284.5 -663.5 Q 268 -673 250 -673 Q 232 -673 216 -664 Q 200 -655 189.5 -641 Q 179 -627 171.5 -610.5 Q 164 -594 158.5 -577.5 Q 153 -561 149.5 -543.5 Q 146 -526 143 -508.5 Q 140 -491 138.5 -473.5 Q 137 -456 136 -438.5 Q 135 -421 134.5 -403 Q 134 -385 134 -368 L 134 -325 Z M 250 8 Q 227 8 204.5 1 Q 182 -6 163.5 -20 Q 145 -34 131 -53 Q 117 -72 106.5 -92.5 Q 96 -113 88 -135 Q 80 -157 75 -180 L 142 -233 Q 145 -215 148.5 -197 Q 152 -179 157.5 -161.5 Q 163 -144 170.5 -127.5 Q 178 -111 188.5 -96 Q 199 -81 215.5 -71.5 Q 232 -62 250 -62 Q 268 -62 284 -71 Q 300 -80 310.5 -94 Q 321 -108 328.5 -124.5 Q 336 -141 341.5 -157.5 Q 347 -174 350.5 -191.5 Q 354 -209 357 -226.5 Q 360 -244 361.5 -261.5 Q 363 -279 364 -296.5 Q 365 -314 365.5 -332 Q 366 -350 366 -368 L 366 -410 L 439 -469 Q 442 -444 443 -418.5 Q 444 -393 444 -368 Q 444 -338 442.5 -309 Q 441 -280 437.5 -251 Q 434 -222 428 -193 Q 422 -164 412.5 -136.5 Q 403 -109 389 -83 Q 375 -57 355 -36 Q 335 -15 307 -3.5 Q 279 8 250 8 Z " transform="translate(40 104.99201) rotate(0) scale(0.09599999)" fill="#dee4e3" />
  </g>
  <text x="154" y="2056" text-anchor="middle" font-family="sans-serif" font-size="16" fill="#b8c4c2">oval-slashed-cutout</text>

  <g transform="translate(302 1892)">
    <rect x="0.5" y="0.5" width="259" height="209" rx="12" fill="#10181b" stroke="#28343a" />
  </g>
  <g transform="translate(368 1912)">
    <path d="M 250 8 Q 221 8 193 -3.5 Q 165 -15 145 -36 Q 125 -57 111 -83 Q 97 -109 87.5 -136.5 Q 78 -164 72 -193 Q 66 -222 62.5 -251 Q 59 -280 57.5 -309 Q 56 -338 56 -368 Q 56 -397 57.5 -426 Q 59 -455 62.5 -484 Q 66 -513 72 -542 Q 78 -571 87.5 -598.5 Q 97 -626 111 -652 Q 125 -678 145 -699 Q 165 -720 193 -731.5 Q 221 -743 250 -743 Q 279 -743 307 -731.5 Q 335 -720 355 -699 Q 375 -678 389 -652 Q 403 -626 412.5 -598.5 Q 422 -571 428 -542 Q 434 -513 437.5 -484 Q 441 -455 442.5 -426 Q 444 -397 444 -368 Q 444 -338 442.5 -309 Q 441 -280 437.5 -251 Q 434 -222 428 -193 Q 422 -164 412.5 -136.5 Q 403 -109 389 -83 Q 375 -57 355 -36 Q 335 -15 307 -3.5 Q 279 8 250 8 Z M 250 -62 Q 268 -62 284 -71 Q 300 -80 310.5 -94 Q 321 -108 328.5 -124.5 Q 336 -141 341.5 -157.5 Q 347 -174 350.5 -191.5 Q 354 -209 357 -226.5 Q 360 -244 361.5 -261.5 Q 363 -279 364 -296.5 Q 365 -314 365.5 -332 Q 366 -350 366 -368 Q 366 -385 365.5 -403 Q 365 -421 364 -438.5 Q 363 -456 361.5 -473.5 Q 360 -491 357 -508.5 Q 354 -526 350.5 -543.5 Q 347 -561 341.5 -577.5 Q 336 -594 328.5 -610.5 Q 321 -627 310.5 -641 Q 300 -655 284 -664 Q 268 -673 250 -673 Q 232 -673 216 -664 Q 200 -655 189.5 -641 Q 179 -627 171.5 -610.5 Q 164 -594 158.5 -577.5 Q 153 -561 149.5 -543.5 Q 146 -526 143 -508.5 Q 140 -491 138.5 -473.5 Q 137 -456 136 -438.5 Q 135 -421 134.5 -403 Q 134 -385 134 -368 Q 134 -350 134.5 -332 Q 135 -314 136 -296.5 Q 137 -279 138.5 -261.5 Q 140 -244 143 -226.5 Q 146 -209 149.5 -191.5 Q 153 -174 158.5 -157.5 Q 164 -141 171.5 -124.5 Q 179 -108 189.5 -94 Q 200 -80 216 -71 Q 232 -62 250 -62 Z M 197 -285 L 197 -287 Q 196 -306 195.5 -325.5 Q 195 -345 195 -364 L 303 -450 Q 304 -430 304.5 -410.5 Q 305 -391 305 -371 Z " transform="translate(40 104.99201) rotate(0) scale(0.09599999)" fill="#dee4e3" />
  </g>
  <text x="432" y="2056" text-anchor="middle" font-family="sans-serif" font-size="16" fill="#b8c4c2">oval-slashed-split</text>

  <g transform="translate(580 1892)">
    <rect x="0.5" y="0.5" width="259" height="209" rx="12" fill="#10181b" stroke="#28343a" />
  </g>
  <g transform="translate(646 1912)">
    <path d="M 250 8 Q 221 8 193 -3.5 Q 165 -15 145 -36 Q 125 -57 111 -83 Q 97 -109 87.5 -136.5 Q 78 -164 72 -193 Q 66 -222 62.5 -251 Q 59 -280 57.5 -309 Q 56 -338 56 -368 Q 56 -397 57.5 -426 Q 59 -455 62.5 -484 Q 66 -513 72 -542 Q 78 -571 87.5 -598.5 Q 97 -626 111 -652 Q 125 -678 145 -699 Q 165 -720 193 -731.5 Q 221 -743 250 -743 Q 279 -743 307 -731.5 Q 335 -720 355 -699 Q 375 -678 389 -652 Q 403 -626 412.5 -598.5 Q 422 -571 428 -542 Q 434 -513 437.5 -484 Q 441 -455 442.5 -426 Q 444 -397 444 -368 Q 444 -338 442.5 -309 Q 441 -280 437.5 -251 Q 434 -222 428 -193 Q 422 -164 412.5 -136.5 Q 403 -109 389 -83 Q 375 -57 355 -36 Q 335 -15 307 -3.5 Q 279 8 250 8 Z M 362 -262 Q 364 -288 365 -314.5 Q 366 -341 366 -368 Q 366 -385 365.5 -403 Q 365 -421 364 -438.5 Q 363 -456 361.5 -473.5 Q 360 -491 357 -508.5 Q 354 -526 350.5 -543.5 Q 347 -561 341.5 -577.5 Q 336 -594 328.5 -610.5 Q 321 -627 310.5 -641 Q 300 -655 284 -664 Q 268 -673 250 -673 Q 231 -673 214 -662.5 Q 197 -652 186 -636 Q 175 -620 167.5 -602 Q 160 -584 155 -565 Z M 250 -62 Q 269 -62 286 -72.5 Q 303 -83 314 -99 Q 325 -115 332.5 -133 Q 340 -151 345 -170 L 138 -473 Q 136 -447 135 -420.5 Q 134 -394 134 -368 Q 134 -350 134.5 -332 Q 135 -314 136 -296.5 Q 137 -279 138.5 -261.5 Q 140 -244 143 -226.5 Q 146 -209 149.5 -191.5 Q 153 -174 158.5 -157.5 Q 164 -141 171.5 -124.5 Q 179 -108 189.5 -94 Q 200 -80 216 -71 Q 232 -62 250 -62 Z " transform="translate(40 104.99201) rotate(0) scale(0.09599999)" fill="#dee4e3" />
  </g>
  <text x="710" y="2056" text-anchor="middle" font-family="sans-serif" font-size="16" fill="#b8c4c2">oval-tall-reverse-slashed</text>

  <g transform="translate(858 1892)">
    <rect x="0.5" y="0.5" width="259" height="209" rx="12" fill="#10181b" stroke="#28343a" />
  </g>
  <g transform="translate(924 1912)">
    <path d="M 425 -180 L 363 -272 Q 365 -296 365.5 -320 Q 366 -344 366 -368 Q 366 -385 365.5 -403 Q 365 -421 364 -438.5 Q 363 -456 361.5 -473.5 Q 360 -491 357 -508.5 Q 354 -526 350.5 -543.5 Q 347 -561 341.5 -577.5 Q 336 -594 328.5 -610.5 Q 321 -627 310.5 -641 Q 300 -655 284 -664 Q 268 -673 250 -673 Q 232 -673 215.5 -663.5 Q 199 -654 188.5 -639.5 Q 178 -625 170.5 -608 Q 163 -591 158 -574 L 108 -646 Q 119 -667 132.5 -685 Q 146 -703 164.5 -716.5 Q 183 -730 205 -736.5 Q 227 -743 250 -743 Q 279 -743 307 -731.5 Q 335 -720 355 -699 Q 375 -678 389 -652 Q 403 -626 412.5 -598.5 Q 422 -571 428 -542 Q 434 -513 437.5 -484 Q 441 -455 442.5 -426 Q 444 -397 444 -368 Q 444 -320 440 -273 Q 436 -226 425 -180 Z M 250 8 Q 221 8 193 -3.5 Q 165 -15 145 -36 Q 125 -57 111 -83 Q 97 -109 87.5 -136.5 Q 78 -164 72 -193 Q 66 -222 62.5 -251 Q 59 -280 57.5 -309 Q 56 -338 56 -368 Q 56 -415 60 -462 Q 64 -509 75 -555 L 137 -463 Q 135 -439 134.5 -415 Q 134 -391 134 -368 Q 134 -350 134.5 -332 Q 135 -314 136 -296.5 Q 137 -279 138.5 -261.5 Q 140 -244 143 -226.5 Q 146 -209 149.5 -191.5 Q 153 -174 158.5 -157.5 Q 164 -141 171.5 -124.5 Q 179 -108 189.5 -94 Q 200 -80 216 -71 Q 232 -62 250 -62 Q 268 -62 284.5 -71.5 Q 301 -81 311.5 -95.5 Q 322 -110 329.5 -127 Q 337 -144 342 -161 L 392 -89 Q 381 -68 367.5 -50 Q 354 -32 335.5 -18.5 Q 317 -5 295 1.5 Q 273 8 250 8 Z " transform="translate(40 104.99201) rotate(0) scale(0.09599999)" fill="#dee4e3" />
  </g>
  <text x="988" y="2056" text-anchor="middle" font-family="sans-serif" font-size="16" fill="#b8c4c2">oval-tall-reverse-slashed-cutout</text>

  <g transform="translate(24 2120)">
    <rect x="0.5" y="0.5" width="259" height="209" rx="12" fill="#10181b" stroke="#28343a" />
  </g>
  <g transform="translate(90 2140)">
    <path d="M 250 8 Q 221 8 193 -3.5 Q 165 -15 145 -36 Q 125 -57 111 -83 Q 97 -109 87.5 -136.5 Q 78 -164 72 -193 Q 66 -222 62.5 -251 Q 59 -280 57.5 -309 Q 56 -338 56 -368 Q 56 -397 57.5 -426 Q 59 -455 62.5 -484 Q 66 -513 72 -542 Q 78 -571 87.5 -598.5 Q 97 -626 111 -652 Q 125 -678 145 -699 Q 165 -720 193 -731.5 Q 221 -743 250 -743 Q 279 -743 307 -731.5 Q 335 -720 355 -699 Q 375 -678 389 -652 Q 403 -626 412.5 -598.5 Q 422 -571 428 -542 Q 434 -513 437.5 -484 Q 441 -455 442.5 -426 Q 444 -397 444 -368 Q 444 -338 442.5 -309 Q 441 -280 437.5 -251 Q 434 -222 428 -193 Q 422 -164 412.5 -136.5 Q 403 -109 389 -83 Q 375 -57 355 -36 Q 335 -15 307 -3.5 Q 279 8 250 8 Z M 138 -262 L 345 -565 Q 340 -584 332.5 -602 Q 325 -620 314 -636 Q 303 -652 286 -662.5 Q 269 -673 250 -673 Q 232 -673 216 -664 Q 200 -655 189.5 -641 Q 179 -627 171.5 -610.5 Q 164 -594 158.5 -577.5 Q 153 -561 149.5 -543.5 Q 146 -526 143 -508.5 Q 140 -491 138.5 -473.5 Q 137 -456 136 -438.5 Q 135 -421 134.5 -403 Q 134 -385 134 -368 Q 134 -341 135 -314.5 Q 136 -288 138 -262 Z M 250 -62 Q 268 -62 284 -71 Q 300 -80 310.5 -94 Q 321 -108 328.5 -124.5 Q 336 -141 341.5 -157.5 Q 347 -174 350.5 -191.5 Q 354 -209 357 -226.5 Q 360 -244 361.5 -261.5 Q 363 -279 364 -296.5 Q 365 -314 365.5 -332 Q 366 -350 366 -368 Q 366 -394 365 -420.5 Q 364 -447 362 -473 L 155 -170 Q 160 -151 167.5 -133 Q 175 -115 186 -99 Q 197 -83 214 -72.5 Q 231 -62 250 -62 Z " transform="translate(40 104.99201) rotate(0) scale(0.09599999)" fill="#dee4e3" />
  </g>
  <text x="154" y="2284" text-anchor="middle" font-family="sans-serif" font-size="16" fill="#b8c4c2">oval-tall-slashed</text>

  <g transform="translate(302 2120)">
    <rect x="0.5" y="0.5" width="259" height="209" rx="12" fill="#10181b" stroke="#28343a" />
  </g>
  <g transform="translate(368 2140)">
    <path d="M 75 -180 Q 64 -226 60 -273 Q 56 -320 56 -368 Q 56 -397 57.5 -426 Q 59 -455 62.5 -484 Q 66 -513 72 -542 Q 78 -571 87.5 -598.5 Q 97 -626 111 -652 Q 125 -678 145 -699 Q 165 -720 193 -731.5 Q 221 -743 250 -743 Q 273 -743 295 -736.5 Q 317 -730 335.5 -716.5 Q 354 -703 367.5 -685 Q 381 -667 392 -646 L 342 -574 Q 337 -591 329.5 -608 Q 322 -625 311.5 -639.5 Q 301 -654 284.5 -663.5 Q 268 -673 250 -673 Q 232 -673 216 -664 Q 200 -655 189.5 -641 Q 179 -627 171.5 -610.5 Q 164 -594 158.5 -577.5 Q 153 -561 149.5 -543.5 Q 146 -526 143 -508.5 Q 140 -491 138.5 -473.5 Q 137 -456 136 -438.5 Q 135 -421 134.5 -403 Q 134 -385 134 -368 Q 134 -344 134.5 -320 Q 135 -296 137 -272 Z M 250 8 Q 227 8 205 1.5 Q 183 -5 164.5 -18.5 Q 146 -32 132.5 -50 Q 119 -68 108 -89 L 158 -161 Q 163 -144 170.5 -127 Q 178 -110 188.5 -95.5 Q 199 -81 215.5 -71.5 Q 232 -62 250 -62 Q 268 -62 284 -71 Q 300 -80 310.5 -94 Q 321 -108 328.5 -124.5 Q 336 -141 341.5 -157.5 Q 347 -174 350.5 -191.5 Q 354 -209 357 -226.5 Q 360 -244 361.5 -261.5 Q 363 -279 364 -296.5 Q 365 -314 365.5 -332 Q 366 -350 366 -368 Q 366 -391 365.5 -415 Q 365 -439 363 -463 L 425 -555 Q 436 -509 440 -462 Q 444 -415 444 -368 Q 444 -338 442.5 -309 Q 441 -280 437.5 -251 Q 434 -222 428 -193 Q 422 -164 412.5 -136.5 Q 403 -109 389 -83 Q 375 -57 355 -36 Q 335 -15 307 -3.5 Q 279 8 250 8 Z " transform="translate(40 104.99201) rotate(0) scale(0.09599999)" fill="#dee4e3" />
  </g>
  <text x="432" y="2284" text-anchor="middle" font-family="sans-serif" font-size="16" fill="#b8c4c2">oval-tall-slashed-cutout</text>

  <g transform="translate(580 2120)">
    <rect x="0.5" y="0.5" width="259" height="209" rx="12" fill="#10181b" stroke="#28343a" />
  </g>
  <g transform="translate(646 2140)">
    <path d="M 250 8 Q 221 8 193 -3.5 Q 165 -15 145 -36 Q 125 -57 111 -83 Q 97 -109 87.5 -136.5 Q 78 -164 72 -193 Q 66 -222 62.5 -251 Q 59 -280 57.5 -309 Q 56 -338 56 -368 Q 56 -397 57.5 -426 Q 59 -455 62.5 -484 Q 66 -513 72 -542 Q 78 -571 87.5 -598.5 Q 97 -626 111 -652 Q 125 -678 145 -699 Q 165 -720 193 -731.5 Q 221 -743 250 -743 Q 278 -743 304.5 -733 Q 331 -723 351 -703 L 300 -652 Q 290 -662 277 -667.5 Q 264 -673 250 -673 Q 232 -673 216 -664 Q 200 -655 189.5 -641 Q 179 -627 171.5 -610.5 Q 164 -594 158.5 -577.5 Q 153 -561 149.5 -543.5 Q 146 -526 143 -508.5 Q 140 -491 138.5 -473.5 Q 137 -456 136 -438.5 Q 135 -421 134.5 -403 Q 134 -385 134 -368 Q 134 -350 134.5 -332 Q 135 -314 136 -296.5 Q 137 -279 138.5 -261.5 Q 140 -244 143 -226.5 Q 146 -209 149.5 -191.5 Q 153 -174 158.5 -157.5 Q 164 -141 171.5 -124.5 Q 179 -108 189.5 -94 Q 200 -80 216 -71 Q 232 -62 250 -62 Q 268 -62 284 -71 Q 300 -80 310.5 -94 Q 321 -108 328.5 -124.5 Q 336 -141 341.5 -157.5 Q 347 -174 350.5 -191.5 Q 354 -209 357 -226.5 Q 360 -244 361.5 -261.5 Q 363 -279 364 -296.5 Q 365 -314 365.5 -332 Q 366 -350 366 -368 Q 366 -395 365 -422 Q 364 -449 361 -476 Q 358 -503 353 -530 Q 348 -557 340 -582 L 396 -639 Q 411 -607 420.5 -573.5 Q 430 -540 435 -506 Q 440 -472 442 -437 Q 444 -402 444 -368 Q 444 -338 442.5 -309 Q 441 -280 437.5 -251 Q 434 -222 428 -193 Q 422 -164 412.5 -136.5 Q 403 -109 389 -83 Q 375 -57 355 -36 Q 335 -15 307 -3.5 Q 279 8 250 8 Z " transform="translate(40 104.99201) rotate(0) scale(0.09599999)" fill="#dee4e3" />
  </g>
  <text x="710" y="2284" text-anchor="middle" font-family="sans-serif" font-size="16" fill="#b8c4c2">oval-top-right-cutout</text>

  <g transform="translate(858 2120)">
    <rect x="0.5" y="0.5" width="259" height="209" rx="12" fill="#10181b" stroke="#28343a" />
  </g>
  <g transform="translate(924 2140)">
    <path d="M 250 8 Q 221 8 193 -3.5 Q 165 -15 145 -36 Q 125 -57 111 -83 Q 97 -109 87.5 -136.5 Q 78 -164 72 -193 Q 66 -222 62.5 -251 Q 59 -280 57.5 -309 Q 56 -338 56 -368 Q 56 -397 57.5 -426 Q 59 -455 62.5 -484 Q 66 -513 72 -542 Q 78 -571 87.5 -598.5 Q 97 -626 111 -652 Q 125 -678 145 -699 Q 165 -720 193 -731.5 Q 221 -743 250 -743 Q 279 -743 307 -731.5 Q 335 -720 355 -699 Q 375 -678 389 -652 Q 403 -626 412.5 -598.5 Q 422 -571 428 -542 Q 434 -513 437.5 -484 Q 441 -455 442.5 -426 Q 444 -397 444 -368 Q 444 -338 442.5 -309 Q 441 -280 437.5 -251 Q 434 -222 428 -193 Q 422 -164 412.5 -136.5 Q 403 -109 389 -83 Q 375 -57 355 -36 Q 335 -15 307 -3.5 Q 279 8 250 8 Z M 250 -62 Q 268 -62 284 -71 Q 300 -80 310.5 -94 Q 321 -108 328.5 -124.5 Q 336 -141 341.5 -157.5 Q 347 -174 350.5 -191.5 Q 354 -209 357 -226.5 Q 360 -244 361.5 -261.5 Q 363 -279 364 -296.5 Q 365 -314 365.5 -332 Q 366 -350 366 -368 Q 366 -385 365.5 -403 Q 365 -421 364 -438.5 Q 363 -456 361.5 -473.5 Q 360 -491 357 -508.5 Q 354 -526 350.5 -543.5 Q 347 -561 341.5 -577.5 Q 336 -594 328.5 -610.5 Q 321 -627 310.5 -641 Q 300 -655 284 -664 Q 268 -673 250 -673 Q 232 -673 216 -664 Q 200 -655 189.5 -641 Q 179 -627 171.5 -610.5 Q 164 -594 158.5 -577.5 Q 153 -561 149.5 -543.5 Q 146 -526 143 -508.5 Q 140 -491 138.5 -473.5 Q 137 -456 136 -438.5 Q 135 -421 134.5 -403 Q 134 -385 134 -368 Q 134 -350 134.5 -332 Q 135 -314 136 -296.5 Q 137 -279 138.5 -261.5 Q 140 -244 143 -226.5 Q 146 -209 149.5 -191.5 Q 153 -174 158.5 -157.5 Q 164 -141 171.5 -124.5 Q 179 -108 189.5 -94 Q 200 -80 216 -71 Q 232 -62 250 -62 Z " transform="translate(40 104.99201) rotate(0) scale(0.09599999)" fill="#dee4e3" />
  </g>
  <text x="988" y="2284" text-anchor="middle" font-family="sans-serif" font-size="16" fill="#b8c4c2">oval-unslashed</text>

  <g transform="translate(24 2348)">
    <rect x="0.5" y="0.5" width="259" height="209" rx="12" fill="#10181b" stroke="#28343a" />
  </g>
  <g transform="translate(90 2368)">
    <path d="M 286 4 L 286 -72 Q 303 -82 314 -99 Q 325 -116 332.5 -134.5 Q 340 -153 345.5 -172 Q 351 -191 354.5 -210.5 Q 358 -230 360.5 -249.5 Q 363 -269 364 -288.5 Q 365 -308 365.5 -328 Q 366 -348 366 -368 Q 366 -387 365.5 -407 Q 365 -427 364 -446.5 Q 363 -466 360.5 -485.5 Q 358 -505 354.5 -524.5 Q 351 -544 345.5 -563 Q 340 -582 332.5 -600.5 Q 325 -619 314 -636 Q 303 -653 286 -663 L 286 -739 Q 312 -733 334 -716.5 Q 356 -700 372 -678 Q 388 -656 399 -631.5 Q 410 -607 418 -581 Q 426 -555 431 -528.5 Q 436 -502 439 -475 Q 442 -448 443 -421 Q 444 -394 444 -368 Q 444 -341 443 -314 Q 442 -287 439 -260 Q 436 -233 431 -206.5 Q 426 -180 418 -154 Q 410 -128 399 -103.5 Q 388 -79 372 -57 Q 356 -35 334 -18.5 Q 312 -2 286 4 Z M 214 4 Q 188 -2 166 -18.5 Q 144 -35 128 -57 Q 112 -79 101 -103.5 Q 90 -128 82 -154 Q 74 -180 69 -206.5 Q 64 -233 61 -260 Q 58 -287 57 -314 Q 56 -341 56 -368 Q 56 -394 57 -421 Q 58 -448 61 -475 Q 64 -502 69 -528.5 Q 74 -555 82 -581 Q 90 -607 101 -631.5 Q 112 -656 128 -678 Q 144 -700 166 -716.5 Q 188 -733 214 -739 L 214 -663 Q 197 -653 186 -636 Q 175 -619 167.5 -600.5 Q 160 -582 154.5 -563 Q 149 -544 145.5 -524.5 Q 142 -505 139.5 -485.5 Q 137 -466 136 -446.5 Q 135 -427 134.5 -407 Q 134 -387 134 -368 Q 134 -348 134.5 -328 Q 135 -308 136 -288.5 Q 137 -269 139.5 -249.5 Q 142 -230 145.5 -210.5 Q 149 -191 154.5 -172 Q 160 -153 167.5 -134.5 Q 175 -116 186 -99 Q 197 -82 214 -72 Z " transform="translate(40 104.99201) rotate(0) scale(0.09599999)" fill="#dee4e3" />
  </g>
  <text x="154" y="2512" text-anchor="middle" font-family="sans-serif" font-size="16" fill="#b8c4c2">oval-vertical-bar-cutout</text>

  <g transform="translate(302 2348)">
    <rect x="0.5" y="0.5" width="259" height="209" rx="12" fill="#10181b" stroke="#28343a" />
  </g>
  <g transform="translate(368 2368)">
    <path d="M 250 8 Q 223 8 196.5 2.5 Q 170 -3 146.5 -16 Q 123 -29 104.5 -49.5 Q 86 -70 75 -94.5 Q 64 -119 60 -146 Q 56 -173 56 -200 L 56 -535 Q 56 -562 60 -589 Q 64 -616 75 -640.5 Q 86 -665 104.5 -685.5 Q 123 -706 146.5 -719 Q 170 -732 196.5 -737.5 Q 223 -743 250 -743 Q 277 -743 303.5 -737.5 Q 330 -732 353.5 -719 Q 377 -706 395.5 -685.5 Q 414 -665 425 -640.5 Q 436 -616 440 -589 Q 444 -562 444 -535 L 444 -200 Q 444 -173 440 -146 Q 436 -119 425 -94.5 Q 414 -70 395.5 -49.5 Q 377 -29 353.5 -16 Q 330 -3 303.5 2.5 Q 277 8 250 8 Z M 366 -316 L 366 -535 Q 366 -552 364 -569 Q 362 -586 356 -602 Q 350 -618 339.5 -632 Q 329 -646 315 -655.5 Q 301 -665 284 -669 Q 267 -673 250 -673 Q 233 -673 216 -669 Q 199 -665 185 -655.5 Q 171 -646 160.5 -632 Q 150 -618 144 -602 Q 138 -586 136 -569 Q 134 -552 134 -535 L 134 -500 Z M 250 -62 Q 267 -62 284 -66 Q 301 -70 315 -79.5 Q 329 -89 339.5 -103 Q 350 -117 356 -133 Q 362 -149 364 -166 Q 366 -183 366 -200 L 366 -235 L 134 -419 L 134 -200 Q 134 -183 136 -166 Q 138 -149 144 -133 Q 150 -117 160.5 -103 Q 171 -89 185 -79.5 Q 199 -70 216 -66 Q 233 -62 250 -62 Z " transform="translate(40 104.99201) rotate(0) scale(0.09599999)" fill="#dee4e3" />
  </g>
  <text x="432" y="2512" text-anchor="middle" font-family="sans-serif" font-size="16" fill="#b8c4c2">reverse-slashed</text>

  <g transform="translate(580 2348)">
    <rect x="0.5" y="0.5" width="259" height="209" rx="12" fill="#10181b" stroke="#28343a" />
  </g>
  <g transform="translate(646 2368)">
    <path d="M 444 -262 L 366 -324 L 366 -535 Q 366 -552 364 -569 Q 362 -586 356 -602 Q 350 -618 339.5 -632 Q 329 -646 315 -655.5 Q 301 -665 284 -669 Q 267 -673 250 -673 Q 233 -673 216 -669 Q 199 -665 185 -655.5 Q 171 -646 160.5 -632 Q 150 -618 144 -602 Q 138 -586 136 -569 Q 134 -552 134 -535 L 134 -509 L 57 -570 Q 60 -606 75 -639.5 Q 90 -673 116.5 -697.5 Q 143 -722 178.5 -732.5 Q 214 -743 250 -743 Q 277 -743 303.5 -737.5 Q 330 -732 353.5 -719 Q 377 -706 395.5 -685.5 Q 414 -665 425 -640.5 Q 436 -616 440 -589 Q 444 -562 444 -535 Z M 250 8 Q 223 8 196.5 2.5 Q 170 -3 146.5 -16 Q 123 -29 104.5 -49.5 Q 86 -70 75 -94.5 Q 64 -119 60 -146 Q 56 -173 56 -200 L 56 -473 L 134 -411 L 134 -200 Q 134 -183 136 -166 Q 138 -149 144 -133 Q 150 -117 160.5 -103 Q 171 -89 185 -79.5 Q 199 -70 216 -66 Q 233 -62 250 -62 Q 267 -62 284 -66 Q 301 -70 315 -79.5 Q 329 -89 339.5 -103 Q 350 -117 356 -133 Q 362 -149 364 -166 Q 366 -183 366 -200 L 366 -226 L 443 -165 Q 440 -129 425 -95.5 Q 410 -62 383.5 -37.5 Q 357 -13 321.5 -2.5 Q 286 8 250 8 Z " transform="translate(40 104.99201) rotate(0) scale(0.09599999)" fill="#dee4e3" />
  </g>
  <text x="710" y="2512" text-anchor="middle" font-family="sans-serif" font-size="16" fill="#b8c4c2">reverse-slashed-cutout</text>

  <g transform="translate(858 2348)">
    <rect x="0.5" y="0.5" width="259" height="209" rx="12" fill="#10181b" stroke="#28343a" />
  </g>
  <g transform="translate(924 2368)">
    <path d="M 250 8 Q 223 8 196.5 2.5 Q 170 -3 146.5 -16 Q 123 -29 104.5 -49.5 Q 86 -70 75 -94.5 Q 64 -119 60 -146 Q 56 -173 56 -200 L 56 -535 Q 56 -562 60 -589 Q 64 -616 75 -640.5 Q 86 -665 104.5 -685.5 Q 123 -706 146.5 -719 Q 170 -732 196.5 -737.5 Q 223 -743 250 -743 Q 277 -743 303.5 -737.5 Q 330 -732 353.5 -719 Q 377 -706 395.5 -685.5 Q 414 -665 425 -640.5 Q 436 -616 440 -589 Q 444 -562 444 -535 L 444 -200 Q 444 -173 440 -146 Q 436 -119 425 -94.5 Q 414 -70 395.5 -49.5 Q 377 -29 353.5 -16 Q 330 -3 303.5 2.5 Q 277 8 250 8 Z M 250 -62 Q 267 -62 284 -66 Q 301 -70 315 -79.5 Q 329 -89 339.5 -103 Q 350 -117 356 -133 Q 362 -149 364 -166 Q 366 -183 366 -200 L 366 -535 Q 366 -552 364 -569 Q 362 -586 356 -602 Q 350 -618 339.5 -632 Q 329 -646 315 -655.5 Q 301 -665 284 -669 Q 267 -673 250 -673 Q 233 -673 216 -669 Q 199 -665 185 -655.5 Q 171 -646 160.5 -632 Q 150 -618 144 -602 Q 138 -586 136 -569 Q 134 -552 134 -535 L 134 -200 Q 134 -183 136 -166 Q 138 -149 144 -133 Q 150 -117 160.5 -103 Q 171 -89 185 -79.5 Q 199 -70 216 -66 Q 233 -62 250 -62 Z M 305 -283 L 195 -371 L 195 -452 L 305 -364 Z " transform="translate(40 104.99201) rotate(0) scale(0.09599999)" fill="#dee4e3" />
  </g>
  <text x="988" y="2512" text-anchor="middle" font-family="sans-serif" font-size="16" fill="#b8c4c2">reverse-slashed-split</text>

  <g transform="translate(24 2576)">
    <rect x="0.5" y="0.5" width="259" height="209" rx="12" fill="#10181b" stroke="#28343a" />
  </g>
  <g transform="translate(90 2596)">
    <path d="M 250 8 Q 223 8 196.5 2.5 Q 170 -3 146.5 -16 Q 123 -29 104.5 -49.5 Q 86 -70 75 -94.5 Q 64 -119 60 -146 Q 56 -173 56 -200 L 56 -535 Q 56 -562 60 -589 Q 64 -616 75 -640.5 Q 86 -665 104.5 -685.5 Q 123 -706 146.5 -719 Q 170 -732 196.5 -737.5 Q 223 -743 250 -743 Q 277 -743 303.5 -737.5 Q 330 -732 353.5 -719 Q 377 -706 395.5 -685.5 Q 414 -665 425 -640.5 Q 436 -616 440 -589 Q 444 -562 444 -535 L 444 -200 Q 444 -173 440 -146 Q 436 -119 425 -94.5 Q 414 -70 395.5 -49.5 Q 377 -29 353.5 -16 Q 330 -3 303.5 2.5 Q 277 8 250 8 Z M 134 -316 L 366 -500 L 366 -535 Q 366 -552 364 -569 Q 362 -586 356 -602 Q 350 -618 339.5 -632 Q 329 -646 315 -655.5 Q 301 -665 284 -669 Q 267 -673 250 -673 Q 233 -673 216 -669 Q 199 -665 185 -655.5 Q 171 -646 160.5 -632 Q 150 -618 144 -602 Q 138 -586 136 -569 Q 134 -552 134 -535 Z M 250 -62 Q 267 -62 284 -66 Q 301 -70 315 -79.5 Q 329 -89 339.5 -103 Q 350 -117 356 -133 Q 362 -149 364 -166 Q 366 -183 366 -200 L 366 -419 L 134 -235 L 134 -200 Q 134 -183 136 -166 Q 138 -149 144 -133 Q 150 -117 160.5 -103 Q 171 -89 185 -79.5 Q 199 -70 216 -66 Q 233 -62 250 -62 Z " transform="translate(40 104.99201) rotate(0) scale(0.09599999)" fill="#dee4e3" />
  </g>
  <text x="154" y="2740" text-anchor="middle" font-family="sans-serif" font-size="16" fill="#b8c4c2">slashed</text>

  <g transform="translate(302 2576)">
    <rect x="0.5" y="0.5" width="259" height="209" rx="12" fill="#10181b" stroke="#28343a" />
  </g>
  <g transform="translate(368 2596)">
    <path d="M 56 -262 L 56 -535 Q 56 -562 60 -589 Q 64 -616 75 -640.5 Q 86 -665 104.5 -685.5 Q 123 -706 146.5 -719 Q 170 -732 196.5 -737.5 Q 223 -743 250 -743 Q 286 -743 321.5 -732.5 Q 357 -722 383.5 -697.5 Q 410 -673 425 -639.5 Q 440 -606 443 -570 L 366 -509 L 366 -535 Q 366 -552 364 -569 Q 362 -586 356 -602 Q 350 -618 339.5 -632 Q 329 -646 315 -655.5 Q 301 -665 284 -669 Q 267 -673 250 -673 Q 233 -673 216 -669 Q 199 -665 185 -655.5 Q 171 -646 160.5 -632 Q 150 -618 144 -602 Q 138 -586 136 -569 Q 134 -552 134 -535 L 134 -324 Z M 250 8 Q 214 8 178.5 -2.5 Q 143 -13 116.5 -37.5 Q 90 -62 75 -95.5 Q 60 -129 57 -165 L 134 -226 L 134 -200 Q 134 -183 136 -166 Q 138 -149 144 -133 Q 150 -117 160.5 -103 Q 171 -89 185 -79.5 Q 199 -70 216 -66 Q 233 -62 250 -62 Q 267 -62 284 -66 Q 301 -70 315 -79.5 Q 329 -89 339.5 -103 Q 350 -117 356 -133 Q 362 -149 364 -166 Q 366 -183 366 -200 L 366 -411 L 444 -473 L 444 -200 Q 444 -173 440 -146 Q 436 -119 425 -94.5 Q 414 -70 395.5 -49.5 Q 377 -29 353.5 -16 Q 330 -3 303.5 2.5 Q 277 8 250 8 Z " transform="translate(40 104.99201) rotate(0) scale(0.09599999)" fill="#dee4e3" />
  </g>
  <text x="432" y="2740" text-anchor="middle" font-family="sans-serif" font-size="16" fill="#b8c4c2">slashed-cutout</text>

  <g transform="translate(580 2576)">
    <rect x="0.5" y="0.5" width="259" height="209" rx="12" fill="#10181b" stroke="#28343a" />
  </g>
  <g transform="translate(646 2596)">
    <path d="M 250 8 Q 223 8 196.5 2.5 Q 170 -3 146.5 -16 Q 123 -29 104.5 -49.5 Q 86 -70 75 -94.5 Q 64 -119 60 -146 Q 56 -173 56 -200 L 56 -535 Q 56 -562 60 -589 Q 64 -616 75 -640.5 Q 86 -665 104.5 -685.5 Q 123 -706 146.5 -719 Q 170 -732 196.5 -737.5 Q 223 -743 250 -743 Q 277 -743 303.5 -737.5 Q 330 -732 353.5 -719 Q 377 -706 395.5 -685.5 Q 414 -665 425 -640.5 Q 436 -616 440 -589 Q 444 -562 444 -535 L 444 -200 Q 444 -173 440 -146 Q 436 -119 425 -94.5 Q 414 -70 395.5 -49.5 Q 377 -29 353.5 -16 Q 330 -3 303.5 2.5 Q 277 8 250 8 Z M 250 -62 Q 267 -62 284 -66 Q 301 -70 315 -79.5 Q 329 -89 339.5 -103 Q 350 -117 356 -133 Q 362 -149 364 -166 Q 366 -183 366 -200 L 366 -535 Q 366 -552 364 -569 Q 362 -586 356 -602 Q 350 -618 339.5 -632 Q 329 -646 315 -655.5 Q 301 -665 284 -669 Q 267 -673 250 -673 Q 233 -673 216 -669 Q 199 -665 185 -655.5 Q 171 -646 160.5 -632 Q 150 -618 144 -602 Q 138 -586 136 -569 Q 134 -552 134 -535 L 134 -200 Q 134 -183 136 -166 Q 138 -149 144 -133 Q 150 -117 160.5 -103 Q 171 -89 185 -79.5 Q 199 -70 216 -66 Q 233 -62 250 -62 Z M 195 -283 L 195 -364 L 305 -452 L 305 -371 Z " transform="translate(40 104.99201) rotate(0) scale(0.09599999)" fill="#dee4e3" />
  </g>
  <text x="710" y="2740" text-anchor="middle" font-family="sans-serif" font-size="16" fill="#b8c4c2">slashed-split</text>

  <g transform="translate(858 2576)">
    <rect x="0.5" y="0.5" width="259" height="209" rx="12" fill="#10181b" stroke="#28343a" />
  </g>
  <g transform="translate(924 2596)">
    <path d="M 250 8 Q 223 8 196.5 2.5 Q 170 -3 146.5 -16 Q 123 -29 104.5 -49.5 Q 86 -70 75 -94.5 Q 64 -119 60 -146 Q 56 -173 56 -200 L 56 -535 Q 56 -562 60 -589 Q 64 -616 75 -640.5 Q 86 -665 104.5 -685.5 Q 123 -706 146.5 -719 Q 170 -732 196.5 -737.5 Q 223 -743 250 -743 Q 277 -743 303.5 -737.5 Q 330 -732 353.5 -719 Q 377 -706 395.5 -685.5 Q 414 -665 425 -640.5 Q 436 -616 440 -589 Q 444 -562 444 -535 L 444 -200 Q 444 -173 440 -146 Q 436 -119 425 -94.5 Q 414 -70 395.5 -49.5 Q 377 -29 353.5 -16 Q 330 -3 303.5 2.5 Q 277 8 250 8 Z M 366 -255 L 366 -535 Q 366 -552 364 -569 Q 362 -586 356 -602 Q 350 -618 339.5 -632 Q 329 -646 315 -655.5 Q 301 -665 284 -669 Q 267 -673 250 -673 Q 231 -673 212.5 -668 Q 194 -663 179 -651 Q 164 -639 154.5 -622.5 Q 145 -606 140 -588 Z M 250 -62 Q 269 -62 287.5 -67 Q 306 -72 321 -84 Q 336 -96 345.5 -112.5 Q 355 -129 360 -147 L 134 -480 L 134 -200 Q 134 -183 136 -166 Q 138 -149 144 -133 Q 150 -117 160.5 -103 Q 171 -89 185 -79.5 Q 199 -70 216 -66 Q 233 -62 250 -62 Z " transform="translate(40 104.99201) rotate(0) scale(0.09599999)" fill="#dee4e3" />
  </g>
  <text x="988" y="2740" text-anchor="middle" font-family="sans-serif" font-size="16" fill="#b8c4c2">tall-reverse-slashed</text>

  <g transform="translate(24 2804)">
    <rect x="0.5" y="0.5" width="259" height="209" rx="12" fill="#10181b" stroke="#28343a" />
  </g>
  <g transform="translate(90 2824)">
    <path d="M 442 -156 L 366 -267 L 366 -535 Q 366 -552 364 -569 Q 362 -586 356 -602 Q 350 -618 339.5 -632 Q 329 -646 315 -655.5 Q 301 -665 284 -669 Q 267 -673 250 -673 Q 232 -673 214.5 -668.5 Q 197 -664 182.5 -653.5 Q 168 -643 158 -628 Q 148 -613 142 -596 L 92 -670 Q 105 -689 123 -703.5 Q 141 -718 161.5 -727 Q 182 -736 204.5 -739.5 Q 227 -743 250 -743 Q 277 -743 303.5 -737.5 Q 330 -732 353.5 -719 Q 377 -706 395.5 -685.5 Q 414 -665 425 -640.5 Q 436 -616 440 -589 Q 444 -562 444 -535 L 444 -200 Q 444 -189 443.5 -178 Q 443 -167 442 -156 Z M 250 8 Q 223 8 196.5 2.5 Q 170 -3 146.5 -16 Q 123 -29 104.5 -49.5 Q 86 -70 75 -94.5 Q 64 -119 60 -146 Q 56 -173 56 -200 L 56 -535 Q 56 -546 56.5 -557 Q 57 -568 58 -579 L 134 -468 L 134 -200 Q 134 -183 136 -166 Q 138 -149 144 -133 Q 150 -117 160.5 -103 Q 171 -89 185 -79.5 Q 199 -70 216 -66 Q 233 -62 250 -62 Q 268 -62 285.5 -66.5 Q 303 -71 317.5 -81.5 Q 332 -92 342 -107 Q 352 -122 358 -139 L 408 -65 Q 395 -46 377 -31.5 Q 359 -17 338.5 -8 Q 318 1 295.5 4.5 Q 273 8 250 8 Z " transform="translate(40 104.99201) rotate(0) scale(0.09599999)" fill="#dee4e3" />
  </g>
  <text x="154" y="2968" text-anchor="middle" font-family="sans-serif" font-size="16" fill="#b8c4c2">tall-reverse-slashed-cutout</text>

  <g transform="translate(302 2804)">
    <rect x="0.5" y="0.5" width="259" height="209" rx="12" fill="#10181b" stroke="#28343a" />
  </g>
  <g transform="translate(368 2824)">
    <path d="M 250 8 Q 223 8 196.5 2.5 Q 170 -3 146.5 -16 Q 123 -29 104.5 -49.5 Q 86 -70 75 -94.5 Q 64 -119 60 -146 Q 56 -173 56 -200 L 56 -535 Q 56 -562 60 -589 Q 64 -616 75 -640.5 Q 86 -665 104.5 -685.5 Q 123 -706 146.5 -719 Q 170 -732 196.5 -737.5 Q 223 -743 250 -743 Q 277 -743 303.5 -737.5 Q 330 -732 353.5 -719 Q 377 -706 395.5 -685.5 Q 414 -665 425 -640.5 Q 436 -616 440 -589 Q 444 -562 444 -535 L 444 -200 Q 444 -173 440 -146 Q 436 -119 425 -94.5 Q 414 -70 395.5 -49.5 Q 377 -29 353.5 -16 Q 330 -3 303.5 2.5 Q 277 8 250 8 Z M 134 -255 L 360 -588 Q 355 -606 345.5 -622.5 Q 336 -639 321 -651 Q 306 -663 287.5 -668 Q 269 -673 250 -673 Q 233 -673 216 -669 Q 199 -665 185 -655.5 Q 171 -646 160.5 -632 Q 150 -618 144 -602 Q 138 -586 136 -569 Q 134 -552 134 -535 Z M 250 -62 Q 267 -62 284 -66 Q 301 -70 315 -79.5 Q 329 -89 339.5 -103 Q 350 -117 356 -133 Q 362 -149 364 -166 Q 366 -183 366 -200 L 366 -480 L 140 -147 Q 145 -129 154.5 -112.5 Q 164 -96 179 -84 Q 194 -72 212.5 -67 Q 231 -62 250 -62 Z " transform="translate(40 104.99201) rotate(0) scale(0.09599999)" fill="#dee4e3" />
  </g>
  <text x="432" y="2968" text-anchor="middle" font-family="sans-serif" font-size="16" fill="#b8c4c2">tall-slashed</text>

  <g transform="translate(580 2804)">
    <rect x="0.5" y="0.5" width="259" height="209" rx="12" fill="#10181b" stroke="#28343a" />
  </g>
  <g transform="translate(646 2824)">
    <path d="M 58 -156 Q 57 -167 56.5 -178 Q 56 -189 56 -200 L 56 -535 Q 56 -562 60 -589 Q 64 -616 75 -640.5 Q 86 -665 104.5 -685.5 Q 123 -706 146.5 -719 Q 170 -732 196.5 -737.5 Q 223 -743 250 -743 Q 273 -743 295.5 -739.5 Q 318 -736 338.5 -727 Q 359 -718 377 -703.5 Q 395 -689 408 -670 L 358 -596 Q 352 -613 342 -628 Q 332 -643 317.5 -653.5 Q 303 -664 285.5 -668.5 Q 268 -673 250 -673 Q 233 -673 216 -669 Q 199 -665 185 -655.5 Q 171 -646 160.5 -632 Q 150 -618 144 -602 Q 138 -586 136 -569 Q 134 -552 134 -535 L 134 -267 Z M 250 8 Q 227 8 204.5 4.5 Q 182 1 161.5 -8 Q 141 -17 123 -31.5 Q 105 -46 92 -65 L 142 -139 Q 148 -122 158 -107 Q 168 -92 182.5 -81.5 Q 197 -71 214.5 -66.5 Q 232 -62 250 -62 Q 267 -62 284 -66 Q 301 -70 315 -79.5 Q 329 -89 339.5 -103 Q 350 -117 356 -133 Q 362 -149 364 -166 Q 366 -183 366 -200 L 366 -468 L 442 -579 Q 443 -568 443.5 -557 Q 444 -546 444 -535 L 444 -200 Q 444 -173 440 -146 Q 436 -119 425 -94.5 Q 414 -70 395.5 -49.5 Q 377 -29 353.5 -16 Q 330 -3 303.5 2.5 Q 277 8 250 8 Z " transform="translate(40 104.99201) rotate(0) scale(0.09599999)" fill="#dee4e3" />
  </g>
  <text x="710" y="2968" text-anchor="middle" font-family="sans-serif" font-size="16" fill="#b8c4c2">tall-slashed-cutout</text>

  <g transform="translate(858 2804)">
    <rect x="0.5" y="0.5" width="259" height="209" rx="12" fill="#10181b" stroke="#28343a" />
  </g>
  <g transform="translate(924 2824)">
    <path d="M 250 8 Q 223 8 196.5 2.5 Q 170 -3 146.5 -16 Q 123 -29 104.5 -49.5 Q 86 -70 75 -94.5 Q 64 -119 60 -146 Q 56 -173 56 -200 L 56 -535 Q 56 -562 60 -589 Q 64 -616 75 -640.5 Q 86 -665 104.5 -685.5 Q 123 -706 146.5 -719 Q 170 -732 196.5 -737.5 Q 223 -743 250 -743 Q 279 -743 308 -736.5 Q 337 -730 362 -714 L 308 -660 Q 295 -667 280 -670 Q 265 -673 250 -673 Q 233 -673 216 -669 Q 199 -665 185 -655.5 Q 171 -646 160.5 -632 Q 150 -618 144 -602 Q 138 -586 136 -569 Q 134 -552 134 -535 L 134 -200 Q 134 -183 136 -166 Q 138 -149 144 -133 Q 150 -117 160.5 -103 Q 171 -89 185 -79.5 Q 199 -70 216 -66 Q 233 -62 250 -62 Q 267 -62 284 -66 Q 301 -70 315 -79.5 Q 329 -89 339.5 -103 Q 350 -117 356 -133 Q 362 -149 364 -166 Q 366 -183 366 -200 L 366 -535 Q 366 -551 364 -567.5 Q 362 -584 357 -599 L 415 -658 Q 432 -630 438 -598.5 Q 444 -567 444 -535 L 444 -200 Q 444 -173 440 -146 Q 436 -119 425 -94.5 Q 414 -70 395.5 -49.5 Q 377 -29 353.5 -16 Q 330 -3 303.5 2.5 Q 277 8 250 8 Z " transform="translate(40 104.99201) rotate(0) scale(0.09599999)" fill="#dee4e3" />
  </g>
  <text x="988" y="2968" text-anchor="middle" font-family="sans-serif" font-size="16" fill="#b8c4c2">top-right-cutout</text>

  <g transform="translate(24 3032)">
    <rect x="0.5" y="0.5" width="259" height="209" rx="12" fill="#10181b" stroke="#28343a" />
  </g>
  <g transform="translate(90 3052)">
    <path d="M 250 8 Q 223 8 196.5 2.5 Q 170 -3 146.5 -16 Q 123 -29 104.5 -49.5 Q 86 -70 75 -94.5 Q 64 -119 60 -146 Q 56 -173 56 -200 L 56 -535 Q 56 -562 60 -589 Q 64 -616 75 -640.5 Q 86 -665 104.5 -685.5 Q 123 -706 146.5 -719 Q 170 -732 196.5 -737.5 Q 223 -743 250 -743 Q 277 -743 303.5 -737.5 Q 330 -732 353.5 -719 Q 377 -706 395.5 -685.5 Q 414 -665 425 -640.5 Q 436 -616 440 -589 Q 444 -562 444 -535 L 444 -200 Q 444 -173 440 -146 Q 436 -119 425 -94.5 Q 414 -70 395.5 -49.5 Q 377 -29 353.5 -16 Q 330 -3 303.5 2.5 Q 277 8 250 8 Z M 250 -62 Q 267 -62 284 -66 Q 301 -70 315 -79.5 Q 329 -89 339.5 -103 Q 350 -117 356 -133 Q 362 -149 364 -166 Q 366 -183 366 -200 L 366 -535 Q 366 -552 364 -569 Q 362 -586 356 -602 Q 350 -618 339.5 -632 Q 329 -646 315 -655.5 Q 301 -665 284 -669 Q 267 -673 250 -673 Q 233 -673 216 -669 Q 199 -665 185 -655.5 Q 171 -646 160.5 -632 Q 150 -618 144 -602 Q 138 -586 136 -569 Q 134 -552 134 -535 L 134 -200 Q 134 -183 136 -166 Q 138 -149 144 -133 Q 150 -117 160.5 -103 Q 171 -89 185 -79.5 Q 199 -70 216 -66 Q 233 -62 250 -62 Z " transform="translate(40 104.99201) rotate(0) scale(0.09599999)" fill="#dee4e3" />
  </g>
  <text x="154" y="3196" text-anchor="middle" font-family="sans-serif" font-size="16" fill="#b8c4c2">unslashed</text>

  <g transform="translate(302 3032)">
    <rect x="0.5" y="0.5" width="259" height="209" rx="12" fill="#10181b" stroke="#28343a" />
  </g>
  <g transform="translate(368 3052)">
    <path d="M 286 6 L 286 -66 Q 306 -72 323 -86 Q 340 -100 349.5 -118.5 Q 359 -137 362.5 -158 Q 366 -179 366 -200 L 366 -535 Q 366 -556 362.5 -577 Q 359 -598 349.5 -616.5 Q 340 -635 323 -649 Q 306 -663 286 -669 L 286 -741 Q 310 -738 332.5 -729.5 Q 355 -721 374 -706 Q 393 -691 407 -671 Q 421 -651 429.5 -629 Q 438 -607 441 -583 Q 444 -559 444 -535 L 444 -200 Q 444 -176 441 -152 Q 438 -128 429.5 -106 Q 421 -84 407 -64 Q 393 -44 374 -29 Q 355 -14 332.5 -5.5 Q 310 3 286 6 Z M 214 6 Q 190 3 167.5 -5.5 Q 145 -14 126 -29 Q 107 -44 93 -64 Q 79 -84 70.5 -106 Q 62 -128 59 -152 Q 56 -176 56 -200 L 56 -535 Q 56 -559 59 -583 Q 62 -607 70.5 -629 Q 79 -651 93 -671 Q 107 -691 126 -706 Q 145 -721 167.5 -729.5 Q 190 -738 214 -741 L 214 -669 Q 194 -663 177 -649 Q 160 -635 150.5 -616.5 Q 141 -598 137.5 -577 Q 134 -556 134 -535 L 134 -200 Q 134 -179 137.5 -158 Q 141 -137 150.5 -118.5 Q 160 -100 177 -86 Q 194 -72 214 -66 Z " transform="translate(40 104.99201) rotate(0) scale(0.09599999)" fill="#dee4e3" />
  </g>
  <text x="432" y="3196" text-anchor="middle" font-family="sans-serif" font-size="16" fill="#b8c4c2">vertical-bar-cutout</text>
</svg>
